<?xml version="1.0" encoding="UTF-8" standalone="no"?>
<!DOCTYPE svg PUBLIC "-//W3C//DTD SVG 1.1//EN" "http://www.w3.org/Graphics/SVG/1.1/DTD/svg11.dtd">
<!-- Created with Vectornator (http://vectornator.io/) -->
<svg height="100%" stroke-miterlimit="10" style="fill-rule:nonzero;clip-rule:evenodd;stroke-linecap:round;stroke-linejoin:round;" version="1.1" viewBox="0 0 1379 409" width="100%" xml:space="preserve" xmlns="http://www.w3.org/2000/svg" xmlns:vectornator="http://vectornator.io" xmlns:xlink="http://www.w3.org/1999/xlink">
<defs/>
<g id="Layer-1" vectornator:layerName="Layer 1">
<g opacity="1">
<path d="M244.489 277.882L94.9634 277.882L94.9634 265.234L244.589 265.234C310.738 265.234 366.399 213.147 367.963 147.016C369.572 78.893 314.628 22.9623 246.861 22.9623L30.7847 22.9623C23.7991 22.9623 18.1368 17.3 18.1368 10.3143L246.861 10.3143C319.852 10.3143 379.378 69.0713 380.625 141.772C381.909 216.621 319.349 277.882 244.489 277.882" fill="#02c5ac" fill-rule="nonzero" opacity="1" stroke="none"/>
<path d="M244.487 401.574L18.1372 401.574C18.1372 394.588 23.7995 388.926 30.7832 388.926L244.588 388.926C310.737 388.926 366.399 336.839 367.963 270.708C369.573 202.582 314.628 146.652 246.862 146.652L94.9638 146.652L94.9638 134.004L246.862 134.004C319.853 134.004 379.379 192.761 380.625 265.461C381.907 340.312 319.348 401.574 244.487 401.574" fill="#02c5ac" fill-rule="nonzero" opacity="1" stroke="none"/>
<path d="M303.603 205.95C288.674 192.203 268.714 183.801 246.862 183.801L126.753 183.801L126.753 228.078L246.862 228.078C268.754 228.078 286.583 245.888 286.583 267.779C286.583 289.691 268.754 307.5 246.862 307.5L62.3984 307.5L62.3984 228.078L107.602 228.078L107.602 183.801L18.1413 183.801L18.1413 351.757L246.862 351.757C293.17 351.757 330.84 314.088 330.84 267.779C330.84 243.343 320.348 221.294 303.603 205.95" fill="#000000" fill-rule="nonzero" opacity="1" stroke="none"/>
<path d="M18.1413 228.078L101.287 228.078L101.287 183.801L18.1413 183.801L18.1413 228.078ZM330.801 141.556C329.44 95.8789 290.764 60.1222 245.087 60.1222L18.1413 60.1222C18.1413 84.578 37.9623 104.379 62.3984 104.379L246.862 104.379C270.016 104.379 288.614 124.319 286.386 147.926C284.453 168.497 266.368 183.801 245.698 183.801L126.753 183.801L126.753 228.078L246.862 228.078C268.714 228.078 288.654 219.696 303.603 205.95C320.92 190.073 331.57 167.037 330.801 141.556" fill="#000000" fill-rule="nonzero" opacity="1" stroke="none"/>
<path d="M107.612 277.883L94.964 277.883L94.964 134.006L107.612 134.006L107.612 277.883Z" fill="#02c5ac" fill-rule="nonzero" opacity="1" stroke="none"/>
<path d="M157.224 183.466L157.224 205.95L126.753 205.95L126.753 166.84C132.038 174.907 135.569 183.466 157.224 183.466" fill="#000000" fill-rule="nonzero" opacity="1" stroke="none"/>
<path d="M157.224 205.95L157.224 228.414C135.569 228.414 132.038 236.993 126.753 245.04L126.753 205.95L157.224 205.95Z" fill="#000000" fill-rule="nonzero" opacity="1" stroke="none"/>
</g>
<g opacity="1">
<path d="M505.61 220.363C505.61 225.395 504.649 230.116 502.727 234.526C500.805 238.935 498.19 242.794 494.882 246.101C491.575 249.409 487.717 252.023 483.307 253.946C478.897 255.868 474.176 256.829 469.145 256.829L408.341 256.829L408.341 135.221L469.145 135.221C474.176 135.221 478.897 136.182 483.307 138.104C487.717 140.027 491.575 142.641 494.882 145.949C498.19 149.256 500.805 153.115 502.727 157.524C504.649 161.934 505.61 166.655 505.61 171.686C505.61 173.948 505.299 176.266 504.677 178.64C504.055 181.015 503.179 183.304 502.048 185.509C500.918 187.714 499.561 189.721 497.978 191.53C496.395 193.34 494.642 194.838 492.72 196.025C494.699 197.099 496.48 198.555 498.063 200.392C499.646 202.23 501.002 204.251 502.133 206.456C503.264 208.661 504.126 210.964 504.72 213.367C505.313 215.77 505.61 218.102 505.61 220.363ZM432.679 232.49L469.145 232.49C470.841 232.49 472.424 232.179 473.894 231.557C475.364 230.936 476.65 230.073 477.752 228.971C478.855 227.869 479.717 226.582 480.339 225.112C480.961 223.643 481.272 222.06 481.272 220.363C481.272 218.667 480.961 217.084 480.339 215.614C479.717 214.145 478.855 212.858 477.752 211.756C476.65 210.654 475.364 209.791 473.894 209.169C472.424 208.548 470.841 208.237 469.145 208.237L432.679 208.237L432.679 232.49ZM432.679 183.898L469.145 183.898C470.841 183.898 472.424 183.587 473.894 182.965C475.364 182.343 476.65 181.481 477.752 180.379C478.855 179.276 479.717 177.976 480.339 176.478C480.961 174.98 481.272 173.383 481.272 171.686C481.272 169.99 480.961 168.407 480.339 166.937C479.717 165.468 478.855 164.181 477.752 163.079C476.65 161.976 475.364 161.114 473.894 160.492C472.424 159.871 470.841 159.56 469.145 159.56L432.679 159.56L432.679 183.898Z" fill="#000000" fill-rule="nonzero" opacity="1" stroke="none"/>
<path d="M609.324 210.611C609.324 217.395 608.109 223.713 605.678 229.565C603.247 235.416 599.939 240.476 595.756 244.744C591.572 249.013 586.668 252.377 581.042 254.836C575.417 257.295 569.382 258.525 562.937 258.525C556.548 258.525 550.542 257.295 544.916 254.836C539.291 252.377 534.372 249.013 530.161 244.744C525.949 240.476 522.627 235.416 520.196 229.565C517.765 223.713 516.55 217.395 516.55 210.611C516.55 203.714 517.765 197.325 520.196 191.446C522.627 185.566 525.949 180.492 530.161 176.223C534.372 171.955 539.291 168.605 544.916 166.174C550.542 163.743 556.548 162.528 562.937 162.528C569.382 162.528 575.417 163.673 581.042 165.962C586.668 168.252 591.572 171.503 595.756 175.715C599.939 179.926 603.247 184.986 605.678 190.894C608.109 196.802 609.324 203.375 609.324 210.611ZM586.003 210.611C586.003 206.88 585.396 203.502 584.18 200.477C582.965 197.452 581.311 194.852 579.219 192.675C577.127 190.499 574.682 188.831 571.884 187.672C569.085 186.513 566.103 185.933 562.937 185.933C559.771 185.933 556.789 186.513 553.99 187.672C551.192 188.831 548.761 190.499 546.697 192.675C544.634 194.852 543.008 197.452 541.821 200.477C540.634 203.502 540.04 206.88 540.04 210.611C540.04 214.116 540.634 217.367 541.821 220.363C543.008 223.36 544.634 225.96 546.697 228.165C548.761 230.37 551.192 232.109 553.99 233.381C556.789 234.653 559.771 235.289 562.937 235.289C566.103 235.289 569.085 234.695 571.884 233.508C574.682 232.321 577.127 230.653 579.219 228.505C581.311 226.356 582.965 223.756 584.18 220.703C585.396 217.65 586.003 214.286 586.003 210.611Z" fill="#000000" fill-rule="nonzero" opacity="1" stroke="none"/>
<path d="M709.901 210.611C709.901 217.395 708.685 223.713 706.254 229.565C703.823 235.416 700.516 240.476 696.332 244.744C692.149 249.013 687.244 252.377 681.619 254.836C675.994 257.295 669.959 258.525 663.514 258.525C657.125 258.525 651.118 257.295 645.493 254.836C639.868 252.377 634.949 249.013 630.737 244.744C626.525 240.476 623.204 235.416 620.773 229.565C618.342 223.713 617.126 217.395 617.126 210.611C617.126 203.714 618.342 197.325 620.773 191.446C623.204 185.566 626.525 180.492 630.737 176.223C634.949 171.955 639.868 168.605 645.493 166.174C651.118 163.743 657.125 162.528 663.514 162.528C669.959 162.528 675.994 163.673 681.619 165.962C687.244 168.252 692.149 171.503 696.332 175.715C700.516 179.926 703.823 184.986 706.254 190.894C708.685 196.802 709.901 203.375 709.901 210.611ZM686.58 210.611C686.58 206.88 685.972 203.502 684.757 200.477C683.541 197.452 681.888 194.852 679.796 192.675C677.704 190.499 675.259 188.831 672.46 187.672C669.662 186.513 666.68 185.933 663.514 185.933C660.348 185.933 657.365 186.513 654.567 187.672C651.768 188.831 649.337 190.499 647.274 192.675C645.21 194.852 643.585 197.452 642.398 200.477C641.21 203.502 640.617 206.88 640.617 210.611C640.617 214.116 641.21 217.367 642.398 220.363C643.585 223.36 645.21 225.96 647.274 228.165C649.337 230.37 651.768 232.109 654.567 233.381C657.365 234.653 660.348 235.289 663.514 235.289C666.68 235.289 669.662 234.695 672.46 233.508C675.259 232.321 677.704 230.653 679.796 228.505C681.888 226.356 683.541 223.756 684.757 220.703C685.972 217.65 686.58 214.286 686.58 210.611Z" fill="#000000" fill-rule="nonzero" opacity="1" stroke="none"/>
<path d="M838.208 256.829L815.142 256.829L815.142 199.163C815.142 197.58 814.845 196.081 814.251 194.668C813.658 193.255 812.824 192.011 811.749 190.937C810.675 189.863 809.432 189.029 808.018 188.435C806.605 187.841 805.107 187.545 803.524 187.545C801.941 187.545 800.457 187.841 799.071 188.435C797.686 189.029 796.471 189.863 795.425 190.937C794.379 192.011 793.559 193.255 792.966 194.668C792.372 196.081 792.075 197.58 792.075 199.163L792.075 256.829L768.924 256.829L768.924 199.163C768.924 197.58 768.627 196.081 768.033 194.668C767.44 193.255 766.606 192.011 765.532 190.937C764.458 189.863 763.214 189.029 761.8 188.435C760.387 187.841 758.889 187.545 757.306 187.545C755.723 187.545 754.239 187.841 752.854 188.435C751.469 189.029 750.253 189.863 749.207 190.937C748.161 192.011 747.341 193.255 746.748 194.668C746.154 196.081 745.857 197.58 745.857 199.163L745.857 256.829L722.706 256.829L722.706 166.005L728.303 166.005L734.579 172.959C737.801 170.245 741.349 168.139 745.221 166.641C749.094 165.142 753.122 164.393 757.306 164.393C761.546 164.393 765.687 165.185 769.729 166.768C773.772 168.351 777.319 171.093 780.372 174.994C781.786 173.072 783.397 171.432 785.206 170.075C787.015 168.718 788.923 167.616 790.93 166.768C792.937 165.92 795.015 165.312 797.163 164.945C799.312 164.577 801.432 164.393 803.524 164.393C808.329 164.393 812.838 165.298 817.05 167.107C821.262 168.916 824.936 171.39 828.074 174.527C831.212 177.665 833.685 181.354 835.494 185.594C837.303 189.834 838.208 194.357 838.208 199.163L838.208 256.829Z" fill="#000000" fill-rule="nonzero" opacity="1" stroke="none"/>
<path d="M882.39 141.327C882.39 143.475 881.981 145.482 881.161 147.348C880.341 149.214 879.224 150.839 877.811 152.224C876.398 153.609 874.744 154.712 872.85 155.531C870.956 156.351 868.935 156.761 866.787 156.761C864.638 156.761 862.617 156.351 860.723 155.531C858.829 154.712 857.19 153.609 855.805 152.224C854.42 150.839 853.317 149.214 852.497 147.348C851.678 145.482 851.268 143.475 851.268 141.327C851.268 139.235 851.678 137.242 852.497 135.348C853.317 133.454 854.42 131.815 855.805 130.43C857.19 129.045 858.829 127.942 860.723 127.122C862.617 126.303 864.638 125.893 866.787 125.893C868.935 125.893 870.956 126.303 872.85 127.122C874.744 127.942 876.398 129.045 877.811 130.43C879.224 131.815 880.341 133.454 881.161 135.348C881.981 137.242 882.39 139.235 882.39 141.327ZM878.405 256.829L855.084 256.829L855.084 166.005L878.405 166.005L878.405 256.829Z" fill="#000000" fill-rule="nonzero" opacity="1" stroke="none"/>
<path d="M919.195 256.829L896.044 256.829L896.044 166.005L901.641 166.005L909.273 174.824C913.004 171.432 917.23 168.817 921.951 166.98C926.672 165.142 931.605 164.224 936.749 164.224C942.29 164.224 947.519 165.284 952.438 167.404C957.356 169.524 961.653 172.436 965.328 176.139C969.003 179.842 971.9 184.167 974.02 189.114C976.14 194.06 977.2 199.332 977.2 204.929L977.2 256.829L954.049 256.829L954.049 204.929C954.049 202.555 953.597 200.308 952.692 198.187C951.788 196.067 950.544 194.216 948.961 192.633C947.378 191.05 945.541 189.806 943.449 188.901C941.357 187.997 939.124 187.545 936.749 187.545C934.318 187.545 932.029 187.997 929.88 188.901C927.732 189.806 925.866 191.05 924.283 192.633C922.7 194.216 921.456 196.067 920.552 198.187C919.647 200.308 919.195 202.555 919.195 204.929L919.195 256.829Z" fill="#000000" fill-rule="nonzero" opacity="1" stroke="none"/>
<path d="M1081.59 256.829L1076 256.829L1067.01 244.363C1064.8 246.341 1062.47 248.193 1060.01 249.917C1057.55 251.642 1054.96 253.14 1052.25 254.412C1049.54 255.684 1046.75 256.687 1043.9 257.422C1041.04 258.157 1038.15 258.525 1035.21 258.525C1028.82 258.525 1022.81 257.451 1017.19 255.302C1011.56 253.154 1006.64 250.03 1002.43 245.932C998.217 241.833 994.896 236.815 992.465 230.879C990.034 224.943 988.818 218.187 988.818 210.611C988.818 203.544 990.034 197.057 992.465 191.149C994.896 185.241 998.217 180.167 1002.43 175.927C1006.64 171.686 1011.56 168.393 1017.19 166.047C1022.81 163.701 1028.82 162.528 1035.21 162.528C1038.15 162.528 1041.06 162.895 1043.94 163.63C1046.82 164.365 1049.62 165.383 1052.34 166.683C1055.05 167.983 1057.64 169.51 1060.1 171.262C1062.55 173.015 1064.86 174.909 1067.01 176.944L1076 166.174L1081.59 166.174L1081.59 256.829ZM1058.27 210.611C1058.27 207.445 1057.66 204.378 1056.45 201.41C1055.23 198.442 1053.58 195.813 1051.49 193.523C1049.4 191.234 1046.95 189.396 1044.15 188.011C1041.35 186.626 1038.37 185.933 1035.21 185.933C1032.04 185.933 1029.06 186.47 1026.26 187.545C1023.46 188.619 1021.03 190.202 1018.97 192.294C1016.9 194.385 1015.28 196.972 1014.09 200.053C1012.9 203.134 1012.31 206.654 1012.31 210.611C1012.31 214.569 1012.9 218.088 1014.09 221.169C1015.28 224.25 1016.9 226.837 1018.97 228.929C1021.03 231.02 1023.46 232.603 1026.26 233.678C1029.06 234.752 1032.04 235.289 1035.21 235.289C1038.37 235.289 1041.35 234.596 1044.15 233.211C1046.95 231.826 1049.4 229.989 1051.49 227.699C1053.58 225.409 1055.23 222.78 1056.45 219.812C1057.66 216.844 1058.27 213.777 1058.27 210.611Z" fill="#000000" fill-rule="nonzero" opacity="1" stroke="none"/>
<path d="M1122.38 256.829L1099.23 256.829L1099.23 166.005L1104.83 166.005L1112.46 174.824C1116.19 171.432 1120.42 168.817 1125.14 166.98C1129.86 165.142 1134.79 164.224 1139.94 164.224C1145.48 164.224 1150.71 165.284 1155.63 167.404C1160.54 169.524 1164.84 172.436 1168.52 176.139C1172.19 179.842 1175.09 184.167 1177.21 189.114C1179.33 194.06 1180.39 199.332 1180.39 204.929L1180.39 256.829L1157.24 256.829L1157.24 204.929C1157.24 202.555 1156.79 200.308 1155.88 198.187C1154.98 196.067 1153.73 194.216 1152.15 192.633C1150.57 191.05 1148.73 189.806 1146.64 188.901C1144.55 187.997 1142.31 187.545 1139.94 187.545C1137.51 187.545 1135.22 187.997 1133.07 188.901C1130.92 189.806 1129.05 191.05 1127.47 192.633C1125.89 194.216 1124.64 196.067 1123.74 198.187C1122.84 200.308 1122.38 202.555 1122.38 204.929L1122.38 256.829Z" fill="#000000" fill-rule="nonzero" opacity="1" stroke="none"/>
<path d="M1276.22 184.068L1259.26 201.113C1258.41 198.739 1257.25 196.604 1255.78 194.711C1254.31 192.817 1252.66 191.219 1250.82 189.919C1248.98 188.619 1246.99 187.629 1244.84 186.951C1242.69 186.273 1240.49 185.933 1238.22 185.933C1235.06 185.933 1232.08 186.584 1229.28 187.884C1226.48 189.184 1224.05 191.007 1221.98 193.354C1219.92 195.7 1218.3 198.484 1217.11 201.707C1215.92 204.929 1215.33 208.491 1215.33 212.392C1215.33 215.558 1215.92 218.526 1217.11 221.296C1218.3 224.067 1219.92 226.498 1221.98 228.589C1224.05 230.681 1226.48 232.321 1229.28 233.508C1232.08 234.695 1235.06 235.289 1238.22 235.289C1240.49 235.289 1242.66 234.978 1244.75 234.356C1246.85 233.734 1248.81 232.844 1250.65 231.685C1252.49 230.526 1254.13 229.112 1255.57 227.445C1257.01 225.777 1258.18 223.925 1259.09 221.89L1276.05 238.935C1273.9 241.988 1271.42 244.73 1268.63 247.161C1265.83 249.592 1262.8 251.656 1259.55 253.352C1256.3 255.048 1252.88 256.334 1249.29 257.21C1245.7 258.087 1242.01 258.525 1238.22 258.525C1231.84 258.525 1225.83 257.324 1220.2 254.921C1214.58 252.518 1209.66 249.225 1205.45 245.041C1201.24 240.858 1197.91 235.967 1195.48 230.37C1193.05 224.773 1191.84 218.78 1191.84 212.392C1191.84 205.438 1193.05 198.937 1195.48 192.887C1197.91 186.838 1201.24 181.566 1205.45 177.071C1209.66 172.577 1214.58 169.029 1220.2 166.429C1225.83 163.828 1231.84 162.528 1238.22 162.528C1242.01 162.528 1245.73 163.008 1249.38 163.969C1253.02 164.93 1256.5 166.33 1259.81 168.167C1263.11 170.005 1266.17 172.252 1268.97 174.909C1271.76 177.566 1274.18 180.619 1276.22 184.068Z" fill="#000000" fill-rule="nonzero" opacity="1" stroke="none"/>
<path d="M1322.26 234.61C1323.17 234.893 1324.07 235.077 1324.98 235.162C1325.88 235.246 1326.79 235.289 1327.69 235.289C1329.95 235.289 1332.13 234.978 1334.22 234.356C1336.31 233.734 1338.28 232.844 1340.12 231.685C1341.95 230.526 1343.59 229.112 1345.03 227.445C1346.48 225.777 1347.65 223.925 1348.55 221.89L1365.51 238.935C1363.37 241.988 1360.89 244.73 1358.09 247.161C1355.3 249.592 1352.27 251.656 1349.02 253.352C1345.77 255.048 1342.35 256.334 1338.76 257.21C1335.17 258.087 1331.48 258.525 1327.69 258.525C1321.3 258.525 1315.3 257.338 1309.67 254.963C1304.05 252.589 1299.13 249.281 1294.92 245.041C1290.7 240.801 1287.38 235.755 1284.95 229.904C1282.52 224.052 1281.3 217.621 1281.3 210.611C1281.3 203.431 1282.52 196.873 1284.95 190.937C1287.38 185.001 1290.7 179.941 1294.92 175.757C1299.13 171.573 1304.05 168.323 1309.67 166.005C1315.3 163.687 1321.3 162.528 1327.69 162.528C1331.48 162.528 1335.18 162.98 1338.8 163.885C1342.42 164.789 1345.85 166.089 1349.1 167.786C1352.36 169.482 1355.39 171.559 1358.22 174.019C1361.05 176.478 1363.54 179.234 1365.68 182.287L1322.26 234.61ZM1334.14 186.866C1333.06 186.47 1332 186.216 1330.96 186.103C1329.91 185.99 1328.82 185.933 1327.69 185.933C1324.53 185.933 1321.54 186.513 1318.75 187.672C1315.95 188.831 1313.52 190.484 1311.45 192.633C1309.39 194.781 1307.76 197.368 1306.58 200.392C1305.39 203.417 1304.8 206.823 1304.8 210.611C1304.8 211.459 1304.84 212.42 1304.92 213.494C1305.01 214.569 1305.15 215.657 1305.35 216.759C1305.54 217.862 1305.78 218.922 1306.07 219.939C1306.35 220.957 1306.72 221.862 1307.17 222.653L1334.14 186.866Z" fill="#000000" fill-rule="nonzero" opacity="1" stroke="none"/>
</g>
</g>
</svg>
