<?xml version="1.0" encoding="UTF-8" standalone="no"?>
<!DOCTYPE svg PUBLIC "-//W3C//DTD SVG 1.1//EN" "http://www.w3.org/Graphics/SVG/1.1/DTD/svg11.dtd">
<!-- Created with Vectornator (http://vectornator.io/) -->
<svg height="100%" stroke-miterlimit="10" style="fill-rule:nonzero;clip-rule:evenodd;stroke-linecap:round;stroke-linejoin:round;" version="1.1" viewBox="0 0 750 500" width="100%" xml:space="preserve" xmlns="http://www.w3.org/2000/svg" xmlns:vectornator="http://vectornator.io" xmlns:xlink="http://www.w3.org/1999/xlink">
<defs>
<clipPath id="TextBounds">
<rect height="13" width="32.3555" x="265.285" y="221.318"/>
</clipPath>
<clipPath id="TextBounds_2">
<rect height="13" width="27.6738" x="265.285" y="188.023"/>
</clipPath>
</defs>
<clipPath id="ArtboardFrame">
<rect height="500" width="750" x="0" y="0"/>
</clipPath>
<g clip-path="url(#ArtboardFrame)" id="Untitled" vectornator:layerName="Untitled">
<path d="M585.482 330.733L585.482 300.934C578.674 309.651 572.151 319.883 565.842 330.733L585.482 330.733Z" fill="#264b83" fill-rule="evenodd" opacity="1" stroke="none"/>
<path d="M639.223 276.578L640.348 276.578C639.973 276.424 639.601 276.264 639.223 276.122L639.223 276.578Z" fill="#264b83" fill-rule="evenodd" opacity="1" stroke="none"/>
<path d="M613.703 276.578L638.223 276.578L638.223 275.778C634.576 274.526 630.757 273.831 626.729 273.831C622.264 273.831 617.926 274.798 613.703 276.578" fill="#264b83" fill-rule="evenodd" opacity="1" stroke="none"/>
<path d="M586.482 299.667L586.482 330.733L638.223 330.733L638.223 277.578L611.524 277.578C602.714 281.911 594.404 289.74 586.482 299.667" fill="#264b83" fill-rule="evenodd" opacity="1" stroke="none"/>
<path d="M642.58 277.578L639.224 277.578L639.224 330.733L685.339 330.733C673.069 307.455 659.849 285.977 642.58 277.578" fill="#264b83" fill-rule="evenodd" opacity="1" stroke="none"/>
<path d="M78.7857 45.9549L75.7147 47.5709C51.8527 60.1279 36.3047 82.6719 34.1277 107.877C32.6757 124.686 37.6127 145.717 46.1337 159.021L48.1187 162.119L83.1897 139.536L81.2157 136.453C77.0947 130.018 74.6187 119.394 75.3277 111.191C76.3857 98.9379 84.0207 87.9379 95.7487 81.7659L99.1827 79.9589L78.7857 45.9549Z" fill="#f95554" fill-rule="evenodd" opacity="1" stroke="none"/>
<path d="M168.148 103.778L200.855 93.2L168.148 103.778Z" fill="#fba907" fill-rule="evenodd" opacity="1" stroke="none"/>
<path d="M90.6701 141.58C69.3081 115.699 88.6401 78.2202 124.513 76.2292L123.505 44.3662C59.9151 47.8942 25.6461 114.332 63.5141 160.21C86.0791 186.981 118.429 195.042 146.365 188.644L137.406 157.61C121.646 161.219 103.4 156.683 90.6701 141.58" fill="#fba907" fill-rule="evenodd" opacity="1" stroke="none"/>
<path d="M161.909 50.2754L146.172 79.5734C155.529 83.4184 162.353 90.5124 167.228 101.324C167.571 102.086 167.871 102.916 168.148 103.778L200.855 93.1994C200.365 91.6724 199.833 90.2014 199.224 88.8504C190.581 69.6834 178.498 57.0914 161.909 50.2754" fill="#f95554" fill-rule="evenodd" opacity="1" stroke="none"/>
<path d="M199.39 143.349C204.855 128.164 205.371 107.278 200.855 93.1994L168.148 103.778C170.696 111.72 170.404 123.502 167.322 132.068C162.476 145.535 150.844 154.531 137.406 157.609L146.366 188.644C170.187 183.188 190.799 167.221 199.39 143.349" fill="#6ab8fb" fill-rule="evenodd" opacity="1" stroke="none"/>
<path d="M132.912 76.3986C137.821 76.8916 142.218 77.9486 146.172 79.5736L161.909 50.2756C154.901 47.3956 147.094 45.5396 138.394 44.6666C133.274 44.1786 128.309 44.0996 123.505 44.3656L124.513 76.2296C127.223 76.0786 130.024 76.1236 132.912 76.3986" fill="#ffffff" fill-rule="evenodd" opacity="1" stroke="none"/>
<path d="M51.512 25.728L45.512 25.728L45.512 23.728L51.512 23.728L51.512 25.728ZM62.512 25.728L56.512 25.728L56.512 23.728L62.512 23.728L62.512 25.728ZM73.512 25.728L67.512 25.728L67.512 23.728L73.512 23.728L73.512 25.728ZM84.512 25.728L78.512 25.728L78.512 23.728L84.512 23.728L84.512 25.728ZM95.512 25.728L89.512 25.728L89.512 23.728L95.512 23.728L95.512 25.728ZM106.512 25.728L100.512 25.728L100.512 23.728L106.512 23.728L106.512 25.728ZM117.512 25.728L111.512 25.728L111.512 23.728L117.512 23.728L117.512 25.728ZM128.512 25.728L122.512 25.728L122.512 23.728L128.512 23.728L128.512 25.728ZM135.863 32.54L131.62 28.297L133.034 26.883L137.277 31.125L135.863 32.54ZM143.268 39.945L139.398 36.075L140.812 34.661L144.682 38.531L143.268 39.945Z" fill="#0b2f4e" fill-rule="evenodd" opacity="1" stroke="none"/>
<path d="M46.8299 24.7278C46.8299 27.5088 44.5759 29.7628 41.7949 29.7628C39.0139 29.7628 36.7589 27.5088 36.7589 24.7278C36.7589 21.9468 39.0139 19.6928 41.7949 19.6928C44.5759 19.6928 46.8299 21.9468 46.8299 24.7278" fill="#0b2f4e" fill-rule="evenodd" opacity="1" stroke="none"/>
<path d="M237.485 25.728L231.485 25.728L231.485 23.728L237.485 23.728L237.485 25.728ZM248.485 25.728L242.485 25.728L242.485 23.728L248.485 23.728L248.485 25.728ZM259.485 25.728L253.485 25.728L253.485 23.728L259.485 23.728L259.485 25.728ZM266.138 25.728L264.485 25.728L264.485 23.728L266.138 23.728L266.138 25.728ZM222.058 27.592L220.662 26.161L223.153 23.728L226.485 23.728L226.485 25.728L223.967 25.728L222.058 27.592ZM214.188 35.277L212.792 33.846L217.085 29.654L218.481 31.085L214.188 35.277ZM206.319 42.962L204.922 41.532L209.214 37.34L210.611 38.771L206.319 42.962ZM198.449 50.647L197.052 49.217L201.345 45.025L202.742 46.456L198.449 50.647ZM190.579 58.333L189.182 56.902L193.475 52.71L194.872 54.141L190.579 58.333Z" fill="#0b2f4e" fill-rule="evenodd" opacity="1" stroke="none"/>
<path d="M268.491 24.7278C268.491 27.5088 266.237 29.7628 263.456 29.7628C260.675 29.7628 258.42 27.5088 258.42 24.7278C258.42 21.9468 260.675 19.6928 263.456 19.6928C266.237 19.6928 268.491 21.9468 268.491 24.7278" fill="#0b2f4e" fill-rule="evenodd" opacity="1" stroke="none"/>
<path d="M78.4937 190.915L77.0797 189.501L81.3227 185.258L82.7367 186.672L78.4937 190.915ZM70.7167 198.693L69.3027 197.279L73.5447 193.037L74.9587 194.451L70.7167 198.693ZM62.9377 206.471L61.5237 205.057L65.7657 200.814L67.1807 202.228L62.9377 206.471ZM55.1597 214.249L53.7457 212.835L57.9877 208.593L59.4017 210.007L55.1597 214.249ZM27.8087 215.404L21.8087 215.404L21.8087 213.404L27.8087 213.404L27.8087 215.404ZM38.8087 215.404L32.8087 215.404L32.8087 213.404L38.8087 213.404L38.8087 215.404ZM49.8087 215.404L43.8087 215.404L43.8087 213.404L49.8087 213.404L49.8087 215.404Z" fill="#0b2f4e" fill-rule="evenodd" opacity="1" stroke="none"/>
<path d="M22.5471 214.09C22.5471 216.871 20.2931 219.125 17.5121 219.125C14.7311 219.125 12.4761 216.871 12.4761 214.09C12.4761 211.309 14.7311 209.055 17.5121 209.055C20.2931 209.055 22.5471 211.309 22.5471 214.09" fill="#0b2f4e" fill-rule="evenodd" opacity="1" stroke="none"/>
<path d="M717.835 360.44L231.201 360.44L231.201 38.974L717.835 38.974L717.835 360.44Z" fill="#0b2f4e" fill-rule="evenodd" opacity="1" stroke="none"/>
<path d="M704.615 347.038L244.422 347.038L244.422 52.378L704.615 52.378L704.615 347.038Z" fill="#ffffff" fill-rule="evenodd" opacity="1" stroke="none"/>
<path d="M292.349 38.975L289.349 38.975L289.349 0L292.349 0L292.349 38.975Z" fill="#0b2f4e" fill-rule="evenodd" opacity="1" stroke="none"/>
<path d="M659.686 38.975L656.686 38.975L656.686 0L659.686 0L659.686 38.975Z" fill="#0b2f4e" fill-rule="evenodd" opacity="1" stroke="none"/>
<path d="M297.395 333.951L263.282 333.951L263.282 307.192L297.395 307.192L297.395 333.951Z" fill="#f95554" fill-rule="evenodd" opacity="1" stroke="none"/>
<path d="M336.932 333.951L302.819 333.951L302.819 261.68L336.932 261.68L336.932 333.951Z" fill="#3b6ca2" fill-rule="evenodd" opacity="1" stroke="none"/>
<path d="M376.468 333.951L342.355 333.951L342.355 293.834L376.468 293.834L376.468 333.951Z" fill="#f95554" fill-rule="evenodd" opacity="1" stroke="none"/>
<path d="M416.005 333.951L381.892 333.951L381.892 309.597L416.005 309.597L416.005 333.951Z" fill="#3b6ca2" fill-rule="evenodd" opacity="1" stroke="none"/>
<path d="M455.542 333.951L421.429 333.951L421.429 280.433L455.542 280.433L455.542 333.951Z" fill="#f95554" fill-rule="evenodd" opacity="1" stroke="none"/>
<path d="M455.542 334.451L263.282 334.451L263.282 333.451L455.542 333.451L455.542 334.451Z" fill="#0b2f4e" fill-rule="evenodd" opacity="1" stroke="none"/>
<path d="M268.13 236.942C265.733 236.942 263.781 238.893 263.781 241.291C263.781 243.689 265.733 245.64 268.13 245.64L453.471 245.64C455.869 245.64 457.82 243.689 457.82 241.291C457.82 238.893 455.869 236.942 453.471 236.942L268.13 236.942ZM453.471 246.64L268.13 246.64C265.181 246.64 262.781 244.241 262.781 241.291C262.781 238.341 265.181 235.942 268.13 235.942L453.471 235.942C456.421 235.942 458.82 238.341 458.82 241.291C458.82 244.241 456.421 246.64 453.471 246.64" fill="#0b2f4e" fill-rule="evenodd" opacity="1" stroke="none"/>
<path d="M330.337 244.341L268.335 244.341C266.651 244.341 265.285 242.975 265.285 241.291C265.285 239.606 266.651 238.241 268.335 238.241L330.337 238.241C332.022 238.241 333.387 239.606 333.387 241.291C333.387 242.975 332.022 244.341 330.337 244.341" fill="#f95554" fill-rule="evenodd" opacity="1" stroke="none"/>
<g fill="#f95554" opacity="1" stroke="none">
<path clip-path="url(#TextBounds)" d="M268.461 227.541C268.488 228.029 268.604 228.426 268.807 228.73C269.193 229.301 269.875 229.586 270.852 229.586C271.289 229.586 271.688 229.523 272.047 229.398C272.742 229.156 273.09 228.723 273.09 228.098C273.09 227.629 272.943 227.295 272.65 227.096C272.354 226.9 271.889 226.73 271.256 226.586L270.09 226.322C269.328 226.15 268.789 225.961 268.473 225.754C267.926 225.395 267.652 224.857 267.652 224.143C267.652 223.369 267.92 222.734 268.455 222.238C268.99 221.742 269.748 221.494 270.729 221.494C271.631 221.494 272.397 221.712 273.028 222.147C273.659 222.583 273.975 223.279 273.975 224.236L272.879 224.236C272.82 223.775 272.695 223.422 272.504 223.176C272.148 222.727 271.545 222.502 270.693 222.502C270.006 222.502 269.512 222.647 269.211 222.936C268.91 223.225 268.76 223.561 268.76 223.943C268.76 224.365 268.936 224.674 269.287 224.869C269.518 224.994 270.039 225.15 270.852 225.338L272.059 225.613C272.641 225.746 273.09 225.928 273.406 226.158C273.953 226.561 274.227 227.145 274.227 227.91C274.227 228.863 273.88 229.545 273.187 229.955C272.493 230.365 271.688 230.57 270.77 230.57C269.699 230.57 268.861 230.297 268.256 229.75C267.65 229.207 267.354 228.471 267.365 227.541L268.461 227.541Z" fill-rule="evenodd"/>
<path clip-path="url(#TextBounds)" d="M275.814 221.711L282.09 221.711L282.09 222.766L276.951 222.766L276.951 225.379L281.703 225.379L281.703 226.375L276.951 226.375L276.951 229.293L282.178 229.293L282.178 230.318L275.814 230.318L275.814 221.711Z" fill-rule="evenodd"/>
<path clip-path="url(#TextBounds)" d="M283.707 221.711L284.873 221.711L284.873 229.293L289.232 229.293L289.232 230.318L283.707 230.318L283.707 221.711Z" fill-rule="evenodd"/>
<path clip-path="url(#TextBounds)" d="M290.381 221.711L291.547 221.711L291.547 229.293L295.906 229.293L295.906 230.318L290.381 230.318L290.381 221.711Z" fill-rule="evenodd"/>
</g>
<g fill="#3b6ca2" opacity="1" stroke="none">
<path clip-path="url(#TextBounds_2)" d="M270.934 192.054C271.426 192.054 271.809 191.986 272.082 191.849C272.512 191.634 272.727 191.247 272.727 190.689C272.727 190.126 272.498 189.747 272.041 189.552C271.783 189.443 271.4 189.388 270.893 189.388L268.813 189.388L268.813 192.054L270.934 192.054ZM271.326 196.027C272.041 196.027 272.551 195.82 272.855 195.406C273.047 195.144 273.143 194.828 273.143 194.456C273.143 193.831 272.863 193.406 272.305 193.179C272.008 193.058 271.615 192.997 271.127 192.997L268.813 192.997L268.813 196.027L271.326 196.027ZM267.67 188.415L271.367 188.415C272.375 188.415 273.092 188.716 273.518 189.318C273.768 189.673 273.893 190.083 273.893 190.548C273.893 191.091 273.738 191.537 273.43 191.884C273.27 192.068 273.039 192.236 272.738 192.388C273.18 192.556 273.51 192.746 273.729 192.956C274.115 193.331 274.309 193.849 274.309 194.509C274.309 195.064 274.135 195.566 273.787 196.015C273.268 196.687 272.441 197.023 271.309 197.023L267.67 197.023L267.67 188.415Z" fill-rule="evenodd"/>
<path clip-path="url(#TextBounds_2)" d="M276.969 188.415L276.969 193.736C276.969 194.361 277.086 194.88 277.32 195.294C277.668 195.919 278.254 196.232 279.078 196.232C280.066 196.232 280.738 195.894 281.094 195.218C281.285 194.851 281.381 194.357 281.381 193.736L281.381 188.415L282.564 188.415L282.564 193.249C282.564 194.308 282.422 195.122 282.137 195.693C281.613 196.732 280.625 197.251 279.172 197.251C277.719 197.251 276.732 196.732 276.213 195.693C275.928 195.122 275.785 194.308 275.785 193.249L275.785 188.415L276.969 188.415Z" fill-rule="evenodd"/>
<path clip-path="url(#TextBounds_2)" d="M283.701 188.415L285.061 188.415L287.533 192.552L290.006 188.415L291.371 188.415L288.119 193.554L288.119 197.023L286.953 197.023L286.953 193.554L283.701 188.415Z" fill-rule="evenodd"/>
</g>
<path d="M704.615 233.054L629.549 233.054L629.549 220.035L704.615 220.035L704.615 233.054Z" fill="#6ab8fb" fill-rule="evenodd" opacity="1" stroke="none"/>
<path d="M630.187 233.054L555.121 233.054L555.121 220.035L630.187 220.035L630.187 233.054Z" fill="#d5ecff" fill-rule="evenodd" opacity="1" stroke="none"/>
<path d="M516.858 256.861L494.82 256.861L494.82 243.842L516.858 243.842L516.858 256.861Z" fill="#d5ecff" fill-rule="evenodd" opacity="1" stroke="none"/>
<path d="M704.615 256.861L516.859 256.861L516.859 243.842L704.615 243.842L704.615 256.861Z" fill="#6ab8fb" fill-rule="evenodd" opacity="1" stroke="none"/>
<path d="M573.724 280.669L525.645 280.669L525.645 267.65L573.724 267.65L573.724 280.669Z" fill="#d5ecff" fill-rule="evenodd" opacity="1" stroke="none"/>
<path d="M704.615 280.669L573.725 280.669L573.725 267.65L704.615 267.65L704.615 280.669Z" fill="#6ab8fb" fill-rule="evenodd" opacity="1" stroke="none"/>
<path d="M533.998 304.476L485.919 304.476L485.919 291.457L533.998 291.457L533.998 304.476Z" fill="#d5ecff" fill-rule="evenodd" opacity="1" stroke="none"/>
<path d="M704.615 304.476L533.998 304.476L533.998 291.457L704.615 291.457L704.615 304.476Z" fill="#6ab8fb" fill-rule="evenodd" opacity="1" stroke="none"/>
<path d="M599.003 328.283L525.645 328.283L525.645 315.264L599.003 315.264L599.003 328.283Z" fill="#d5ecff" fill-rule="evenodd" opacity="1" stroke="none"/>
<path d="M704.615 328.283L599.003 328.283L599.003 315.264L704.615 315.264L704.615 328.283Z" fill="#6ab8fb" fill-rule="evenodd" opacity="1" stroke="none"/>
<path d="M492.83 221.33L471.129 156.408L450.136 178.783L419.548 185.131L411.876 142.015L375.892 122.532L345.723 176.813L309.943 181.249L289.655 162.23L244.57 176.262L244.273 175.307L289.915 161.102L310.285 180.2L345.096 175.884L375.499 121.181L412.776 141.366L420.352 183.943L449.622 177.868L471.547 154.501L493.449 220.026L530.036 206.158L547.004 175.668L574.402 181.979L574.512 182.157L590.885 208.738L643.534 201.105L666.857 167.687L704.709 174.934L704.521 175.917L667.307 168.791L644.106 202.033L643.892 202.064L590.379 209.822L573.769 182.86L547.512 176.812L530.731 206.963L492.83 221.33Z" fill="#d6eaf8" fill-rule="evenodd" opacity="1" stroke="none"/>
<path d="M418.334 139.796C417.97 138.779 417.298 137.88 416.33 137.297C413.236 135.433 408.355 136.244 407.208 140.04C406.208 143.353 408.63 146.87 412.085 147.035C413.985 147.126 416.083 146.535 417.386 145.081C418.669 143.649 418.961 141.548 418.334 139.796" fill="#d6eaf8" fill-rule="evenodd" opacity="1" stroke="none"/>
<path d="M415.245 140.856C415.085 140.409 414.789 140.013 414.363 139.756C413.001 138.936 410.853 139.293 410.348 140.963C409.908 142.422 410.974 143.969 412.495 144.042C413.331 144.082 414.254 143.822 414.828 143.182C415.392 142.552 415.521 141.627 415.245 140.856" fill="#ffffff" fill-rule="evenodd" opacity="1" stroke="none"/>
<path d="M381 120.148C380.636 119.131 379.964 118.232 378.996 117.649C375.902 115.785 371.021 116.596 369.874 120.392C368.874 123.705 371.296 127.222 374.751 127.387C376.651 127.478 378.749 126.887 380.052 125.433C381.335 124.001 381.627 121.9 381 120.148" fill="#d6eaf8" fill-rule="evenodd" opacity="1" stroke="none"/>
<path d="M377.91 121.209C377.75 120.762 377.454 120.366 377.028 120.109C375.666 119.289 373.518 119.646 373.013 121.316C372.573 122.775 373.639 124.322 375.16 124.395C375.996 124.435 376.919 124.175 377.493 123.535C378.057 122.905 378.186 121.98 377.91 121.209" fill="#ffffff" fill-rule="evenodd" opacity="1" stroke="none"/>
<path d="M351.823 173.883C351.459 172.866 350.787 171.967 349.819 171.384C346.725 169.52 341.844 170.331 340.697 174.127C339.697 177.44 342.119 180.957 345.574 181.122C347.474 181.213 349.572 180.622 350.875 179.168C352.158 177.736 352.45 175.635 351.823 173.883" fill="#d6eaf8" fill-rule="evenodd" opacity="1" stroke="none"/>
<path d="M348.734 174.944C348.574 174.497 348.278 174.101 347.852 173.844C346.49 173.024 344.342 173.381 343.837 175.051C343.397 176.51 344.463 178.057 345.984 178.13C346.82 178.17 347.743 177.91 348.317 177.27C348.881 176.64 349.01 175.715 348.734 174.944" fill="#ffffff" fill-rule="evenodd" opacity="1" stroke="none"/>
<path d="M316.068 178.596C315.704 177.579 315.032 176.68 314.064 176.097C310.97 174.233 306.089 175.044 304.942 178.84C303.942 182.153 306.364 185.67 309.819 185.835C311.719 185.926 313.817 185.335 315.12 183.881C316.403 182.449 316.695 180.348 316.068 178.596" fill="#d6eaf8" fill-rule="evenodd" opacity="1" stroke="none"/>
<path d="M312.979 179.657C312.819 179.21 312.523 178.814 312.097 178.557C310.735 177.737 308.587 178.094 308.082 179.764C307.642 181.223 308.708 182.77 310.229 182.843C311.065 182.883 311.988 182.623 312.562 181.983C313.126 181.353 313.255 180.428 312.979 179.657" fill="#ffffff" fill-rule="evenodd" opacity="1" stroke="none"/>
<path d="M295.127 160.999C294.763 159.982 294.091 159.083 293.123 158.5C290.029 156.636 285.148 157.447 284.001 161.243C283.001 164.556 285.423 168.073 288.878 168.238C290.778 168.329 292.876 167.738 294.179 166.284C295.462 164.852 295.754 162.751 295.127 160.999" fill="#d6eaf8" fill-rule="evenodd" opacity="1" stroke="none"/>
<path d="M292.038 162.06C291.878 161.613 291.582 161.217 291.156 160.96C289.794 160.14 287.646 160.497 287.141 162.167C286.701 163.626 287.767 165.173 289.288 165.246C290.124 165.286 291.047 165.026 291.621 164.386C292.185 163.756 292.314 162.831 292.038 162.06" fill="#ffffff" fill-rule="evenodd" opacity="1" stroke="none"/>
<path d="M455.578 176.24C455.214 175.223 454.542 174.324 453.574 173.741C450.48 171.877 445.599 172.688 444.452 176.484C443.452 179.797 445.874 183.314 449.329 183.479C451.229 183.57 453.327 182.979 454.63 181.525C455.913 180.093 456.205 177.992 455.578 176.24" fill="#d6eaf8" fill-rule="evenodd" opacity="1" stroke="none"/>
<path d="M452.489 177.3C452.329 176.853 452.033 176.457 451.607 176.2C450.245 175.38 448.097 175.737 447.592 177.407C447.152 178.866 448.218 180.413 449.739 180.486C450.575 180.526 451.498 180.266 452.072 179.626C452.636 178.996 452.765 178.071 452.489 177.3" fill="#ffffff" fill-rule="evenodd" opacity="1" stroke="none"/>
<path d="M475.51 154.044C475.146 153.027 474.474 152.128 473.506 151.545C470.412 149.681 465.531 150.492 464.384 154.288C463.384 157.601 465.806 161.118 469.261 161.283C471.161 161.374 473.259 160.783 474.562 159.329C475.845 157.897 476.137 155.796 475.51 154.044" fill="#d6eaf8" fill-rule="evenodd" opacity="1" stroke="none"/>
<path d="M472.421 155.105C472.261 154.658 471.965 154.262 471.539 154.005C470.177 153.185 468.029 153.542 467.524 155.212C467.084 156.671 468.15 158.218 469.671 158.291C470.507 158.331 471.43 158.071 472.004 157.431C472.568 156.801 472.697 155.876 472.421 155.105" fill="#ffffff" fill-rule="evenodd" opacity="1" stroke="none"/>
<path d="M498.657 217.893C498.293 216.876 497.621 215.977 496.653 215.394C493.559 213.53 488.678 214.341 487.531 218.137C486.531 221.45 488.953 224.967 492.408 225.132C494.308 225.223 496.406 224.632 497.709 223.178C498.992 221.746 499.284 219.645 498.657 217.893" fill="#d6eaf8" fill-rule="evenodd" opacity="1" stroke="none"/>
<path d="M495.568 218.954C495.408 218.507 495.112 218.111 494.686 217.854C493.324 217.034 491.176 217.391 490.671 219.061C490.231 220.52 491.297 222.067 492.818 222.14C493.654 222.18 494.577 221.92 495.151 221.28C495.715 220.65 495.844 219.725 495.568 218.954" fill="#ffffff" fill-rule="evenodd" opacity="1" stroke="none"/>
<path d="M535.321 205.029C534.957 204.012 534.285 203.113 533.317 202.53C530.223 200.666 525.342 201.477 524.195 205.273C523.195 208.586 525.617 212.103 529.072 212.268C530.972 212.359 533.07 211.768 534.373 210.314C535.656 208.882 535.948 206.781 535.321 205.029" fill="#d6eaf8" fill-rule="evenodd" opacity="1" stroke="none"/>
<path d="M532.232 206.089C532.072 205.642 531.776 205.246 531.35 204.989C529.988 204.169 527.84 204.526 527.335 206.196C526.895 207.655 527.961 209.202 529.482 209.275C530.318 209.315 531.241 209.055 531.815 208.415C532.379 207.785 532.508 206.86 532.232 206.089" fill="#ffffff" fill-rule="evenodd" opacity="1" stroke="none"/>
<path d="M552.45 173.883C552.086 172.866 551.414 171.967 550.446 171.384C547.352 169.52 542.471 170.331 541.324 174.127C540.324 177.44 542.746 180.957 546.201 181.122C548.101 181.213 550.199 180.622 551.502 179.168C552.785 177.736 553.077 175.635 552.45 173.883" fill="#d6eaf8" fill-rule="evenodd" opacity="1" stroke="none"/>
<path d="M549.361 174.944C549.201 174.497 548.905 174.101 548.479 173.844C547.117 173.024 544.969 173.381 544.464 175.051C544.024 176.51 545.09 178.057 546.611 178.13C547.447 178.17 548.37 177.91 548.944 177.27C549.509 176.64 549.637 175.715 549.361 174.944" fill="#ffffff" fill-rule="evenodd" opacity="1" stroke="none"/>
<path d="M579.603 180.412C579.239 179.395 578.567 178.496 577.599 177.913C574.505 176.049 569.624 176.86 568.477 180.656C567.477 183.969 569.899 187.486 573.354 187.651C575.254 187.742 577.352 187.151 578.655 185.697C579.938 184.265 580.23 182.164 579.603 180.412" fill="#d6eaf8" fill-rule="evenodd" opacity="1" stroke="none"/>
<path d="M576.514 181.472C576.354 181.025 576.058 180.629 575.632 180.372C574.27 179.552 572.122 179.909 571.617 181.579C571.177 183.038 572.243 184.585 573.764 184.658C574.6 184.698 575.523 184.438 576.097 183.798C576.662 183.168 576.79 182.243 576.514 181.472" fill="#ffffff" fill-rule="evenodd" opacity="1" stroke="none"/>
<path d="M596.292 207.385C595.928 206.368 595.256 205.469 594.288 204.886C591.194 203.022 586.313 203.833 585.166 207.629C584.166 210.942 586.588 214.459 590.043 214.624C591.943 214.715 594.041 214.124 595.344 212.67C596.627 211.238 596.919 209.137 596.292 207.385" fill="#d6eaf8" fill-rule="evenodd" opacity="1" stroke="none"/>
<path d="M593.203 208.446C593.043 207.999 592.747 207.603 592.321 207.346C590.959 206.526 588.811 206.883 588.306 208.553C587.866 210.012 588.932 211.559 590.453 211.632C591.289 211.672 592.212 211.412 592.786 210.772C593.35 210.142 593.479 209.217 593.203 208.446" fill="#ffffff" fill-rule="evenodd" opacity="1" stroke="none"/>
<path d="M649.576 199.675C649.212 198.658 648.54 197.759 647.572 197.176C644.478 195.312 639.597 196.123 638.45 199.919C637.45 203.232 639.872 206.749 643.327 206.914C645.227 207.005 647.325 206.414 648.628 204.96C649.911 203.528 650.203 201.427 649.576 199.675" fill="#d6eaf8" fill-rule="evenodd" opacity="1" stroke="none"/>
<path d="M646.487 200.735C646.327 200.288 646.031 199.892 645.605 199.635C644.243 198.815 642.095 199.172 641.59 200.842C641.15 202.301 642.216 203.848 643.737 203.921C644.573 203.961 645.496 203.701 646.07 203.061C646.635 202.431 646.763 201.506 646.487 200.735" fill="#ffffff" fill-rule="evenodd" opacity="1" stroke="none"/>
<path d="M672.599 166.374C672.235 165.357 671.563 164.458 670.595 163.875C667.501 162.011 662.62 162.822 661.473 166.618C660.473 169.931 662.895 173.448 666.35 173.613C668.25 173.704 670.348 173.113 671.651 171.659C672.934 170.227 673.226 168.126 672.599 166.374" fill="#d6eaf8" fill-rule="evenodd" opacity="1" stroke="none"/>
<path d="M669.51 167.434C669.35 166.987 669.054 166.591 668.628 166.334C667.266 165.514 665.118 165.871 664.613 167.541C664.173 169 665.239 170.547 666.76 170.62C667.596 170.66 668.519 170.4 669.093 169.76C669.658 169.13 669.786 168.205 669.51 167.434" fill="#ffffff" fill-rule="evenodd" opacity="1" stroke="none"/>
<path d="M425.956 181.594C425.592 180.577 424.92 179.678 423.952 179.095C420.858 177.231 415.977 178.042 414.83 181.838C413.83 185.151 416.252 188.668 419.707 188.833C421.607 188.924 423.705 188.333 425.008 186.879C426.291 185.447 426.583 183.346 425.956 181.594" fill="#d6eaf8" fill-rule="evenodd" opacity="1" stroke="none"/>
<path d="M422.867 182.654C422.707 182.207 422.411 181.811 421.985 181.554C420.623 180.734 418.475 181.091 417.97 182.761C417.53 184.22 418.596 185.767 420.117 185.84C420.953 185.88 421.876 185.62 422.45 184.98C423.014 184.35 423.143 183.425 422.867 182.654" fill="#ffffff" fill-rule="evenodd" opacity="1" stroke="none"/>
<path d="M568.628 165.634L566.628 165.634L566.628 97.476L568.628 97.476L568.628 165.634Z" fill="#0b2f4e" fill-rule="evenodd" opacity="1" stroke="none"/>
<path d="M580.474 145.999C578.809 147.462 556.053 147.625 554.499 145.999C552.945 144.373 553.5 119.312 554.499 117.909C555.498 116.507 578.809 116.385 580.474 117.909C582.139 119.433 582.139 144.535 580.474 145.999" fill="#fba907" fill-rule="evenodd" opacity="1" stroke="none"/>
<path d="M419.652 133.354L417.652 133.354L417.652 41.316L419.652 41.316L419.652 133.354Z" fill="#0b2f4e" fill-rule="evenodd" opacity="1" stroke="none"/>
<path d="M431.5 56.8008C429.835 55.2758 406.524 55.3978 405.524 56.8008C404.778 57.8498 404.499 99.1608 405.524 100.233C407.079 101.859 429.835 101.697 431.5 100.233C432.669 99.2058 432.669 57.8708 431.5 56.8008" fill="#fba907" fill-rule="evenodd" opacity="1" stroke="none"/>
<path d="M643.115 182.306L641.115 182.306L641.115 67.754L643.115 67.754L643.115 182.306Z" fill="#0b2f4e" fill-rule="evenodd" opacity="1" stroke="none"/>
<path d="M654.962 162.671C653.297 164.134 630.541 164.297 628.987 162.671C627.432 161.045 627.988 89.5891 628.987 88.1871C629.986 86.7841 653.297 86.6621 654.962 88.1871C656.627 89.7111 656.627 161.208 654.962 162.671" fill="#fba907" fill-rule="evenodd" opacity="1" stroke="none"/>
<path d="M345.165 157.539L343.165 157.539L343.165 70.876L345.165 70.876L345.165 157.539Z" fill="#0b2f4e" fill-rule="evenodd" opacity="1" stroke="none"/>
<path d="M357.012 96.1205C355.347 97.5845 332.591 97.7465 331.037 96.1205C329.482 94.4945 330.038 81.5395 331.037 80.1365C332.036 78.7345 355.347 78.6125 357.012 80.1365C358.677 81.6615 358.677 94.6575 357.012 96.1205" fill="#fba907" fill-rule="evenodd" opacity="1" stroke="none"/>
<path d="M307.921 137.884L305.921 137.884L305.921 69.726L307.921 69.726L307.921 137.884Z" fill="#0b2f4e" fill-rule="evenodd" opacity="1" stroke="none"/>
<path d="M319.769 118.249C318.104 119.713 295.348 119.875 293.794 118.249C292.239 116.623 292.795 91.5624 293.794 90.1594C294.793 88.7574 318.104 88.6354 319.769 90.1594C321.434 91.6844 321.434 116.786 319.769 118.249" fill="#6ab8fb" fill-rule="evenodd" opacity="1" stroke="none"/>
<path d="M382.409 104.694L380.409 104.694L380.409 19.52L382.409 19.52L382.409 104.694Z" fill="#0b2f4e" fill-rule="evenodd" opacity="1" stroke="none"/>
<path d="M394.256 85.0594C392.591 86.5234 369.835 86.6854 368.281 85.0594C366.726 83.4334 367.282 31.9564 368.281 30.5544C369.28 29.1514 392.591 29.0294 394.256 30.5544C395.921 32.0784 395.921 83.5964 394.256 85.0594" fill="#6ab8fb" fill-rule="evenodd" opacity="1" stroke="none"/>
<path d="M605.871 199.219L603.871 199.219L603.871 60.866L605.871 60.866L605.871 199.219Z" fill="#0b2f4e" fill-rule="evenodd" opacity="1" stroke="none"/>
<path d="M617.718 187.288C616.053 188.751 593.297 188.914 591.743 187.288C590.188 185.662 590.744 143.186 591.743 141.783C592.742 140.381 616.053 140.259 617.718 141.783C619.383 143.308 619.383 185.824 617.718 187.288" fill="#6ab8fb" fill-rule="evenodd" opacity="1" stroke="none"/>
<path d="M680.362 195.268L678.362 195.268L678.362 23.313L680.362 23.313L680.362 195.268Z" fill="#0b2f4e" fill-rule="evenodd" opacity="1" stroke="none"/>
<path d="M692.209 116.49C690.544 117.953 667.788 118.116 666.234 116.49C664.679 114.864 665.235 72.3878 666.234 70.9848C667.233 69.5828 690.544 69.4608 692.209 70.9848C693.874 72.5098 693.874 115.026 692.209 116.49" fill="#6ab8fb" fill-rule="evenodd" opacity="1" stroke="none"/>
<path d="M456.896 131.555L454.896 131.555L454.896 76.055L456.896 76.055L456.896 131.555Z" fill="#0b2f4e" fill-rule="evenodd" opacity="1" stroke="none"/>
<path d="M468.743 101.299C467.078 102.762 444.323 102.925 442.768 101.299C441.213 99.6735 441.769 86.7185 442.768 85.3155C443.767 83.9135 467.078 83.7915 468.743 85.3155C470.408 86.8405 470.408 99.8365 468.743 101.299" fill="#6ab8fb" fill-rule="evenodd" opacity="1" stroke="none"/>
<path d="M531.383 154.125L529.383 154.125L529.383 72.221L531.383 72.221L531.383 154.125Z" fill="#0b2f4e" fill-rule="evenodd" opacity="1" stroke="none"/>
<path d="M543.231 123.87C541.566 125.334 518.81 125.496 517.256 123.87C515.702 122.244 516.257 109.289 517.256 107.886C518.255 106.484 541.566 106.362 543.231 107.886C544.896 109.411 544.896 122.407 543.231 123.87" fill="#6ab8fb" fill-rule="evenodd" opacity="1" stroke="none"/>
<path d="M270.677 180.724L268.677 180.724L268.677 90.268L270.677 90.268L270.677 180.724Z" fill="#0b2f4e" fill-rule="evenodd" opacity="1" stroke="none"/>
<path d="M282.525 154.842C280.86 156.305 258.104 156.468 256.55 154.842C254.996 153.216 255.551 104.34 256.55 102.938C257.549 101.535 280.86 101.413 282.525 102.938C284.19 104.462 284.19 153.378 282.525 154.842" fill="#fba907" fill-rule="evenodd" opacity="1" stroke="none"/>
<path d="M494.139 168.239L492.139 168.239L492.139 66.12L494.139 66.12L494.139 168.239Z" fill="#0b2f4e" fill-rule="evenodd" opacity="1" stroke="none"/>
<path d="M505.987 142.356C504.322 143.82 481.566 143.982 480.012 142.356C478.457 140.73 479.013 74.7224 480.012 73.3204C481.011 71.9174 504.322 71.7954 505.987 73.3204C507.652 74.8444 507.652 140.893 505.987 142.356" fill="#fba907" fill-rule="evenodd" opacity="1" stroke="none"/>
<path d="M338.04 451.043L337.237 449.211L339.985 448.008L340.788 449.84L338.04 451.043Z" fill="#0b2f4e" fill-rule="evenodd" opacity="1" stroke="none"/>
<path d="M455.625 375.468L455.176 373.519L460.888 372.2L461.337 374.15L455.625 375.468ZM445.152 377.885L444.703 375.937L450.415 374.618L450.864 376.567L445.152 377.885ZM434.679 380.304L434.229 378.355L439.942 377.036L440.392 378.985L434.679 380.304ZM424.206 382.722L423.757 380.773L429.47 379.454L429.919 381.403L424.206 382.722ZM415.379 386.212L413.711 385.108L415.288 382.728L418.996 381.872L419.445 383.82L416.515 384.497L415.379 386.212ZM409.443 395.173L407.775 394.068L411.013 389.18L412.681 390.285L409.443 395.173ZM403.507 404.133L401.839 403.029L405.077 398.141L406.745 399.245L403.507 404.133ZM397.571 413.093L395.903 411.989L399.141 407.101L400.809 408.206L397.571 413.093ZM391.635 422.054L389.967 420.949L393.205 416.062L394.873 417.167L391.635 422.054ZM384.65 430.647L383.85 428.815L385.127 428.256L387.269 425.023L388.937 426.127L386.469 429.852L384.65 430.647ZM374.804 434.956L374.003 433.124L379.374 430.774L380.175 432.606L374.804 434.956ZM364.957 439.264L364.156 437.432L369.527 435.082L370.328 436.914L364.957 439.264ZM355.109 443.573L354.309 441.741L359.68 439.391L360.48 441.223L355.109 443.573ZM345.263 447.882L344.462 446.05L349.833 443.7L350.634 445.532L345.263 447.882Z" fill="#0b2f4e" fill-rule="evenodd" opacity="1" stroke="none"/>
<path d="M466.097 373.05L465.648 371.101L468.12 370.53L469.284 368.276L471.061 369.193L469.472 372.271L466.097 373.05Z" fill="#0b2f4e" fill-rule="evenodd" opacity="1" stroke="none"/>
<path d="M489.108 334.232L487.331 333.315L490.18 327.795L491.958 328.711L489.108 334.232ZM483.883 344.352L482.106 343.435L484.956 337.915L486.733 338.832L483.883 344.352ZM478.66 354.473L476.882 353.556L479.732 348.035L481.509 348.952L478.66 354.473ZM473.435 364.593L471.658 363.676L474.507 358.156L476.285 359.073L473.435 364.593Z" fill="#0b2f4e" fill-rule="evenodd" opacity="1" stroke="none"/>
<path d="M494.333 324.111L492.556 323.194L494.179 320.049L497.697 319.675L497.908 321.664L495.462 321.924L494.333 324.111Z" fill="#0b2f4e" fill-rule="evenodd" opacity="1" stroke="none"/>
<path d="M545.949 316.548L545.738 314.56L551.621 313.933L551.832 315.922L545.949 316.548ZM535.164 317.696L534.953 315.708L540.836 315.082L541.047 317.07L535.164 317.696ZM524.38 318.845L524.169 316.857L530.052 316.23L530.262 318.218L524.38 318.845ZM513.595 319.993L513.384 318.005L519.266 317.379L519.477 319.367L513.595 319.993ZM502.81 321.142L502.599 319.153L508.482 318.527L508.693 320.515L502.81 321.142Z" fill="#0b2f4e" fill-rule="evenodd" opacity="1" stroke="none"/>
<path d="M559.752 317.247L558.953 315.164L556.735 315.4L556.523 313.412L560.27 313.012L561.619 316.531L559.752 317.247Z" fill="#0b2f4e" fill-rule="evenodd" opacity="1" stroke="none"/>
<path d="M563.578 327.223L561.491 321.781L563.358 321.065L565.445 326.507L563.578 327.223ZM567.404 337.2L565.317 331.758L567.184 331.042L569.271 336.484L567.404 337.2ZM571.229 347.177L569.142 341.735L571.01 341.019L573.097 346.461L571.229 347.177ZM575.056 357.154L572.969 351.712L574.836 350.996L576.923 356.438L575.056 357.154ZM578.881 367.131L576.795 361.688L578.662 360.973L580.748 366.415L578.881 367.131ZM584.019 376.673L580.853 371.78L582.533 370.693L585.699 375.586L584.019 376.673ZM589.826 385.643L586.659 380.75L588.339 379.663L591.506 384.556L589.826 385.643ZM595.632 394.614L592.465 389.721L594.144 388.634L597.311 393.527L595.632 394.614ZM601.437 403.584L598.27 398.691L599.95 397.604L603.117 402.497L601.437 403.584ZM607.244 412.554L604.077 407.661L605.757 406.575L608.924 411.467L607.244 412.554Z" fill="#0b2f4e" fill-rule="evenodd" opacity="1" stroke="none"/>
<path d="M612.107 420.065L609.883 416.631L611.561 415.544L612.599 417.147L614.106 415.975L615.335 417.553L612.107 420.065Z" fill="#0b2f4e" fill-rule="evenodd" opacity="1" stroke="none"/>
<path d="M697.905 383.308L697.712 381.318L703.725 380.736L703.919 382.726L697.905 383.308ZM686.881 384.374L686.687 382.384L692.7 381.803L692.893 383.793L686.881 384.374ZM675.855 385.44L675.662 383.45L681.676 382.869L681.869 384.859L675.855 385.44ZM664.83 386.507L664.636 384.516L670.65 383.935L670.843 385.925L664.83 386.507ZM653.805 387.573L653.612 385.582L659.626 385.001L659.819 386.992L653.805 387.573ZM645.538 394.06L644.309 392.482L649.078 388.772L650.306 390.35L645.538 394.06ZM636.795 400.861L635.566 399.282L640.335 395.573L641.563 397.152L636.795 400.861ZM628.052 407.662L626.824 406.083L631.592 402.373L632.821 403.952L628.052 407.662ZM619.309 414.462L618.081 412.884L622.849 409.175L624.078 410.753L619.309 414.462Z" fill="#0b2f4e" fill-rule="evenodd" opacity="1" stroke="none"/>
<path d="M708.928 382.242L708.737 380.251L711.723 379.963L711.914 381.953L708.928 382.242Z" fill="#0b2f4e" fill-rule="evenodd" opacity="1" stroke="none"/>
<path d="M389.899 428.187C389.899 430.667 387.889 432.677 385.409 432.677C382.929 432.677 380.918 430.667 380.918 428.187C380.918 425.707 382.929 423.697 385.409 423.697C387.889 423.697 389.899 425.707 389.899 428.187" fill="#0b2f4e" fill-rule="evenodd" opacity="1" stroke="none"/>
<path d="M420.393 383.612C420.393 386.092 418.383 388.102 415.903 388.102C413.423 388.102 411.412 386.092 411.412 383.612C411.412 381.132 413.423 379.122 415.903 379.122C418.383 379.122 420.393 381.132 420.393 383.612" fill="#0b2f4e" fill-rule="evenodd" opacity="1" stroke="none"/>
<path d="M473.287 371.4C473.287 373.88 471.277 375.89 468.797 375.89C466.317 375.89 464.306 373.88 464.306 371.4C464.306 368.92 466.317 366.91 468.797 366.91C471.277 366.91 473.287 368.92 473.287 371.4" fill="#0b2f4e" fill-rule="evenodd" opacity="1" stroke="none"/>
<path d="M499.31 320.987C499.31 323.467 497.3 325.477 494.82 325.477C492.34 325.477 490.329 323.467 490.329 320.987C490.329 318.507 492.34 316.497 494.82 316.497C497.3 316.497 499.31 318.507 499.31 320.987" fill="#0b2f4e" fill-rule="evenodd" opacity="1" stroke="none"/>
<path d="M564.102 314.087C564.102 316.567 562.092 318.577 559.612 318.577C557.132 318.577 555.121 316.567 555.121 314.087C555.121 311.607 557.132 309.597 559.612 309.597C562.092 309.597 564.102 311.607 564.102 314.087" fill="#0b2f4e" fill-rule="evenodd" opacity="1" stroke="none"/>
<path d="M586.482 370.058C586.482 372.538 584.472 374.548 581.992 374.548C579.512 374.548 577.501 372.538 577.501 370.058C577.501 367.578 579.512 365.568 581.992 365.568C584.472 365.568 586.482 367.578 586.482 370.058" fill="#0b2f4e" fill-rule="evenodd" opacity="1" stroke="none"/>
<path d="M616.843 417.367C616.843 419.847 614.833 421.857 612.353 421.857C609.873 421.857 607.862 419.847 607.862 417.367C607.862 414.887 609.873 412.877 612.353 412.877C614.833 412.877 616.843 414.887 616.843 417.367" fill="#0b2f4e" fill-rule="evenodd" opacity="1" stroke="none"/>
<path d="M657.992 386.598C657.992 389.078 655.982 391.088 653.502 391.088C651.022 391.088 649.011 389.078 649.011 386.598C649.011 384.118 651.022 382.108 653.502 382.108C655.982 382.108 657.992 384.118 657.992 386.598" fill="#0b2f4e" fill-rule="evenodd" opacity="1" stroke="none"/>
<path d="M710.575 371.166L712.949 389.858L736.269 377.171L710.575 371.166Z" fill="#0b2f4e" fill-rule="evenodd" opacity="1" stroke="none"/>
<path d="M472.506 500L418.853 500L418.853 400.254L472.506 400.254L472.506 500Z" fill="#f95554" fill-rule="evenodd" opacity="1" stroke="none"/>
<path d="M634.937 500L581.284 500L581.284 433.321L634.937 433.321L634.937 500Z" fill="#f95554" fill-rule="evenodd" opacity="1" stroke="none"/>
<path d="M553.721 500L500.068 500L500.068 331.733L553.721 331.733L553.721 500Z" fill="#fba907" fill-rule="evenodd" opacity="1" stroke="none"/>
<path d="M500.069 353.319L553.721 419.539L553.721 417.952L500.069 351.732L500.069 353.319Z" fill="#e06600" fill-rule="evenodd" opacity="1" stroke="none"/>
<path d="M516.858 331.733L553.721 377.23L553.721 375.644L518.144 331.733L516.858 331.733Z" fill="#e06600" fill-rule="evenodd" opacity="1" stroke="none"/>
<path d="M517.362 500L500.069 478.656L500.069 480.243L516.076 500L517.362 500Z" fill="#e06600" fill-rule="evenodd" opacity="1" stroke="none"/>
<path d="M500.069 395.627L553.721 461.847L553.721 460.26L500.069 394.04L500.069 395.627Z" fill="#e06600" fill-rule="evenodd" opacity="1" stroke="none"/>
<path d="M551.641 500L500.069 436.348L500.069 437.935L550.355 500L551.641 500Z" fill="#e06600" fill-rule="evenodd" opacity="1" stroke="none"/>
<path d="M500.069 374.473L553.721 440.693L553.721 439.106L500.069 372.886L500.069 374.473Z" fill="#e06600" fill-rule="evenodd" opacity="1" stroke="none"/>
<path d="M500.069 331.733L500.069 332.165L553.721 398.384L553.721 396.798L501.005 331.733L500.069 331.733Z" fill="#e06600" fill-rule="evenodd" opacity="1" stroke="none"/>
<path d="M500.069 416.781L553.721 483.001L553.721 481.414L500.069 415.194L500.069 416.781Z" fill="#e06600" fill-rule="evenodd" opacity="1" stroke="none"/>
<path d="M534.502 500L500.069 457.502L500.069 459.089L533.216 500L534.502 500Z" fill="#e06600" fill-rule="evenodd" opacity="1" stroke="none"/>
<path d="M525.428 331.733L553.721 366.654L553.721 365.067L526.714 331.733L525.428 331.733Z" fill="#e06600" fill-rule="evenodd" opacity="1" stroke="none"/>
<path d="M553.721 343.913L543.853 331.733L542.567 331.733L553.721 345.5L553.721 343.913Z" fill="#e06600" fill-rule="evenodd" opacity="1" stroke="none"/>
<path d="M500.069 427.358L553.721 493.578L553.721 491.991L500.069 425.771L500.069 427.358Z" fill="#e06600" fill-rule="evenodd" opacity="1" stroke="none"/>
<path d="M500.069 342.742L553.721 408.962L553.721 407.375L500.069 341.155L500.069 342.742Z" fill="#e06600" fill-rule="evenodd" opacity="1" stroke="none"/>
<path d="M543.071 500L500.069 446.925L500.069 448.512L541.785 500L543.071 500Z" fill="#e06600" fill-rule="evenodd" opacity="1" stroke="none"/>
<path d="M500.069 385.05L553.721 451.27L553.721 449.683L500.069 383.463L500.069 385.05Z" fill="#e06600" fill-rule="evenodd" opacity="1" stroke="none"/>
<path d="M508.289 331.733L553.722 387.807L553.722 386.221L509.575 331.733L508.289 331.733Z" fill="#e06600" fill-rule="evenodd" opacity="1" stroke="none"/>
<path d="M553.721 354.49L535.283 331.733L533.997 331.733L553.721 356.077L553.721 354.49Z" fill="#e06600" fill-rule="evenodd" opacity="1" stroke="none"/>
<path d="M500.069 363.896L553.721 430.116L553.721 428.529L500.069 362.309L500.069 363.896Z" fill="#e06600" fill-rule="evenodd" opacity="1" stroke="none"/>
<path d="M500.069 406.204L553.721 472.424L553.721 470.837L500.069 404.617L500.069 406.204Z" fill="#e06600" fill-rule="evenodd" opacity="1" stroke="none"/>
<path d="M508.793 500L500.069 489.233L500.069 490.82L507.507 500L508.793 500Z" fill="#e06600" fill-rule="evenodd" opacity="1" stroke="none"/>
<path d="M525.932 500L500.069 468.079L500.069 469.666L524.646 500L525.932 500Z" fill="#e06600" fill-rule="evenodd" opacity="1" stroke="none"/>
<path d="M716.152 500L662.499 500L662.499 400.254L716.152 400.254L716.152 500Z" fill="#fba907" fill-rule="evenodd" opacity="1" stroke="none"/>
<path d="M662.5 421.675L716.152 487.895L716.152 486.308L662.5 420.088L662.5 421.675Z" fill="#e06600" fill-rule="evenodd" opacity="1" stroke="none"/>
<path d="M679.289 400.089L716.152 445.587L716.152 444L680.575 400.089L679.289 400.089Z" fill="#e06600" fill-rule="evenodd" opacity="1" stroke="none"/>
<path d="M692.967 500L662.499 462.396L662.499 463.983L691.681 500L692.967 500Z" fill="#e06600" fill-rule="evenodd" opacity="1" stroke="none"/>
<path d="M710.107 500L662.5 441.242L662.5 442.829L708.821 500L710.107 500Z" fill="#e06600" fill-rule="evenodd" opacity="1" stroke="none"/>
<path d="M662.5 400.089L662.5 400.521L716.152 466.74L716.152 465.154L663.436 400.089L662.5 400.089Z" fill="#e06600" fill-rule="evenodd" opacity="1" stroke="none"/>
<path d="M675.828 500L662.5 483.55L662.5 485.137L674.542 500L675.828 500Z" fill="#e06600" fill-rule="evenodd" opacity="1" stroke="none"/>
<path d="M687.859 400.089L716.152 435.01L716.152 433.423L689.145 400.089L687.859 400.089Z" fill="#e06600" fill-rule="evenodd" opacity="1" stroke="none"/>
<path d="M716.152 412.269L706.284 400.089L704.998 400.089L716.152 413.856L716.152 412.269Z" fill="#e06600" fill-rule="evenodd" opacity="1" stroke="none"/>
<path d="M667.258 500L662.499 494.127L662.499 495.714L665.972 500L667.258 500Z" fill="#e06600" fill-rule="evenodd" opacity="1" stroke="none"/>
<path d="M662.5 411.098L716.152 477.318L716.152 475.731L662.5 409.511L662.5 411.098Z" fill="#e06600" fill-rule="evenodd" opacity="1" stroke="none"/>
<path d="M701.537 500L662.5 451.819L662.5 453.406L700.252 500L701.537 500Z" fill="#e06600" fill-rule="evenodd" opacity="1" stroke="none"/>
<path d="M670.719 400.089L716.152 456.164L716.152 454.577L672.005 400.089L670.719 400.089Z" fill="#e06600" fill-rule="evenodd" opacity="1" stroke="none"/>
<path d="M716.152 422.846L697.714 400.089L696.428 400.089L716.152 424.433L716.152 422.846Z" fill="#e06600" fill-rule="evenodd" opacity="1" stroke="none"/>
<path d="M662.5 432.252L716.152 498.472L716.152 496.885L662.5 430.665L662.5 432.252Z" fill="#e06600" fill-rule="evenodd" opacity="1" stroke="none"/>
<path d="M684.398 500L662.5 472.973L662.5 474.56L683.112 500L684.398 500Z" fill="#e06600" fill-rule="evenodd" opacity="1" stroke="none"/>
<path d="M391.291 500L337.638 500L337.638 464.549L391.291 464.549L391.291 500Z" fill="#fba907" fill-rule="evenodd" opacity="1" stroke="none"/>
<path d="M350.418 500L337.639 484.369L337.639 485.941L349.132 500L350.418 500Z" fill="#e06600" fill-rule="evenodd" opacity="1" stroke="none"/>
<path d="M384.696 500L355.713 464.549L354.427 464.549L383.41 500L384.696 500Z" fill="#e06600" fill-rule="evenodd" opacity="1" stroke="none"/>
<path d="M367.557 500L338.574 464.549L337.639 464.549L337.639 464.977L366.271 500L367.557 500Z" fill="#e06600" fill-rule="evenodd" opacity="1" stroke="none"/>
<path d="M362.997 464.548L391.29 499.156L391.29 497.583L364.283 464.548L362.997 464.548Z" fill="#e06600" fill-rule="evenodd" opacity="1" stroke="none"/>
<path d="M391.29 476.619L381.422 464.548L380.136 464.548L391.29 478.192L391.29 476.619Z" fill="#e06600" fill-rule="evenodd" opacity="1" stroke="none"/>
<path d="M358.987 500L337.638 473.886L337.638 475.459L357.701 500L358.987 500Z" fill="#e06600" fill-rule="evenodd" opacity="1" stroke="none"/>
<path d="M376.126 500L347.143 464.549L345.857 464.549L374.84 500L376.126 500Z" fill="#e06600" fill-rule="evenodd" opacity="1" stroke="none"/>
<path d="M391.29 487.102L372.852 464.549L371.566 464.549L391.29 488.675L391.29 487.102Z" fill="#e06600" fill-rule="evenodd" opacity="1" stroke="none"/>
<path d="M341.848 500L337.639 494.851L337.639 496.424L340.562 500L341.848 500Z" fill="#e06600" fill-rule="evenodd" opacity="1" stroke="none"/>
<g opacity="1">
<path d="M241.446 218.146C240.204 218.146 238.77 217.135 237.336 215.225C235.746 213.108 234.288 210.097 233.23 206.747C232.172 203.398 231.635 200.096 231.721 197.45C231.812 194.631 232.621 192.839 233.999 192.404C235.368 191.968 237.066 192.97 238.761 195.226C240.351 197.343 241.809 200.353 242.867 203.703C245.175 211.013 244.845 217.179 242.098 218.047C241.888 218.114 241.67 218.146 241.446 218.146M234.651 193.305C234.528 193.305 234.411 193.322 234.299 193.357C233.384 193.646 232.795 195.188 232.72 197.482C232.638 200.018 233.158 203.201 234.183 206.446C235.209 209.691 236.612 212.596 238.135 214.624C239.512 216.459 240.874 217.38 241.797 217.094C243.626 216.516 244.123 210.998 241.914 204.004C240.888 200.76 239.485 197.855 237.962 195.826C236.75 194.213 235.546 193.305 234.651 193.305" fill="#ffffff" fill-rule="evenodd" opacity="1" stroke="none"/>
<path d="M155.45 277.404L157.321 258.117L163.251 240.478L221.659 171.127C221.659 171.127 228.894 182.471 234.273 202.548C235.759 208.094 243.217 219.595 243.829 223.367C244.44 227.138 239.735 228.236 239.956 230.487C242.521 256.688 240.753 260.874 233.828 264.516C228.027 267.25 207.282 265.701 207.282 265.701L206.59 284.377C206.59 284.377 211.841 297.67 210.162 297.454C208.483 297.239 179.957 293.902 179.957 293.902L163.865 282.708L155.45 277.404Z" fill="#fba785" fill-rule="evenodd" opacity="1" stroke="none"/>
<path d="M201.358 238.008C189.385 259.888 172.993 260.704 156.676 260.183C128.614 232.376 112.32 210.126 126.603 189.859C126.405 163.477 153.015 142.583 192.504 146.82C207.907 135.011 238.552 147.714 225.598 178.56C225.598 178.56 210.395 195.751 223.514 222.796C221.09 226.065 218.894 225.1 216.827 221.764C216.827 221.764 210.835 208.244 201.737 216.201C192.639 224.158 201.358 238.008 201.358 238.008" fill="#0b2f4e" fill-rule="evenodd" opacity="1" stroke="none"/>
<path d="M210.832 242.952C203.947 242.952 201.061 238.477 200.934 238.273L201.78 237.741C201.904 237.938 204.908 242.555 212.269 241.885L212.358 242.881C211.83 242.929 211.32 242.952 210.832 242.952" fill="#0b2f4e" fill-rule="evenodd" opacity="1" stroke="none"/>
<path d="M206.784 265.735L206.092 255.797L207.09 255.728L207.782 265.666L206.784 265.735Z" fill="#0b2f4e" fill-rule="evenodd" opacity="1" stroke="none"/>
<path d="M209.048 233.85C204.703 233.204 202.093 228.63 202.167 224.764C202.222 221.894 203.822 218.657 208.15 218.181L208.259 219.175C205.131 219.519 203.228 221.616 203.167 224.783C203.102 228.227 205.387 232.294 209.194 232.861L209.048 233.85Z" fill="#0b2f4e" fill-rule="evenodd" opacity="1" stroke="none"/>
<path d="M212.923 230.864C211.329 229.484 209.761 228.86 208.247 229.007C206.193 229.208 204.944 230.778 204.933 230.794L204.144 230.178C204.205 230.1 205.673 228.254 208.151 228.012C209.941 227.837 211.769 228.543 213.577 230.108L212.923 230.864Z" fill="#0b2f4e" fill-rule="evenodd" opacity="1" stroke="none"/>
<path d="M189.714 397.839C168.396 397.38 144.794 397.62 122.635 399.305C138.854 374.603 156.552 344.648 159.28 327.863C163.602 300.551 95.1441 309.167 95.1441 309.167C95.1441 309.167 40.6601 420.86 65.7961 446.428C90.9331 471.996 156.643 442.217 194.432 432.359C196.12 423.79 192.421 403.98 189.714 397.839" fill="#6ab8fb" fill-rule="evenodd" opacity="1" stroke="none"/>
<path d="M326.98 285.097L342.247 247.056C344.97 240.436 352.581 244.198 350.17 250.256L345.476 263.961C351.372 262.816 352.307 265.07 351.846 270.777C356.696 270.397 358.779 273.403 357.844 280.102C361.202 279.499 363.181 281.324 363.429 286.193C363.429 286.193 364.25 291.961 361.423 300.636C358.596 309.31 351.541 320.944 351.541 320.944L325.447 315.508C325.447 315.508 317.122 296.754 316.634 293.351C316.147 289.948 316.595 278.064 317.626 276.138C318.657 274.212 326.004 264.695 326.004 264.695C326.004 264.695 330.192 266.609 328.875 270.937C327.558 275.265 326.058 278.87 326.058 278.87L326.98 285.097Z" fill="#fba785" fill-rule="evenodd" opacity="1" stroke="none"/>
<path d="M324.639 292.47L323.707 292.107L326.515 284.915L327.447 285.278L324.639 292.47Z" fill="#0b2f4e" fill-rule="evenodd" opacity="1" stroke="none"/>
<path d="M340.977 278.525L340.032 278.199L345.003 263.797L345.949 264.123L340.977 278.525Z" fill="#0b2f4e" fill-rule="evenodd" opacity="1" stroke="none"/>
<path d="M349.782 281.008L348.813 280.764L351.362 270.654L352.331 270.898L349.782 281.008Z" fill="#0b2f4e" fill-rule="evenodd" opacity="1" stroke="none"/>
<path d="M357.668 284.047L356.684 283.876L357.352 280.016L358.336 280.187L357.668 284.047Z" fill="#0b2f4e" fill-rule="evenodd" opacity="1" stroke="none"/>
<path d="M318.307 319.266C318.307 319.266 320.544 310.568 322.073 308.809C326.98 306.949 349.938 311.128 354.602 315.569C355.428 316.938 354.151 326.657 354.151 326.657L318.307 319.266Z" fill="#ffffff" fill-rule="evenodd" opacity="1" stroke="none"/>
<path d="M155.616 274.415C182.678 273.798 206.378 277.777 206.378 277.777C206.378 277.777 245.104 291.848 261.54 307.786C273.279 319.169 262.661 371.457 258.173 415.112C256.377 432.581 266.882 502.534 266.882 502.534L112.615 502.534C112.615 502.534 82.1942 334.184 95.1442 309.28C108.094 284.377 155.616 274.415 155.616 274.415" fill="#6ab8fb" fill-rule="evenodd" opacity="1" stroke="none"/>
<path d="M355.428 323.227C347.126 318.661 325.516 315.315 318.321 315.756C312.797 331.03 307.274 347.704 302.602 364.325C289.014 340.863 273.57 317.351 261.54 307.787C237.964 289.192 234.644 387.308 234.644 387.308C234.644 387.308 291.117 462.299 323.053 458.455C354.989 454.611 353.517 363.797 355.428 323.227" fill="#6ab8fb" fill-rule="evenodd" opacity="1" stroke="none"/>
<path d="M156.585 265.701L151.29 275.461C162.831 280.956 184.069 281.602 210.832 279.486L207.283 269.435C184.647 265.111 166.511 263.202 156.585 265.701" fill="#ffffff" fill-rule="evenodd" opacity="1" stroke="none"/>
<path d="M214.377 216.532L213.957 215.625L241.943 202.678L242.363 203.585L214.377 216.532Z" fill="#ffffff" fill-rule="evenodd" opacity="1" stroke="none"/>
</g>
<path d="M332.43 315.549C332.43 316.296 331.825 316.901 331.078 316.901C330.331 316.901 329.726 316.296 329.726 315.549C329.726 314.802 330.331 314.197 331.078 314.197C331.825 314.197 332.43 314.802 332.43 315.549" fill="#aad7ff" fill-rule="evenodd" opacity="1" stroke="none"/>
<path d="M452.661 212.469L267.32 212.469C264.371 212.469 261.971 210.07 261.971 207.12C261.971 204.17 264.371 201.771 267.32 201.771L452.661 201.771C455.611 201.771 458.01 204.17 458.01 207.12C458.01 210.07 455.611 212.469 452.661 212.469" fill="none" fill-rule="evenodd" opacity="1" stroke="#3b6ca2" stroke-linecap="butt" stroke-linejoin="miter" stroke-width="1.5"/>
<path d="M329.526 210.17L267.524 210.17C265.84 210.17 264.474 208.804 264.474 207.12C264.474 205.435 265.84 204.07 267.524 204.07L329.526 204.07C331.211 204.07 332.576 205.435 332.576 207.12C332.576 208.804 331.211 210.17 329.526 210.17" fill="#3b6ca2" fill-rule="evenodd" opacity="1" stroke="none"/>
</g>
</svg>
