<?xml version="1.0" encoding="UTF-8" standalone="no"?>
<!DOCTYPE svg PUBLIC "-//W3C//DTD SVG 1.1//EN" "http://www.w3.org/Graphics/SVG/1.1/DTD/svg11.dtd">
<!-- Created with Vectornator (http://vectornator.io/) -->
<svg height="100%" stroke-miterlimit="10" style="fill-rule:nonzero;clip-rule:evenodd;stroke-linecap:round;stroke-linejoin:round;" version="1.1" viewBox="0 0 1375 409" width="100%" xml:space="preserve" xmlns="http://www.w3.org/2000/svg" xmlns:vectornator="http://vectornator.io" xmlns:xlink="http://www.w3.org/1999/xlink">
<defs>
<linearGradient gradientTransform="matrix(16.4989 0 0 -16.4989 -40.7173 403.716)" gradientUnits="userSpaceOnUse" id="LinearGradient" x1="17.0242" x2="11.7873" y1="15.4268" y2="7.8331">
<stop offset="0.2303" stop-color="#3bcc95"/>
<stop offset="1" stop-color="#085f3e"/>
</linearGradient>
<linearGradient gradientTransform="matrix(16.4989 0 0 -16.4989 -40.7173 403.716)" gradientUnits="userSpaceOnUse" id="LinearGradient_2" x1="6.1658" x2="9.8924" y1="5.98" y2="18.8963">
<stop offset="0.1755" stop-color="#02603d"/>
<stop offset="0.4615" stop-color="#11a56d"/>
<stop offset="0.7099" stop-color="#24b47e"/>
<stop offset="0.8909" stop-color="#28c98d"/>
</linearGradient>
<linearGradient gradientTransform="matrix(16.4989 0 0 -16.4989 -40.7173 403.716)" gradientUnits="userSpaceOnUse" id="LinearGradient_3" x1="13.3757" x2="16.5152" y1="9.088" y2="6.4242">
<stop offset="0" stop-color="#088e5c"/>
<stop offset="0.2627" stop-color="#179b69"/>
<stop offset="0.6709" stop-color="#24b47e"/>
<stop offset="0.8909" stop-color="#24b47e"/>
</linearGradient>
</defs>
<clipPath id="ArtboardFrame">
<rect height="409" width="1375" x="0" y="0"/>
</clipPath>
<g clip-path="url(#ArtboardFrame)" id="Layer-1" vectornator:layerName="Layer 1">
<g opacity="1">
<clipPath id="ClipPath">
<path d="M-40.7173 9.55997L355.257 9.55997L355.257 9.55997L355.257 405.534L355.257 405.534L-40.7173 405.534L-40.7173 405.534L-40.7173 9.55997L-40.7173 9.55997Z" fill-rule="evenodd"/>
</clipPath>
<g clip-path="url(#ClipPath)">
<path d="M289.261 149.801C276.062 143.201 256.263 143.201 231.515 143.201C210.066 143.201 196.867 144.851 191.917 144.851C172.119 144.851 162.219 158.05 158.919 164.65C155.62 171.249 139.121 220.746 139.121 230.645C137.471 243.844 140.771 253.744 157.27 253.744C183.668 253.744 248.014 163 279.362 156.4C292.561 153.1 297.51 158.05 300.81 163C300.81 158.05 295.86 153.1 289.261 149.801Z" fill="url(#LinearGradient)" fill-rule="evenodd" opacity="1" stroke="none"/>
<path d="M152.32 253.744C139.121 252.094 137.471 243.844 139.121 230.645C140.771 220.746 157.27 172.899 158.919 164.65C178.718 98.6541 186.968 47.5075 188.618 42.5578C196.867 9.55997 160.569-6.93894 130.871 35.9582C107.773 70.6059 20.3287 197.648 12.0792 214.146C5.47965 228.995 12.0792 253.744 38.4775 253.744C74.7751 253.744 152.32 253.744 152.32 253.744Z" fill="url(#LinearGradient_2)" fill-rule="evenodd" opacity="1" stroke="none"/>
<path d="M152.32 253.744C157.27 253.744 160.569 253.744 168.819 250.444C198.517 232.295 252.963 163 281.011 156.4C294.211 153.1 299.16 158.05 302.46 163C312.359 177.849 304.11 195.998 294.211 209.197C236.464 294.991 185.318 365.936 160.569 393.985C142.421 415.433 107.773 408.834 119.322 369.236C124.272 356.037 152.32 253.744 152.32 253.744Z" fill="url(#LinearGradient_3)" fill-rule="evenodd" opacity="1" stroke="none"/>
</g>
</g>
<g opacity="1">
<path d="M432.209 224.179C432.209 229.665 431.161 234.812 429.065 239.619C426.969 244.427 424.119 248.634 420.513 252.24C416.907 255.846 412.7 258.696 407.892 260.792C403.084 262.888 397.938 263.936 392.452 263.936L326.16 263.936L326.16 131.352L392.452 131.352C397.938 131.352 403.084 132.4 407.892 134.495C412.7 136.591 416.907 139.442 420.513 143.048C424.119 146.653 426.969 150.86 429.065 155.668C431.161 160.476 432.209 165.623 432.209 171.108C432.209 173.574 431.87 176.101 431.192 178.69C430.514 181.279 429.558 183.775 428.325 186.179C427.093 188.583 425.613 190.771 423.887 192.743C422.162 194.716 420.251 196.349 418.155 197.644C420.312 198.815 422.254 200.402 423.98 202.405C425.706 204.408 427.185 206.612 428.418 209.016C429.651 211.42 430.591 213.932 431.238 216.551C431.885 219.171 432.209 221.713 432.209 224.179ZM352.695 237.4L392.452 237.4C394.301 237.4 396.027 237.061 397.629 236.383C399.232 235.705 400.634 234.765 401.836 233.563C403.038 232.361 403.978 230.959 404.656 229.357C405.334 227.754 405.673 226.028 405.673 224.179C405.673 222.33 405.334 220.604 404.656 219.001C403.978 217.399 403.038 215.996 401.836 214.794C400.634 213.593 399.232 212.653 397.629 211.975C396.027 211.296 394.301 210.957 392.452 210.957L352.695 210.957L352.695 237.4ZM352.695 184.422L392.452 184.422C394.301 184.422 396.027 184.083 397.629 183.405C399.232 182.727 400.634 181.787 401.836 180.585C403.038 179.383 403.978 177.966 404.656 176.332C405.334 174.699 405.673 172.957 405.673 171.108C405.673 169.259 405.334 167.533 404.656 165.931C403.978 164.328 403.038 162.926 401.836 161.724C400.634 160.522 399.232 159.582 397.629 158.904C396.027 158.226 394.301 157.887 392.452 157.887L352.695 157.887L352.695 184.422Z" fill="#ffffff" fill-rule="evenodd" opacity="1" stroke="none"/>
<path d="M545.284 213.546C545.284 220.943 543.959 227.831 541.308 234.211C538.658 240.59 535.052 246.107 530.491 250.76C525.93 255.414 520.582 259.082 514.449 261.763C508.316 264.444 501.737 265.785 494.71 265.785C487.745 265.785 481.196 264.444 475.063 261.763C468.93 259.082 463.567 255.414 458.975 250.76C454.383 246.107 450.762 240.59 448.111 234.211C445.461 227.831 444.136 220.943 444.136 213.546C444.136 206.026 445.461 199.061 448.111 192.651C450.762 186.241 454.383 180.709 458.975 176.055C463.567 171.401 468.93 167.749 475.063 165.099C481.196 162.448 487.745 161.123 494.71 161.123C501.737 161.123 508.316 162.371 514.449 164.867C520.582 167.364 525.93 170.908 530.491 175.5C535.052 180.092 538.658 185.609 541.308 192.05C543.959 198.491 545.284 205.657 545.284 213.546ZM519.858 213.546C519.858 209.478 519.196 205.795 517.87 202.498C516.545 199.2 514.742 196.365 512.462 193.992C510.181 191.618 507.515 189.8 504.464 188.537C501.413 187.273 498.162 186.641 494.71 186.641C491.258 186.641 488.007 187.273 484.956 188.537C481.904 189.8 479.254 191.618 477.004 193.992C474.754 196.365 472.982 199.2 471.688 202.498C470.393 205.795 469.746 209.478 469.746 213.546C469.746 217.368 470.393 220.912 471.688 224.179C472.982 227.446 474.754 230.281 477.004 232.685C479.254 235.089 481.904 236.984 484.956 238.371C488.007 239.758 491.258 240.451 494.71 240.451C498.162 240.451 501.413 239.804 504.464 238.51C507.515 237.215 510.181 235.397 512.462 233.055C514.742 230.713 516.545 227.877 517.87 224.549C519.196 221.22 519.858 217.553 519.858 213.546Z" fill="#ffffff" fill-rule="evenodd" opacity="1" stroke="none"/>
<path d="M654.938 213.546C654.938 220.943 653.613 227.831 650.963 234.211C648.312 240.59 644.707 246.107 640.145 250.76C635.584 255.414 630.237 259.082 624.104 261.763C617.971 264.444 611.391 265.785 604.364 265.785C597.399 265.785 590.85 264.444 584.717 261.763C578.584 259.082 573.222 255.414 568.629 250.76C564.037 246.107 560.416 240.59 557.766 234.211C555.115 227.831 553.79 220.943 553.79 213.546C553.79 206.026 555.115 199.061 557.766 192.651C560.416 186.241 564.037 180.709 568.629 176.055C573.222 171.401 578.584 167.749 584.717 165.099C590.85 162.448 597.399 161.123 604.364 161.123C611.391 161.123 617.971 162.371 624.104 164.867C630.237 167.364 635.584 170.908 640.145 175.5C644.707 180.092 648.312 185.609 650.963 192.05C653.613 198.491 654.938 205.657 654.938 213.546ZM629.513 213.546C629.513 209.478 628.85 205.795 627.525 202.498C626.2 199.2 624.397 196.365 622.116 193.992C619.835 191.618 617.17 189.8 614.119 188.537C611.067 187.273 607.816 186.641 604.364 186.641C600.913 186.641 597.661 187.273 594.61 188.537C591.559 189.8 588.908 191.618 586.659 193.992C584.409 196.365 582.637 199.2 581.342 202.498C580.048 205.795 579.401 209.478 579.401 213.546C579.401 217.368 580.048 220.912 581.342 224.179C582.637 227.446 584.409 230.281 586.659 232.685C588.908 235.089 591.559 236.984 594.61 238.371C597.661 239.758 600.913 240.451 604.364 240.451C607.816 240.451 611.067 239.804 614.119 238.51C617.17 237.215 619.835 235.397 622.116 233.055C624.397 230.713 626.2 227.877 627.525 224.549C628.85 221.22 629.513 217.553 629.513 213.546Z" fill="#ffffff" fill-rule="evenodd" opacity="1" stroke="none"/>
<path d="M794.827 263.936L769.678 263.936L769.678 201.065C769.678 199.339 769.355 197.705 768.707 196.164C768.06 194.623 767.151 193.267 765.98 192.096C764.809 190.925 763.453 190.016 761.912 189.369C760.371 188.721 758.737 188.398 757.011 188.398C755.286 188.398 753.668 188.721 752.157 189.369C750.647 190.016 749.322 190.925 748.182 192.096C747.041 193.267 746.148 194.623 745.501 196.164C744.853 197.705 744.53 199.339 744.53 201.065L744.53 263.936L719.289 263.936L719.289 201.065C719.289 199.339 718.965 197.705 718.318 196.164C717.671 194.623 716.762 193.267 715.591 192.096C714.419 190.925 713.063 190.016 711.522 189.369C709.981 188.721 708.348 188.398 706.622 188.398C704.896 188.398 703.278 188.721 701.768 189.369C700.258 190.016 698.933 190.925 697.793 192.096C696.652 193.267 695.758 194.623 695.111 196.164C694.464 197.705 694.14 199.339 694.14 201.065L694.14 263.936L668.9 263.936L668.9 164.914L675.002 164.914L681.844 172.495C685.357 169.537 689.225 167.241 693.447 165.607C697.669 163.974 702.061 163.157 706.622 163.157C711.245 163.157 715.76 164.02 720.167 165.746C724.574 167.472 728.442 170.461 731.771 174.714C733.312 172.618 735.068 170.831 737.041 169.352C739.013 167.872 741.093 166.67 743.282 165.746C745.47 164.821 747.735 164.159 750.077 163.758C752.419 163.357 754.731 163.157 757.011 163.157C762.251 163.157 767.166 164.143 771.758 166.116C776.35 168.088 780.357 170.785 783.778 174.206C787.199 177.627 789.896 181.648 791.868 186.271C793.84 190.894 794.827 195.825 794.827 201.065L794.827 263.936Z" fill="#ffffff" fill-rule="evenodd" opacity="1" stroke="none"/>
<path d="M842.997 138.009C842.997 140.351 842.55 142.539 841.656 144.573C840.762 146.607 839.545 148.379 838.004 149.889C836.463 151.4 834.66 152.601 832.595 153.495C830.531 154.389 828.327 154.836 825.985 154.836C823.642 154.836 821.439 154.389 819.374 153.495C817.309 152.601 815.522 151.4 814.011 149.889C812.501 148.379 811.299 146.607 810.406 144.573C809.512 142.539 809.065 140.351 809.065 138.009C809.065 135.728 809.512 133.555 810.406 131.49C811.299 129.425 812.501 127.638 814.011 126.128C815.522 124.618 817.309 123.416 819.374 122.522C821.439 121.628 823.642 121.181 825.985 121.181C828.327 121.181 830.531 121.628 832.595 122.522C834.66 123.416 836.463 124.618 838.004 126.128C839.545 127.638 840.762 129.425 841.656 131.49C842.55 133.555 842.997 135.728 842.997 138.009ZM838.651 263.936L813.226 263.936L813.226 164.914L838.651 164.914L838.651 263.936Z" fill="#ffffff" fill-rule="evenodd" opacity="1" stroke="none"/>
<path d="M883.123 263.936L857.883 263.936L857.883 164.914L863.985 164.914L872.306 174.529C876.374 170.831 880.981 167.98 886.128 165.977C891.275 163.974 896.653 162.972 902.262 162.972C908.303 162.972 914.004 164.128 919.367 166.439C924.729 168.751 929.414 171.925 933.42 175.962C937.427 180 940.586 184.715 942.897 190.108C945.209 195.502 946.364 201.249 946.364 207.352L946.364 263.936L921.123 263.936L921.123 207.352C921.123 204.763 920.63 202.313 919.644 200.001C918.658 197.69 917.302 195.671 915.576 193.945C913.85 192.219 911.847 190.863 909.566 189.877C907.286 188.891 904.851 188.398 902.262 188.398C899.612 188.398 897.115 188.891 894.773 189.877C892.431 190.863 890.397 192.219 888.671 193.945C886.945 195.671 885.589 197.69 884.603 200.001C883.617 202.313 883.123 204.763 883.123 207.352L883.123 263.936Z" fill="#ffffff" fill-rule="evenodd" opacity="1" stroke="none"/>
<path d="M1060.18 263.936L1054.08 263.936L1044.28 250.344C1041.87 252.502 1039.33 254.52 1036.65 256.4C1033.97 258.28 1031.15 259.914 1028.19 261.301C1025.23 262.687 1022.19 263.781 1019.08 264.583C1015.97 265.384 1012.81 265.785 1009.61 265.785C1002.64 265.785 996.091 264.614 989.958 262.271C983.825 259.929 978.462 256.524 973.87 252.055C969.278 247.586 965.657 242.116 963.007 235.644C960.356 229.172 959.031 221.806 959.031 213.546C959.031 205.842 960.356 198.769 963.007 192.327C965.657 185.886 969.278 180.354 973.87 175.731C978.462 171.108 983.825 167.518 989.958 164.96C996.091 162.402 1002.64 161.123 1009.61 161.123C1012.81 161.123 1015.98 161.524 1019.13 162.325C1022.27 163.126 1025.32 164.236 1028.28 165.653C1031.24 167.071 1034.06 168.735 1036.74 170.646C1039.42 172.557 1041.93 174.622 1044.28 176.841L1054.08 165.099L1060.18 165.099L1060.18 263.936ZM1034.75 213.546C1034.75 210.095 1034.09 206.751 1032.77 203.515C1031.44 200.279 1029.64 197.412 1027.36 194.916C1025.08 192.42 1022.41 190.417 1019.36 188.906C1016.31 187.396 1013.06 186.641 1009.61 186.641C1006.15 186.641 1002.9 187.227 999.851 188.398C996.8 189.569 994.149 191.295 991.9 193.575C989.65 195.856 987.878 198.676 986.583 202.035C985.289 205.395 984.642 209.232 984.642 213.546C984.642 217.861 985.289 221.698 986.583 225.057C987.878 228.417 989.65 231.236 991.9 233.517C994.149 235.798 996.8 237.524 999.851 238.695C1002.9 239.866 1006.15 240.451 1009.61 240.451C1013.06 240.451 1016.31 239.696 1019.36 238.186C1022.41 236.676 1025.08 234.673 1027.36 232.176C1029.64 229.68 1031.44 226.814 1032.77 223.578C1034.09 220.342 1034.75 216.998 1034.75 213.546Z" fill="#ffffff" fill-rule="evenodd" opacity="1" stroke="none"/>
<path d="M1104.65 263.936L1079.41 263.936L1079.41 164.914L1085.51 164.914L1093.83 174.529C1097.9 170.831 1102.51 167.98 1107.66 165.977C1112.8 163.974 1118.18 162.972 1123.79 162.972C1129.83 162.972 1135.53 164.128 1140.89 166.439C1146.26 168.751 1150.94 171.925 1154.95 175.962C1158.95 180 1162.11 184.715 1164.43 190.108C1166.74 195.502 1167.89 201.249 1167.89 207.352L1167.89 263.936L1142.65 263.936L1142.65 207.352C1142.65 204.763 1142.16 202.313 1141.17 200.001C1140.19 197.69 1138.83 195.671 1137.1 193.945C1135.38 192.219 1133.37 190.863 1131.09 189.877C1128.81 188.891 1126.38 188.398 1123.79 188.398C1121.14 188.398 1118.64 188.891 1116.3 189.877C1113.96 190.863 1111.92 192.219 1110.2 193.945C1108.47 195.671 1107.12 197.69 1106.13 200.001C1105.14 202.313 1104.65 204.763 1104.65 207.352L1104.65 263.936Z" fill="#ffffff" fill-rule="evenodd" opacity="1" stroke="none"/>
<path d="M1272.37 184.607L1253.88 203.191C1252.95 200.602 1251.69 198.275 1250.09 196.211C1248.48 194.146 1246.68 192.404 1244.68 190.987C1242.67 189.569 1240.5 188.49 1238.16 187.751C1235.82 187.011 1233.41 186.641 1230.95 186.641C1227.5 186.641 1224.25 187.35 1221.19 188.768C1218.14 190.185 1215.49 192.173 1213.24 194.731C1210.99 197.289 1209.22 200.325 1207.93 203.838C1206.63 207.352 1205.98 211.235 1205.98 215.488C1205.98 218.94 1206.63 222.176 1207.93 225.196C1209.22 228.216 1210.99 230.867 1213.24 233.147C1215.49 235.428 1218.14 237.215 1221.19 238.51C1224.25 239.804 1227.5 240.451 1230.95 240.451C1233.41 240.451 1235.79 240.112 1238.07 239.434C1240.35 238.756 1242.49 237.786 1244.49 236.522C1246.5 235.258 1248.28 233.717 1249.86 231.899C1251.43 230.081 1252.71 228.062 1253.69 225.843L1272.18 244.427C1269.84 247.756 1267.15 250.745 1264.09 253.395C1261.04 256.046 1257.75 258.296 1254.2 260.145C1250.66 261.994 1246.93 263.396 1243.01 264.352C1239.1 265.307 1235.08 265.785 1230.95 265.785C1223.98 265.785 1217.43 264.475 1211.3 261.855C1205.17 259.236 1199.81 255.645 1195.21 251.084C1190.62 246.523 1187 241.191 1184.35 235.089C1181.7 228.987 1180.37 222.453 1180.37 215.488C1180.37 207.906 1181.7 200.818 1184.35 194.223C1187 187.627 1190.62 181.88 1195.21 176.979C1199.81 172.079 1205.17 168.211 1211.3 165.376C1217.43 162.541 1223.98 161.123 1230.95 161.123C1235.08 161.123 1239.13 161.647 1243.11 162.695C1247.08 163.743 1250.87 165.268 1254.48 167.271C1258.08 169.275 1261.41 171.725 1264.46 174.622C1267.52 177.519 1270.15 180.847 1272.37 184.607Z" fill="#ffffff" fill-rule="evenodd" opacity="1" stroke="none"/>
<path d="M1322.57 239.712C1323.56 240.02 1324.55 240.22 1325.53 240.313C1326.52 240.405 1327.5 240.451 1328.49 240.451C1330.96 240.451 1333.33 240.112 1335.61 239.434C1337.89 238.756 1340.03 237.786 1342.04 236.522C1344.04 235.258 1345.83 233.717 1347.4 231.899C1348.97 230.081 1350.25 228.062 1351.24 225.843L1369.73 244.427C1367.38 247.756 1364.69 250.745 1361.64 253.395C1358.59 256.046 1355.29 258.296 1351.74 260.145C1348.2 261.994 1344.47 263.396 1340.56 264.352C1336.64 265.307 1332.62 265.785 1328.49 265.785C1321.53 265.785 1314.98 264.49 1308.84 261.902C1302.71 259.313 1297.35 255.707 1292.76 251.084C1288.16 246.461 1284.54 240.96 1281.89 234.58C1279.24 228.201 1277.92 221.189 1277.92 213.546C1277.92 205.718 1279.24 198.568 1281.89 192.096C1284.54 185.624 1288.16 180.108 1292.76 175.546C1297.35 170.985 1302.71 167.441 1308.84 164.914C1314.98 162.387 1321.53 161.123 1328.49 161.123C1332.62 161.123 1336.66 161.616 1340.6 162.602C1344.55 163.588 1348.29 165.006 1351.84 166.855C1355.38 168.704 1358.69 170.97 1361.78 173.651C1364.86 176.332 1367.57 179.337 1369.91 182.666L1322.57 239.712ZM1335.52 187.658C1334.35 187.227 1333.19 186.949 1332.05 186.826C1330.91 186.703 1329.72 186.641 1328.49 186.641C1325.04 186.641 1321.79 187.273 1318.74 188.537C1315.69 189.8 1313.03 191.603 1310.79 193.945C1308.54 196.288 1306.76 199.108 1305.47 202.405C1304.17 205.703 1303.53 209.417 1303.53 213.546C1303.53 214.471 1303.57 215.519 1303.67 216.69C1303.76 217.861 1303.91 219.048 1304.13 220.249C1304.34 221.451 1304.61 222.607 1304.91 223.717C1305.22 224.826 1305.62 225.812 1306.12 226.675L1335.52 187.658Z" fill="#ffffff" fill-rule="evenodd" opacity="1" stroke="none"/>
</g>
</g>
</svg>
