<?xml version="1.0" encoding="UTF-8" standalone="no"?>
<!DOCTYPE svg PUBLIC "-//W3C//DTD SVG 1.1//EN" "http://www.w3.org/Graphics/SVG/1.1/DTD/svg11.dtd">
<!-- Created with Vectornator (http://vectornator.io/) -->
<svg height="100%" stroke-miterlimit="10" style="fill-rule:nonzero;clip-rule:evenodd;stroke-linecap:round;stroke-linejoin:round;" version="1.1" viewBox="0 0 750 500" width="100%" xml:space="preserve" xmlns="http://www.w3.org/2000/svg" xmlns:vectornator="http://vectornator.io" xmlns:xlink="http://www.w3.org/1999/xlink">
<defs/>
<g id="Untitled" vectornator:layerName="Untitled">
<path d="M615.071 387.564L659.469 387.564L659.469 376.374L615.071 376.374L615.071 387.564Z" fill="#ececec" fill-rule="evenodd" opacity="1" stroke="none"/>
<path d="M256.344 122.817L300.742 122.817L300.742 111.627L256.344 111.627L256.344 122.817Z" fill="#ececec" fill-rule="evenodd" opacity="1" stroke="none"/>
<g opacity="1">
<clipPath id="ClipPath">
<path d="M0 0L750 0L750 500L0 500L0 0Z" fill-rule="evenodd"/>
</clipPath>
<g clip-path="url(#ClipPath)">
<path d="M639.838 401.674L639.637 390.484L639.633 390.285L639.838 390.283C645.377 390.214 656.501 390.097 662.037 390.056L684.236 389.985L684.737 389.983L684.735 390.484L684.699 401.674L684.697 402.138L684.236 402.137C671.319 402.158 652.916 401.844 639.838 401.674M639.838 401.674C652.89 401.487 671.396 401.213 684.236 401.211L683.773 401.674L683.736 390.484L684.236 390.984C676.86 390.965 658.063 390.909 650.937 390.814L639.838 390.685L640.039 390.484L639.838 401.674Z" fill="#ececec" fill-rule="evenodd" opacity="1" stroke="none"/>
<path d="M162.007 269.047L206.405 269.047L206.405 257.857L162.007 257.857L162.007 269.047Z" fill="#ececec" fill-rule="evenodd" opacity="1" stroke="none"/>
<path d="M186.774 283.157L186.573 271.967L186.569 271.768L186.774 271.766C192.313 271.697 203.437 271.58 208.973 271.539L231.172 271.468L231.673 271.466L231.671 271.967L231.635 283.157L231.634 283.621L231.172 283.62C218.255 283.641 199.852 283.327 186.774 283.157M186.774 283.157C199.826 282.97 218.332 282.696 231.172 282.694L230.709 283.157L230.673 271.967L231.172 272.467C223.797 272.448 204.999 272.392 197.874 272.297L186.774 272.168L186.975 271.967L186.774 283.157Z" fill="#ececec" fill-rule="evenodd" opacity="1" stroke="none"/>
<path d="M472.178 283.507L471.977 272.317L471.973 272.118L472.178 272.116C477.717 272.047 488.841 271.93 494.377 271.889L516.576 271.818L517.077 271.816L517.075 272.317L517.039 283.507L517.038 283.971L516.576 283.97C503.659 283.991 485.256 283.677 472.178 283.507M472.178 283.507C485.23 283.32 503.736 283.046 516.576 283.044L516.113 283.507L516.077 272.317L516.576 272.817C509.201 272.798 490.403 272.742 483.278 272.647C483.277 272.647 472.178 272.518 472.178 272.518L472.379 272.317L472.178 283.507Z" fill="#ececec" fill-rule="evenodd" opacity="1" stroke="none"/>
<path d="M496.945 297.617L496.744 286.427L496.74 286.228L496.945 286.226C502.484 286.157 513.608 286.04 519.144 285.999L541.343 285.928L541.844 285.926L541.842 286.427L541.806 297.617L541.804 298.081L541.343 298.08C528.426 298.101 510.023 297.787 496.945 297.617M496.945 297.617C509.997 297.43 528.503 297.156 541.343 297.154L540.88 297.617L540.844 286.427L541.343 286.927C533.967 286.908 515.17 286.852 508.045 286.757L496.945 286.628L497.146 286.427L496.945 297.617Z" fill="#ececec" fill-rule="evenodd" opacity="1" stroke="none"/>
<path d="M521.614 283.507L566.012 283.507L566.012 272.317L521.614 272.317L521.614 283.507Z" fill="#ececec" fill-rule="evenodd" opacity="1" stroke="none"/>
<path d="M65.764 401.674L110.162 401.674L110.162 390.484L65.764 390.484L65.764 401.674Z" fill="#ececec" fill-rule="evenodd" opacity="1" stroke="none"/>
<path d="M90.531 56.123L134.929 56.123L134.929 44.933L90.531 44.933L90.531 56.123Z" fill="#ececec" fill-rule="evenodd" opacity="1" stroke="none"/>
<path d="M65.7639 70.2329L65.5629 59.0429L65.5589 58.8439L65.7639 58.8419C71.3029 58.7729 82.4269 58.6559 87.9629 58.6149L110.162 58.5439L110.663 58.5419L110.661 59.0429L110.625 70.2329L110.623 70.6969L110.162 70.6959C97.2449 70.7169 78.8419 70.4029 65.7639 70.2329M65.7639 70.2329C78.8159 70.0459 97.3219 69.7719 110.162 69.7699L109.699 70.2329L109.663 59.0429L110.162 59.5429C102.787 59.5239 83.9889 59.4679 76.8639 59.3729L65.7639 59.2439L65.9649 59.0429L65.7639 70.2329Z" fill="#ececec" fill-rule="evenodd" opacity="1" stroke="none"/>
<path d="M615.071 56.1231L614.87 44.9331L614.866 44.7341L615.071 44.7321C620.61 44.6631 631.734 44.5461 637.27 44.5051L659.469 44.4341L659.97 44.4321L659.968 44.9331L659.932 56.1231L659.931 56.5871L659.469 56.5861C646.552 56.6071 628.149 56.2931 615.071 56.1231M615.071 56.1231C628.123 55.9361 646.629 55.6621 659.469 55.6601L659.006 56.1231L658.97 44.9331L659.469 45.4331C652.093 45.4141 633.296 45.3581 626.171 45.2631L615.071 45.1341L615.272 44.9331L615.071 56.1231Z" fill="#ececec" fill-rule="evenodd" opacity="1" stroke="none"/>
<path d="M244.019 233.496L85.764 233.496L85.764 130.162L244.019 130.162L244.019 233.496Z" fill="#ececec" fill-rule="evenodd" opacity="1" stroke="none"/>
<path d="M116.808 165.413L101.421 165.413L101.421 150.026L116.808 150.026L116.808 165.413Z" fill="#ffffff" fill-rule="evenodd" opacity="1" stroke="none"/>
<path d="M135.4 165.413L120.013 165.413L120.013 150.026L135.4 150.026L135.4 165.413Z" fill="#dcdcdc" fill-rule="evenodd" opacity="1" stroke="none"/>
<path d="M153.993 165.413L138.606 165.413L138.606 150.026L153.993 150.026L153.993 165.413Z" fill="#ffffff" fill-rule="evenodd" opacity="1" stroke="none"/>
<path d="M172.585 165.413L157.198 165.413L157.198 150.026L172.585 150.026L172.585 165.413Z" fill="#ffffff" fill-rule="evenodd" opacity="1" stroke="none"/>
<path d="M191.178 165.413L175.791 165.413L175.791 150.026L191.178 150.026L191.178 165.413Z" fill="#ffffff" fill-rule="evenodd" opacity="1" stroke="none"/>
<path d="M209.77 165.413L194.383 165.413L194.383 150.026L209.77 150.026L209.77 165.413Z" fill="#ffffff" fill-rule="evenodd" opacity="1" stroke="none"/>
<path d="M228.363 165.413L212.976 165.413L212.976 150.026L228.363 150.026L228.363 165.413Z" fill="#ffffff" fill-rule="evenodd" opacity="1" stroke="none"/>
<path d="M116.808 184.136L101.421 184.136L101.421 168.749L116.808 168.749L116.808 184.136Z" fill="#ffffff" fill-rule="evenodd" opacity="1" stroke="none"/>
<path d="M135.4 184.136L120.013 184.136L120.013 168.749L135.4 168.749L135.4 184.136Z" fill="#ffffff" fill-rule="evenodd" opacity="1" stroke="none"/>
<path d="M153.993 184.136L138.606 184.136L138.606 168.749L153.993 168.749L153.993 184.136Z" fill="#ffffff" fill-rule="evenodd" opacity="1" stroke="none"/>
<path d="M172.585 184.136L157.198 184.136L157.198 168.749L172.585 168.749L172.585 184.136Z" fill="#ffffff" fill-rule="evenodd" opacity="1" stroke="none"/>
<path d="M191.178 184.136L175.791 184.136L175.791 168.749L191.178 168.749L191.178 184.136Z" fill="#dcdcdc" fill-rule="evenodd" opacity="1" stroke="none"/>
<path d="M209.77 184.136L194.383 184.136L194.383 168.749L209.77 168.749L209.77 184.136Z" fill="#ffffff" fill-rule="evenodd" opacity="1" stroke="none"/>
<path d="M228.363 184.136L212.976 184.136L212.976 168.749L228.363 168.749L228.363 184.136Z" fill="#ffffff" fill-rule="evenodd" opacity="1" stroke="none"/>
<path d="M116.808 202.859L101.421 202.859L101.421 187.472L116.808 187.472L116.808 202.859Z" fill="#ffffff" fill-rule="evenodd" opacity="1" stroke="none"/>
<path d="M135.4 202.859L120.013 202.859L120.013 187.472L135.4 187.472L135.4 202.859Z" fill="#ffffff" fill-rule="evenodd" opacity="1" stroke="none"/>
<path d="M153.993 202.859L138.606 202.859L138.606 187.472L153.993 187.472L153.993 202.859Z" fill="#ffffff" fill-rule="evenodd" opacity="1" stroke="none"/>
<path d="M172.585 202.859L157.198 202.859L157.198 187.472L172.585 187.472L172.585 202.859Z" fill="#ffffff" fill-rule="evenodd" opacity="1" stroke="none"/>
<path d="M191.178 202.859L175.791 202.859L175.791 187.472L191.178 187.472L191.178 202.859Z" fill="#ffffff" fill-rule="evenodd" opacity="1" stroke="none"/>
<path d="M209.77 202.859L194.383 202.859L194.383 187.472L209.77 187.472L209.77 202.859Z" fill="#ffffff" fill-rule="evenodd" opacity="1" stroke="none"/>
<path d="M228.363 202.859L212.976 202.859L212.976 187.472L228.363 187.472L228.363 202.859Z" fill="#ffffff" fill-rule="evenodd" opacity="1" stroke="none"/>
<path d="M116.808 221.583L101.421 221.583L101.421 206.196L116.808 206.196L116.808 221.583Z" fill="#ffffff" fill-rule="evenodd" opacity="1" stroke="none"/>
<path d="M135.4 221.583L120.013 221.583L120.013 206.196L135.4 206.196L135.4 221.583Z" fill="#ffffff" fill-rule="evenodd" opacity="1" stroke="none"/>
<path d="M153.993 221.583L138.606 221.583L138.606 206.196L153.993 206.196L153.993 221.583Z" fill="#ffffff" fill-rule="evenodd" opacity="1" stroke="none"/>
<path d="M172.585 221.583L157.198 221.583L157.198 206.196L172.585 206.196L172.585 221.583Z" fill="#ffffff" fill-rule="evenodd" opacity="1" stroke="none"/>
<path d="M191.178 221.583L175.791 221.583L175.791 206.196L191.178 206.196L191.178 221.583Z" fill="#ffffff" fill-rule="evenodd" opacity="1" stroke="none"/>
<path d="M209.77 221.583L194.383 221.583L194.383 206.196L209.77 206.196L209.77 221.583Z" fill="#ffffff" fill-rule="evenodd" opacity="1" stroke="none"/>
<path d="M228.363 221.583L212.976 221.583L212.976 206.196L228.363 206.196L228.363 221.583Z" fill="#ffffff" fill-rule="evenodd" opacity="1" stroke="none"/>
<path d="M97.97 135.078L91.963 135.078L91.963 119.193L97.97 119.193L97.97 135.078Z" fill="#c8c8c8" fill-rule="evenodd" opacity="1" stroke="none"/>
<path d="M111.955 135.078L105.949 135.078L105.949 119.193L111.955 119.193L111.955 135.078Z" fill="#c8c8c8" fill-rule="evenodd" opacity="1" stroke="none"/>
<path d="M125.94 135.078L119.933 135.078L119.933 119.193L125.94 119.193L125.94 135.078Z" fill="#c8c8c8" fill-rule="evenodd" opacity="1" stroke="none"/>
<path d="M139.925 135.078L133.919 135.078L133.919 119.193L139.925 119.193L139.925 135.078Z" fill="#c8c8c8" fill-rule="evenodd" opacity="1" stroke="none"/>
<path d="M153.91 135.078L147.903 135.078L147.903 119.193L153.91 119.193L153.91 135.078Z" fill="#c8c8c8" fill-rule="evenodd" opacity="1" stroke="none"/>
<path d="M167.895 135.078L161.889 135.078L161.889 119.193L167.895 119.193L167.895 135.078Z" fill="#c8c8c8" fill-rule="evenodd" opacity="1" stroke="none"/>
<path d="M181.88 135.078L175.873 135.078L175.873 119.193L181.88 119.193L181.88 135.078Z" fill="#c8c8c8" fill-rule="evenodd" opacity="1" stroke="none"/>
<path d="M195.865 135.078L189.859 135.078L189.859 119.193L195.865 119.193L195.865 135.078Z" fill="#c8c8c8" fill-rule="evenodd" opacity="1" stroke="none"/>
<path d="M209.85 135.078L203.844 135.078L203.844 119.193L209.85 119.193L209.85 135.078Z" fill="#c8c8c8" fill-rule="evenodd" opacity="1" stroke="none"/>
<path d="M223.835 135.078L217.829 135.078L217.829 119.193L223.835 119.193L223.835 135.078Z" fill="#c8c8c8" fill-rule="evenodd" opacity="1" stroke="none"/>
<path d="M237.82 135.078L231.813 135.078L231.813 119.193L237.82 119.193L237.82 135.078Z" fill="#c8c8c8" fill-rule="evenodd" opacity="1" stroke="none"/>
<path d="M676.156 316.687L588.584 316.687L588.584 210.464L676.156 210.464L676.156 316.687Z" fill="#ececec" fill-rule="evenodd" opacity="1" stroke="none"/>
<path d="M666.149 306.992L598.591 306.992L598.591 220.158L666.149 220.158L666.149 306.992Z" fill="#ffffff" fill-rule="evenodd" opacity="1" stroke="none"/>
<path d="M601.227 306.992L598.591 306.992L598.591 220.158L601.227 220.158L601.227 306.992Z" fill="#c8c8c8" fill-rule="evenodd" opacity="1" stroke="none"/>
<path d="M678.792 316.687L676.156 316.687L676.156 210.464L678.792 210.464L678.792 316.687Z" fill="#c8c8c8" fill-rule="evenodd" opacity="1" stroke="none"/>
<path d="M637.161 240.238L621.231 240.238L621.231 287.697L637.161 287.697L637.161 240.238Z" fill="#dcdcdc" fill-rule="evenodd" opacity="1" stroke="none"/>
<path d="M614.781 254.882L656.258 254.882L656.258 232.631L614.781 232.631L614.781 254.882ZM657.258 255.882L613.781 255.882L613.781 231.631L657.258 231.631L657.258 255.882Z" fill="#ececec" fill-rule="evenodd" opacity="1" stroke="none"/>
<path d="M621.665 180.376L534.093 180.376L534.093 74.153L621.665 74.153L621.665 180.376Z" fill="#ececec" fill-rule="evenodd" opacity="1" stroke="none"/>
<path d="M611.659 170.682L544.101 170.682L544.101 83.849L611.659 83.849L611.659 170.682Z" fill="#ffffff" fill-rule="evenodd" opacity="1" stroke="none"/>
<path d="M546.736 170.682L544.1 170.682L544.1 83.849L546.736 83.849L546.736 170.682Z" fill="#c8c8c8" fill-rule="evenodd" opacity="1" stroke="none"/>
<path d="M624.302 180.376L621.666 180.376L621.666 74.153L624.302 74.153L624.302 180.376Z" fill="#c8c8c8" fill-rule="evenodd" opacity="1" stroke="none"/>
<path d="M584.985 140.8L571.338 140.8L571.338 106.294L584.985 106.294L584.985 140.8Z" fill="#ececec" fill-rule="evenodd" opacity="1" stroke="none"/>
<path d="M563.193 150.551L598.854 150.551L598.854 127.765L563.193 127.765L563.193 150.551ZM599.854 151.551L562.193 151.551L562.193 126.765L599.854 126.765L599.854 151.551Z" fill="#dcdcdc" fill-rule="evenodd" opacity="1" stroke="none"/>
</g>
</g>
<g opacity="1">
<clipPath id="ClipPath_2">
<path d="M0 0L750 0L750 500L0 500L0 0Z" fill-rule="evenodd"/>
</clipPath>
<g clip-path="url(#ClipPath_2)">
<path d="M58.9777 454.345C261.443 453.733 488.559 453.728 691.023 454.345C488.558 454.962 261.442 454.957 58.9777 454.345" fill="#182e35" fill-rule="evenodd" opacity="1" stroke="none"/>
</g>
</g>
<g opacity="1">
<clipPath id="ClipPath_3">
<path d="M0 0L750 0L750 500L0 500L0 0Z" fill-rule="evenodd"/>
</clipPath>
<g clip-path="url(#ClipPath_3)">
<path d="M688.614 312.662C669.249 338.889 649.058 369.325 644.141 402.214C644.082 402.711 644.879 402.874 644.994 402.38C647.243 393.359 650.087 384.599 653.558 376.047C666.289 372.543 678.785 369.665 685.471 357.029C692.29 344.039 691.423 327.103 690.127 312.954C690.036 312.196 689.008 312.158 688.614 312.662" fill="#ffc800" fill-rule="evenodd" opacity="1" stroke="none"/>
<path d="M653.75 375.8C662.449 356.279 673.617 336.678 687.813 320.625C687.908 320.517 688.057 320.673 687.969 320.781C678.675 332.214 671.613 344.666 664.716 357.334C671.128 350.825 678.154 344.994 684.228 338.091C684.346 337.957 684.536 338.151 684.423 338.286C678.392 345.523 671.804 353.387 663.95 358.743C661.839 362.63 659.716 366.53 657.562 370.428C658.089 370.133 658.634 369.87 659.176 369.602C659.271 369.555 659.355 369.697 659.259 369.745C658.66 370.049 658.068 370.368 657.449 370.63C656.429 372.475 655.419 374.321 654.369 376.162C654.136 376.573 653.566 376.213 653.75 375.8" fill="#182e35" fill-rule="evenodd" opacity="1" stroke="none"/>
<path d="M660.222 368.989C665.412 366.013 670.417 362.815 675.087 359.066C675.214 358.963 675.397 359.14 675.269 359.248C670.682 363.131 665.792 366.607 660.436 369.354C660.195 369.478 659.984 369.125 660.222 368.989" fill="#182e35" fill-rule="evenodd" opacity="1" stroke="none"/>
<path d="M641.901 397.325C641.941 397.724 642.617 397.716 642.609 397.292C642.71 386.462 642.619 375.581 642.782 364.701C645.556 359.101 651.512 356.002 655.653 351.515C658.639 348.277 661.193 344.624 663.377 340.76C668.499 331.596 671.272 321.293 672.339 310.882C673.483 299.296 669.087 261.067 664.203 262.395C661.67 263.083 653.474 282.018 651.301 288.278C647.74 298.576 645.235 309.247 643.593 320.016C639.634 345.504 639.964 371.676 641.901 397.325" fill="#ffc800" fill-rule="evenodd" opacity="1" stroke="none"/>
<path d="M641.823 350.602C641.84 350.588 641.855 350.574 641.872 350.56C642.465 336.856 645.553 323.016 648.443 309.725C651.556 295.406 655.196 281.923 662.564 269.151C662.702 268.914 663.053 269.123 662.93 269.365C657.915 279.245 654.33 289.735 651.586 300.508C652.079 299.735 652.679 299.004 653.192 298.275C653.394 297.988 653.868 298.255 653.669 298.553C652.947 299.633 652.294 300.89 651.367 301.805C651.336 301.835 651.303 301.838 651.271 301.849C648.734 312.082 646.913 322.552 645.355 332.995C645.472 332.862 645.584 332.719 645.702 332.591C645.782 332.505 645.916 332.615 645.861 332.714C645.669 333.06 645.452 333.405 645.24 333.75C644.455 339.05 643.728 344.341 642.996 349.584C652.434 341.517 660.493 332.009 665.04 320.293C665.061 320.239 665.149 320.262 665.129 320.318C660.675 332.471 653.654 343.273 642.846 350.645C642.648 352.059 642.451 353.472 642.25 354.877C642.208 355.169 641.743 355.092 641.744 354.809C641.748 353.561 641.809 352.309 641.857 351.058C641.723 350.94 641.66 350.738 641.823 350.602" fill="#182e35" fill-rule="evenodd" opacity="1" stroke="none"/>
<path d="M646.269 330.746C653.481 319.982 660.218 309.528 665.496 297.63C665.554 297.498 665.783 297.593 665.731 297.729C661.284 309.551 655.055 321.529 646.63 331.025C646.458 331.218 646.123 330.964 646.269 330.746" fill="#182e35" fill-rule="evenodd" opacity="1" stroke="none"/>
<path d="M655.854 294.971C658.842 289.685 661.992 284.54 664.804 279.15C664.883 278.999 665.09 279.132 665.027 279.28C662.667 284.789 659.848 290.384 656.315 295.24C656.117 295.513 655.681 295.277 655.854 294.971" fill="#182e35" fill-rule="evenodd" opacity="1" stroke="none"/>
<path d="M654.687 297.271C654.746 297.271 654.746 297.363 654.687 297.363C654.628 297.363 654.628 297.271 654.687 297.271" fill="#182e35" fill-rule="evenodd" opacity="1" stroke="none"/>
<path d="M634.571 366.003C634.386 373.179 633.611 380.357 632.04 387.342C632.151 388.113 632.263 388.883 632.376 389.677C634.638 381.903 635.82 373.935 636.192 365.892C636.316 365.669 636.367 365.429 636.226 365.156L636.224 365.133C636.633 354.393 635.637 343.534 633.833 332.906C630.48 313.001 623.152 293.899 609.27 278.98C608.83 278.52 607.951 278.759 607.736 279.296C602.135 293.54 604.089 310.536 608.86 324.745C611.457 332.399 615.163 339.75 619.869 346.331C624.631 353.026 630.702 358.691 634.571 366.003" fill="#ffc800" fill-rule="evenodd" opacity="1" stroke="none"/>
<path d="M610.912 285.646C624.068 306.998 633.222 332.313 634.341 357.535C634.361 357.981 633.608 358.1 633.546 357.643C633.235 355.377 632.888 353.131 632.525 350.894C632.518 350.887 632.509 350.892 632.502 350.886C627.059 345.672 621.472 340.173 617.575 333.658C617.506 333.544 617.671 333.409 617.762 333.513C622.498 338.925 626.916 344.469 632.262 349.295C631.32 343.718 630.204 338.231 628.882 332.823C628.53 332.419 628.187 332.006 627.841 331.6C627.613 331.332 627.993 330.942 628.232 331.209C628.336 331.326 628.442 331.443 628.548 331.559C626.684 324.134 624.409 316.864 621.669 309.721C618.32 305.725 614.576 302.273 612.136 297.461C612.076 297.344 612.236 297.253 612.311 297.359C614.272 300.111 616.17 302.879 618.396 305.433C619.282 306.451 620.255 307.402 621.174 308.395C618.18 300.77 614.628 293.293 610.404 285.943C610.214 285.614 610.713 285.324 610.912 285.646" fill="#182e35" fill-rule="evenodd" opacity="1" stroke="none"/>
<path d="M613.571 311.985C617.824 317.708 622.67 323.168 626.622 329.083C626.736 329.253 626.488 329.427 626.348 329.295C621.268 324.53 616.97 318.023 613.285 312.152C613.169 311.967 613.447 311.818 613.571 311.985" fill="#182e35" fill-rule="evenodd" opacity="1" stroke="none"/>
<path d="M627.218 330.408L627.399 330.589C627.525 330.715 627.33 330.91 627.204 330.784L627.023 330.603C626.897 330.477 627.092 330.282 627.218 330.408" fill="#182e35" fill-rule="evenodd" opacity="1" stroke="none"/>
<path d="M590.299 326.692C591.356 337.677 597.135 350.799 604.182 359.264C607.304 363.007 611.093 365.872 615.44 368.049C620.315 370.461 625.421 373.239 630.465 375.219C632.823 381.239 634.627 387.544 635.784 394.116C635.947 393.566 636.109 392.992 636.272 392.442C633.034 364.63 615.037 340.858 592.016 325.598C591.188 325.047 590.207 325.753 590.299 326.692" fill="#ffc800" fill-rule="evenodd" opacity="1" stroke="none"/>
<path d="M598.253 334.909C598.091 334.766 598.31 334.474 598.487 334.606C610.687 343.642 621.679 356.82 627.82 370.757C627.988 371.137 627.465 371.471 627.249 371.091C626.179 369.216 625.087 367.391 623.978 365.6C623.972 365.599 623.969 365.604 623.962 365.603C618.708 364.614 613.732 360.916 609.831 357.405C609.725 357.31 609.881 357.156 609.987 357.249C612.023 359.044 614.209 360.687 616.635 361.919C618.777 363.007 621.083 363.693 623.313 364.564C621.365 361.473 619.335 358.509 617.217 355.634C611.562 353.708 606.178 350.235 601.425 346.757C601.276 346.648 601.408 346.402 601.574 346.502C606.418 349.418 611.194 351.984 616.251 354.348C613.065 350.128 609.617 346.132 605.888 342.267C604.103 341.324 602.291 340.376 600.56 339.367C600.42 339.285 600.512 339.044 600.674 339.098C602.052 339.557 603.457 340.279 604.762 341.107C602.684 339.006 600.545 336.932 598.253 334.909" fill="#182e35" fill-rule="evenodd" opacity="1" stroke="none"/>
<path d="M598.742 344.513C599.06 344.715 599.347 344.897 599.628 345.145C599.713 345.22 599.605 345.328 599.516 345.29C599.18 345.143 598.903 344.965 598.593 344.767C598.435 344.665 598.582 344.411 598.742 344.513" fill="#182e35" fill-rule="evenodd" opacity="1" stroke="none"/>
<path d="M672.199 454.345L609.117 454.345L614.21 396.899L615.327 384.229L665.989 384.229L667.106 396.899L672.199 454.345Z" fill="#365a64" fill-rule="evenodd" opacity="1" stroke="none"/>
<path d="M667.106 396.899L614.209 396.899L615.327 384.23L665.988 384.23L667.106 396.899Z" fill="#182e35" fill-rule="evenodd" opacity="1" stroke="none"/>
<path d="M669.006 387.91L612.309 387.91L612.309 375.372L669.006 375.372L669.006 387.91Z" fill="#365a64" fill-rule="evenodd" opacity="1" stroke="none"/>
</g>
</g>
<path d="M313.638 321.785C313.592 324.651 314.826 326.584 317.022 328.022C318.846 329.219 320.778 330.28 322.773 331.247C322.478 324.334 323.06 317.2 323.479 310.39C323.976 302.382 325.023 294.563 326.243 286.667C326.258 286.546 326.444 286.572 326.436 286.692C325.784 294.708 325.419 302.776 324.985 310.8C324.605 317.824 324.775 324.95 324.348 331.974C326.397 332.889 328.493 333.702 330.604 334.438C330.557 331.983 330.534 329.527 330.542 327.063C330.557 319.663 331.233 312.374 331.644 305C331.652 304.82 331.9 304.82 331.892 305C331.597 312.177 331.923 319.458 331.993 326.644C332.016 329.416 332.063 332.188 332.133 334.959C333.585 335.43 335.028 335.875 336.456 336.286C337.411 336.559 338.365 336.825 339.32 337.056C339.382 332.205 339.723 327.32 339.91 322.572C340.22 314.889 341.012 307.259 341.439 299.584C341.454 299.319 341.834 299.319 341.827 299.584C341.447 307.224 341.578 314.924 341.377 322.572C341.245 327.491 341.33 332.53 341.167 337.517C353.989 340.529 367.276 340.897 380.299 339.468C387.851 338.638 395.34 337.218 402.752 335.405C404.538 334.968 409.093 333.71 413.587 332.402C413.634 330.084 413.742 327.765 413.758 325.524C413.796 320.408 414.138 315.258 414.037 310.15C414.037 310.005 414.231 310.005 414.239 310.15C414.51 315.283 415.085 320.373 415.194 325.524C415.232 327.585 415.326 329.724 415.349 331.88C416.955 331.409 418.5 330.939 419.858 330.502C419.346 320.835 419.975 311.023 420.029 301.39C420.029 301.158 420.339 301.158 420.347 301.39C420.735 310.843 421.697 320.433 421.573 329.946C423.172 329.416 424.282 328.997 424.553 328.783C426.781 327.029 425.291 288.822 425.151 279.908C424.895 263.294 425.084 180.5 420.132 164.561C418.34 158.787 412.643 141.403 391.983 132.566C385.386 129.751 377.674 130.425 370.624 130.393C336.392 130.235 325.353 154.363 322.186 196.768C320.962 213.157 315.889 292.253 314.616 308.653C314.282 313.008 313.716 317.422 313.638 321.785" fill="#182e35" fill-rule="evenodd" opacity="1" stroke="none"/>
<path d="M367.062 290.706C437.798 279.577 531.253 250.876 534.711 226.386C538.563 199.108 447.862 202.751 447.488 206.916C447.17 210.453 398.428 238.951 355.227 265.953C312.067 292.929 349.57 293.458 367.062 290.706" fill="#ffaba1" fill-rule="evenodd" opacity="1" stroke="none"/>
<path d="M450.604 279.314L400.174 227.725C400.174 227.725 356.57 258.364 337.512 279.047C326.833 290.638 335.7 299.086 349.951 299.033C399.833 298.851 450.604 279.314 450.604 279.314" fill="#ffc800" fill-rule="evenodd" opacity="1" stroke="none"/>
<path d="M450.604 279.314L400.174 227.725C400.174 227.725 356.57 258.364 337.512 279.047C326.833 290.638 335.7 299.086 349.951 299.033C399.833 298.851 450.604 279.314 450.604 279.314" fill="#ffc800" fill-rule="evenodd" opacity="1" stroke="none"/>
<g opacity="0.100006">
<clipPath id="ClipPath_4">
<path d="M332.795 299.039L404.905 299.039L404.905 264.032L332.795 264.032L332.795 299.039Z" fill-rule="evenodd"/>
</clipPath>
<g clip-path="url(#ClipPath_4)">
<path d="M404.905 292.463C388.408 296.048 369.116 298.972 349.954 299.039C335.699 299.087 326.836 290.637 337.512 279.042C341.805 274.39 347.333 269.236 353.331 264.032L404.905 292.463Z" fill="#000000" fill-rule="evenodd" opacity="1" stroke="none"/>
</g>
</g>
<path d="M393.814 237.453C400.915 246.031 420.851 268.742 435.734 281.812C435.824 281.89 436.162 281.586 436.085 281.495C425.343 268.758 402.134 244.931 394.316 237C394.169 236.851 393.681 237.291 393.814 237.453" fill="#182e35" fill-rule="evenodd" opacity="1" stroke="none"/>
<path d="M233.111 454.661L410.407 454.205L399.691 387.446C399.691 387.446 415.025 368.81 412.122 348.595C408.943 326.444 369.058 270.31 365.701 267.146C352.206 254.46 338.007 251.062 325.148 257.709C280.905 280.582 233.111 454.661 233.111 454.661" fill="#ffc800" fill-rule="evenodd" opacity="1" stroke="none"/>
<path d="M407.93 438.77L237.71 438.77C237.61 439.14 237.5 439.49 237.39 439.85L408.1 439.85L407.93 438.77ZM404.8 419.3L243.72 419.3C243.6 419.66 243.49 420.01 243.38 420.37L404.98 420.37L404.8 419.3ZM401.68 399.82L250.08 399.82C249.96 400.18 249.84 400.54 249.72 400.9L401.85 400.9L401.68 399.82ZM256.82 380.35C256.69 380.71 256.57 381.07 256.44 381.42L403.83 381.42C404.04 381.08 404.25 380.72 404.47 380.35L256.82 380.35ZM264.01 360.87C263.88 361.23 263.74 361.59 263.6 361.95L411.67 361.95C411.74 361.59 411.8 361.23 411.86 360.87L264.01 360.87ZM410.27 341.39L271.77 341.39L271.32 342.47L410.62 342.47C410.51 342.12 410.39 341.76 410.27 341.39M401.37 321.92L280.24 321.92C280.08 322.28 279.91 322.64 279.75 323L401.95 323C401.76 322.64 401.56 322.28 401.37 321.92M390.03 302.44L289.79 302.44L289.22 303.52L390.7 303.52C390.48 303.16 390.26 302.8 390.03 302.44M377.31 282.97L301.13 282.97C300.9 283.33 300.67 283.69 300.43 284.05L378.05 284.05C377.8 283.68 377.55 283.32 377.31 282.97M362.79 264.57L315.88 264.57C316.27 264.2 316.66 263.83 317.05 263.49L361.46 263.49C361.91 263.84 362.35 264.2 362.79 264.57" fill="#ffffff" fill-rule="evenodd" opacity="1" stroke="none"/>
<path d="M368.997 382.338C361.092 383.152 353.159 384.238 345.45 386.215C341.614 387.199 337.851 388.354 334.091 389.593C332.217 390.212 330.335 390.765 328.44 391.31C326.494 391.869 324.407 392.39 322.373 392.455C322.19 392.461 322.196 392.734 322.378 392.739C324.355 392.794 326.248 392.84 328.221 392.631C330.095 392.432 331.96 392.031 333.79 391.579C337.69 390.619 341.542 389.477 345.431 388.476C353.278 386.457 361.121 384.441 369.096 382.993C369.463 382.926 369.371 382.299 368.997 382.338" fill="#182e35" fill-rule="evenodd" opacity="1" stroke="none"/>
<path d="M388.6 389.373C382.099 388.71 375.466 388.347 368.929 388.426C365.64 388.465 362.38 388.695 359.107 389.012C357.544 389.164 355.985 389.343 354.428 389.542C352.715 389.76 351.028 390.209 349.314 390.403C349.135 390.422 349.134 390.702 349.318 390.687C350.941 390.553 352.594 390.688 354.222 390.649C355.858 390.611 357.494 390.559 359.13 390.519C362.407 390.439 365.682 390.395 368.958 390.285C375.517 390.063 382.047 389.908 388.609 389.913C388.964 389.913 388.936 389.407 388.6 389.373" fill="#182e35" fill-rule="evenodd" opacity="1" stroke="none"/>
<path d="M303.616 276.755C259.413 333.089 209.225 437.806 223.377 458.091C239.139 480.684 301.88 409.886 299.317 406.583C297.14 403.777 315.91 336.011 329.142 286.814C342.362 237.663 314.547 262.824 303.616 276.755" fill="#ffaba1" fill-rule="evenodd" opacity="1" stroke="none"/>
<path d="M249.322 344.419L321.139 350.343C321.139 350.343 333.949 298.563 334.771 270.417C335.232 254.645 326.024 254.886 315.312 264.276C277.819 297.144 249.322 344.419 249.322 344.419" fill="#ffc800" fill-rule="evenodd" opacity="1" stroke="none"/>
<path d="M319.563 338.815C308.59 336.988 278.682 332.892 258.899 332.774C258.78 332.773 258.724 333.226 258.841 333.244C275.284 335.828 308.391 338.619 319.481 339.487C319.689 339.503 319.769 338.85 319.563 338.815" fill="#182e35" fill-rule="evenodd" opacity="1" stroke="none"/>
<path d="M312.385 349.622C315.323 349.623 318.255 349.69 321.183 349.805L320.612 350.224C321.97 342.319 323.573 334.471 325.354 326.662C327.15 318.856 329.084 311.08 331.411 303.38C330.314 311.334 328.824 319.213 327.196 327.061C325.554 334.907 323.732 342.715 321.666 350.464L321.539 350.939L321.095 350.883C318.187 350.517 315.283 350.103 312.385 349.622" fill="#182e35" fill-rule="evenodd" opacity="1" stroke="none"/>
<path d="M328.203 319.07C328.647 317.379 329.393 315.867 330.182 314.377C331.012 312.9 331.896 311.49 332.994 310.1C332.938 310.978 332.676 311.804 332.389 312.61C332.112 313.423 331.724 314.186 331.325 314.94C330.481 316.425 329.519 317.851 328.203 319.07" fill="#182e35" fill-rule="evenodd" opacity="1" stroke="none"/>
<path d="M224.328 459.917C241.224 470.144 298.307 463.487 374.613 446.137C385.172 443.735 359.994 370.566 348.586 372.55C334.218 375.048 279 387.861 275.08 389.309C242.02 401.518 212.867 452.98 224.328 459.917" fill="#ffaba1" fill-rule="evenodd" opacity="1" stroke="none"/>
<path d="M324.466 382.355C324.466 382.355 328.964 380.423 351.045 366.366C366.315 356.645 409.722 342.728 450.804 372.732C466.545 384.229 465.353 400.293 446.879 391.254C433.869 384.887 425.398 379.357 420.571 378.47C420.571 378.47 430.086 398.499 423.815 409.713C421.012 414.724 413.043 428.223 405.34 437.849C405.34 437.849 402.793 436.734 399.765 434.863C399.765 434.863 391.405 448.723 373.376 446.35L324.466 382.355Z" fill="#ffaba1" fill-rule="evenodd" opacity="1" stroke="none"/>
<path d="M367.1 359.416C376.48 360.841 396.308 364.194 411.575 372.578C428.532 381.891 458.687 404.402 451.683 416.849C446.548 425.975 434.279 418.393 434.279 418.393C434.279 418.393 444.782 430.325 438.339 437.554C432.468 444.143 423.329 437.708 423.329 437.708C423.329 437.708 428.456 446.041 421.578 451.298C413.307 457.621 403.92 439.119 390.008 438.284C386.884 438.096 367.1 359.416 367.1 359.416" fill="#ffaba1" fill-rule="evenodd" opacity="1" stroke="none"/>
<path d="M398.746 388.854C407.348 391.64 425.259 402.981 434.279 417.991C434.483 418.331 434.336 418.668 434.084 418.397C420.642 403.98 405.401 393.201 398.658 389.014C398.568 388.958 398.65 388.823 398.746 388.854" fill="#182e35" fill-rule="evenodd" opacity="1" stroke="none"/>
<path d="M389.843 406.245C397.017 409.412 414.956 421.925 423.575 437.449C423.767 437.796 423.597 438.124 423.356 437.843C409.932 422.201 396.227 410.981 389.746 406.399C389.659 406.338 389.751 406.204 389.843 406.245" fill="#182e35" fill-rule="evenodd" opacity="1" stroke="none"/>
<path d="M248.405 409.412C250.977 406.486 258.56 397.2 270.596 391.191C281.1 385.946 296.058 383.15 303.857 382.206C304.053 382.182 304.132 382.407 303.94 382.472C297.213 384.759 283.52 387.663 272.26 393.107C260.487 398.798 251.23 407.036 248.615 409.585C248.481 409.716 248.284 409.55 248.405 409.412" fill="#182e35" fill-rule="evenodd" opacity="1" stroke="none"/>
<path d="M534.827 224.661C536.11 205.383 514.101 176.141 464.699 117.664C457.863 109.572 397.753 144.735 404.608 153.752C413.243 165.109 447.638 209.588 450.659 212.341C476.138 235.566 533.957 237.738 534.827 224.661" fill="#ffaba1" fill-rule="evenodd" opacity="1" stroke="none"/>
<path d="M468.619 129.695C463.322 108.213 450.631 85.8734 443.581 80.0264C436.53 74.1784 403.796 64.4464 395.956 63.7684C388.115 63.0904 361.735 60.9154 356.691 65.8204C352.651 69.7484 358.619 77.8754 374.453 79.5194C388.385 80.9664 391.322 83.0544 397.479 86.7614C401.254 89.0344 413.501 97.6214 412.344 103.89C411.662 107.584 403.006 113.9 396.332 112.7C389.658 111.501 385.645 104.934 377.389 101.065C369.133 97.1964 357.23 100.921 357.354 104.358C357.478 107.794 361.85 108.312 370.822 117.837C376.592 123.962 380.711 136.077 392.813 146.067C398.894 151.086 412.91 158.83 412.91 158.83L468.619 129.695Z" fill="#ffaba1" fill-rule="evenodd" opacity="1" stroke="none"/>
<path d="M436.748 84.0014C432.175 76.5494 405.933 60.9934 398.078 58.3514C385.837 54.2354 360.625 51.0844 358.877 59.6144C356.375 71.8234 386.063 75.3534 389.095 76.6874C395.022 79.2944 417.622 99.9444 417.622 99.9444L436.748 84.0014Z" fill="#ffaba1" fill-rule="evenodd" opacity="1" stroke="none"/>
<path d="M405.231 88.929C400.795 85.225 396.328 81.482 391.514 78.385C390.283 77.59 389.136 77.109 387.657 76.882C378.899 74.965 365.549 72.414 359.598 65.303C357.571 62.839 357.393 58.769 359.809 56.43C365.687 51.143 378.573 53.686 385.74 54.849C390.742 55.838 395.717 56.988 400.528 58.698C409.163 62.63 416.898 68.123 424.7 73.42C427.063 75.091 429.45 76.747 431.635 78.651C427.021 75.165 422.045 72.178 417.143 69.116C409.736 64.695 402.49 59.734 393.93 58.014C387.102 56.345 360.085 50.023 359.458 60.873C359.766 70.047 381.566 74.319 388.935 76.142C392.776 77.46 395.769 80.532 398.844 83.034C401.026 84.944 403.165 86.898 405.231 88.929" fill="#182e35" fill-rule="evenodd" opacity="1" stroke="none"/>
<path d="M441.762 92.7015C439.201 84.3425 417.689 62.7105 410.746 58.1865C399.925 51.1365 376.709 41.9845 372.477 49.5935C368.061 57.5345 394.857 71.6385 397.458 73.6895C402.543 77.6975 419.254 103.349 419.254 103.349L441.762 92.7015Z" fill="#ffaba1" fill-rule="evenodd" opacity="1" stroke="none"/>
<path d="M415.148 97.1651C409.796 89.7241 404.687 81.9471 398.509 75.1871C397.652 74.1941 395.888 73.4341 394.752 72.8121C387.977 69.0151 371.022 59.8551 371.274 51.2221C371.561 47.5261 375.442 45.5461 378.729 45.5771C385.107 45.5511 390.992 47.9591 396.732 50.3631C402.389 52.8981 407.887 55.6861 413.052 59.1501C420.294 65.0131 426.271 72.0801 432.398 79.0321C434.382 81.3801 436.412 83.7021 438.152 86.2411C434.331 81.4361 430 77.0481 425.76 72.6141C421.505 68.2981 417.237 63.7131 412.402 60.1001C407.264 56.8751 401.78 54.0441 396.189 51.6141C390.399 49.3181 380.597 45.0541 374.761 48.1351C365.241 55.3791 391.811 69.9071 397.264 73.0201C397.993 73.3761 398.635 73.9481 399.178 74.5251C401.321 76.8191 403.114 79.3121 404.929 81.8031C408.475 86.8371 411.887 91.9521 415.148 97.1651" fill="#182e35" fill-rule="evenodd" opacity="1" stroke="none"/>
<path d="M456.416 98.3518C449.463 85.2968 436.774 66.8808 431.93 62.2508C427.085 57.6208 406.485 42.5698 399.308 45.2508C390.289 48.6198 404.163 62.9088 410.756 68.5738C417.35 74.2388 419.47 86.1478 419.47 86.1478L456.416 98.3518Z" fill="#ffaba1" fill-rule="evenodd" opacity="1" stroke="none"/>
<path d="M396.659 51.0753C397.981 54.3783 400.226 57.1393 402.644 59.6833C406.724 64.3733 411.903 68.0303 415.602 73.0653C420.244 79.7893 421.471 88.2453 421.53 96.2323C421.537 99.7943 421.257 103.369 420.937 106.859C420.473 113.866 420.928 120.972 422.601 127.817C420.326 121.1 419.562 113.911 419.785 106.797C420.205 99.7343 420.456 92.6963 419.102 85.8403C418.279 81.5953 416.878 77.4153 414.475 73.8343C413.064 71.6213 411.18 69.8773 409.328 67.9633C404.589 62.8383 398.88 57.9033 396.659 51.0753" fill="#182e35" fill-rule="evenodd" opacity="1" stroke="none"/>
<path d="M501.168 231.421C497.358 231.342 485.631 231.524 473.548 226.309C463.003 221.759 451.482 212.332 445.859 207.094C445.717 206.962 445.836 206.761 446.005 206.864C451.957 210.454 462.762 218.866 473.933 223.857C485.612 229.076 497.61 230.806 501.165 231.155C501.348 231.173 501.347 231.425 501.168 231.421" fill="#182e35" fill-rule="evenodd" opacity="1" stroke="none"/>
<path d="M312.385 266.889C312.385 266.889 350.76 299.782 363.597 296.166C376.434 292.55 367.393 251.385 367.393 251.385C367.393 251.385 336.363 241.367 312.385 266.889" fill="#ffaba1" fill-rule="evenodd" opacity="1" stroke="none"/>
<path d="M332.389 263.129C332.69 266.539 345.376 290.196 360.542 291.629C365.482 292.087 369.197 265.201 369.197 265.201L369.925 263.279L380.085 236.365L350.455 210.782L346.136 207.339C346.136 207.339 343.841 214.886 341.078 224.312C340.947 224.748 340.816 225.185 340.683 225.654C340.513 226.183 340.346 226.681 340.21 227.181C339.779 228.583 339.345 230.018 338.942 231.456C338.632 232.549 338.324 233.61 338.04 234.769C337.724 235.926 337.442 237.053 337.126 238.21C334.263 249.672 332.281 261.684 332.389 263.129" fill="#ffaba1" fill-rule="evenodd" opacity="1" stroke="none"/>
<path d="M341.078 224.311C345.885 247.563 362.253 259.089 369.926 263.279L380.086 236.364L350.455 210.781L346.136 207.338C346.136 207.338 343.841 214.885 341.078 224.311" fill="#182e35" fill-rule="evenodd" opacity="1" stroke="none"/>
<path d="M424.003 199.621C418.695 249.828 388.055 252.343 377.241 251.195C367.424 250.153 334.13 245.357 334.227 194.875C334.324 144.393 359.322 130.97 381.901 132.164C404.481 133.357 429.311 149.414 424.003 199.621" fill="#ffaba1" fill-rule="evenodd" opacity="1" stroke="none"/>
<path d="M338.235 197.822C347.121 200.831 353.715 180.412 353.715 180.412C353.715 180.412 393.921 181.738 403.66 150.764C403.66 150.764 406.214 172.291 424.711 185.565C424.711 185.565 431.023 146.297 404.285 138.256C404.285 138.256 370.617 118.247 345.914 141.423C321.212 164.6 332.27 195.802 338.235 197.822" fill="#182e35" fill-rule="evenodd" opacity="1" stroke="none"/>
<path d="M404.273 148.452C403.811 153.385 402.096 158.197 399.597 162.545C397.099 166.892 393.744 170.832 389.66 173.83C388.701 174.66 387.549 175.217 386.502 175.921L384.895 176.923C384.335 177.211 383.759 177.47 383.185 177.731C382.032 178.239 380.899 178.796 379.732 179.257C378.537 179.643 377.332 180.002 376.128 180.347C375.526 180.515 374.931 180.712 374.324 180.857L372.476 181.17L368.793 181.786C366.313 181.962 363.827 182.01 361.369 182.022C363.799 181.502 366.235 181.237 368.615 180.701L372.152 179.789L373.913 179.339C374.488 179.149 375.047 178.91 375.613 178.699C376.74 178.258 377.866 177.83 379.002 177.43C380.099 176.941 381.154 176.36 382.231 175.832L383.839 175.03L385.347 174.056C386.328 173.373 387.414 172.836 388.309 172.038C392.207 169.247 395.399 165.588 398.136 161.639C399.497 159.648 400.669 157.522 401.689 155.317C402.755 153.124 403.592 150.825 404.273 148.452" fill="#182e35" fill-rule="evenodd" opacity="1" stroke="none"/>
<path d="M418.539 197.996C417.354 198.018 416.257 197.84 415.083 197.739C413.758 197.627 412.692 197.672 411.609 196.806C411.028 196.34 410.923 195.252 411.321 194.645C412.25 193.233 413.907 192.968 415.508 193.039C417.245 193.116 418.563 193.62 419.859 194.774C421.114 195.893 420.102 197.968 418.539 197.996" fill="#182e35" fill-rule="evenodd" opacity="1" stroke="none"/>
<path d="M384.902 185.863C386.03 186.226 387.132 186.372 388.285 186.616C389.586 186.891 390.594 187.244 391.88 186.727C392.571 186.45 392.987 185.438 392.78 184.742C392.3 183.121 390.791 182.389 389.238 181.994C387.553 181.565 386.145 181.666 384.571 182.396C383.046 183.104 383.414 185.384 384.902 185.863" fill="#182e35" fill-rule="evenodd" opacity="1" stroke="none"/>
<path d="M391.255 200.137C391.247 200.005 390.968 200.26 390.952 200.399C390.579 203.796 389.581 207.625 386.362 208.313C386.262 208.335 386.247 208.506 386.363 208.506C390.172 208.51 391.446 203.415 391.255 200.137" fill="#182e35" fill-rule="evenodd" opacity="1" stroke="none"/>
<path d="M388.736 196.176C383.355 194.99 381.38 205.841 386.366 206.939C391.272 208.019 393.247 197.169 388.736 196.176" fill="#182e35" fill-rule="evenodd" opacity="1" stroke="none"/>
<path d="M386.501 196.361C385.441 196.803 384.316 197.718 383.153 197.622C381.807 197.513 381.016 196.195 380.351 194.946C380.282 194.816 380.171 194.893 380.142 195.037C379.733 197.11 380.144 199.388 382.317 200.103C384.298 200.756 386.093 199.181 386.992 197.186C387.16 196.817 386.927 196.183 386.501 196.361" fill="#182e35" fill-rule="evenodd" opacity="1" stroke="none"/>
<path d="M409.75 202.466C409.805 202.345 409.974 202.683 409.939 202.819C409.066 206.123 408.623 210.055 411.379 211.854C411.465 211.91 411.417 212.075 411.309 212.034C407.753 210.67 408.394 205.457 409.75 202.466" fill="#182e35" fill-rule="evenodd" opacity="1" stroke="none"/>
<path d="M413.524 199.675C418.972 200.502 416.917 211.337 411.87 210.571C406.903 209.816 408.957 198.981 413.524 199.675" fill="#182e35" fill-rule="evenodd" opacity="1" stroke="none"/>
<path d="M415.648 200.816C416.395 201.553 417.043 202.756 418.054 203.018C419.224 203.321 420.323 202.315 421.294 201.335C421.394 201.234 421.463 201.34 421.439 201.484C421.104 203.567 420.009 205.593 417.945 205.614C416.062 205.632 415.065 203.602 414.963 201.446C414.944 201.046 415.347 200.519 415.648 200.816" fill="#182e35" fill-rule="evenodd" opacity="1" stroke="none"/>
<path d="M381.304 226.74C381.885 227.726 382.385 229.002 383.555 229.426C384.676 229.833 386.161 229.678 387.324 229.555C387.439 229.543 387.515 229.682 387.421 229.763C386.223 230.797 384.207 231.102 382.751 230.422C381.329 229.757 380.939 228.267 380.947 226.804C380.947 226.598 381.219 226.596 381.304 226.74" fill="#182e35" fill-rule="evenodd" opacity="1" stroke="none"/>
<path d="M384.265 221.987C395.006 222.064 399.976 225.159 400.098 224.787L400.862 216.766C401.766 217.39 406.408 220.315 406.525 218.913C407.453 207.312 408.324 196.417 406.798 184.676C406.767 184.285 406.175 184.292 406.154 184.675C404.821 195.79 405.613 205.057 404.452 216.244C402.954 215.422 400.531 213.947 399.135 213.779C398.742 213.836 398.449 220.767 398.328 221.612C398.328 221.612 390.073 219.75 384.627 221.154C382.761 221.635 381.917 221.97 384.265 221.987" fill="#182e35" fill-rule="evenodd" opacity="1" stroke="none"/>
<path d="M385.963 186.272C384.869 186.003 383.722 185.865 382.545 185.876C374.911 185.941 368.755 192.207 368.818 199.841C368.887 207.473 375.153 213.639 382.783 213.565C390.418 213.497 396.573 207.233 396.51 199.599C396.452 193.145 391.965 187.745 385.963 186.272M378.855 215.244C371.93 213.544 366.747 207.312 366.682 199.86C366.607 191.046 373.714 183.816 382.525 183.739C391.339 183.662 398.568 190.768 398.646 199.581L398.645 199.582C398.721 208.392 391.615 215.623 382.803 215.702C381.442 215.713 380.12 215.555 378.855 215.244" fill="#2b454e" fill-rule="evenodd" opacity="1" stroke="none"/>
<path d="M420.784 190.316C420.522 190.252 420.256 190.202 419.986 190.169C417.465 189.855 414.898 190.942 412.758 193.227C410.536 195.607 409.054 198.971 408.588 202.702C407.649 210.279 411.208 216.985 416.57 217.646C421.91 218.311 427.021 212.686 427.965 205.113C428.429 201.381 427.816 197.756 426.242 194.903C424.892 192.456 422.975 190.854 420.784 190.316M415.276 219.577C409.337 218.12 405.441 210.715 406.469 202.44C406.987 198.264 408.668 194.473 411.2 191.769C413.815 188.968 417.03 187.648 420.249 188.048C423.482 188.443 426.261 190.516 428.114 193.871C429.904 197.116 430.605 201.201 430.084 205.375C428.995 214.119 422.815 220.575 416.307 219.768C415.956 219.723 415.614 219.66 415.276 219.577" fill="#2b454e" fill-rule="evenodd" opacity="1" stroke="none"/>
<path d="M397.885 201.35L396.723 199.556C399.38 197.835 405.28 195.81 408.638 200.436L406.908 201.691C403.907 197.542 398.129 201.195 397.885 201.35" fill="#2b454e" fill-rule="evenodd" opacity="1" stroke="none"/>
<path d="M326.712 196.645L324.949 195.437C325.515 194.616 330.592 187.403 335.423 187.222C339.937 187.067 368.028 193.264 369.22 193.529L368.758 195.614C360.705 193.83 338.99 189.227 335.504 189.358C332.314 189.476 328.077 194.658 326.712 196.645" fill="#2b454e" fill-rule="evenodd" opacity="1" stroke="none"/>
<path d="M342.826 199.568C342.826 199.568 335.025 182.005 327.263 184.505C319.503 187.004 323.273 211.003 330.91 215.665C338.546 220.327 343.003 213.332 343.003 213.332L342.826 199.568Z" fill="#ffaba1" fill-rule="evenodd" opacity="1" stroke="none"/>
<path d="M328.515 191.357C328.385 191.319 328.324 191.501 328.429 191.569C333.747 195.028 335.745 200.974 336.795 206.942C335.493 204.472 333.383 202.847 330.125 204.338C329.954 204.416 330.052 204.68 330.221 204.677C332.684 204.628 334.31 205.369 335.539 207.574C336.41 209.135 336.853 210.982 337.363 212.689C337.532 213.258 338.518 213.162 338.437 212.529C338.431 212.483 338.422 212.434 338.416 212.386C339.992 205.046 336.273 193.629 328.515 191.357" fill="#182e35" fill-rule="evenodd" opacity="1" stroke="none"/>
<path d="M410.047 237.931C412.994 233.484 416.006 228.846 418.282 224.024C416.932 229.299 413.835 234.069 410.047 237.931" fill="#182e35" fill-rule="evenodd" opacity="1" stroke="none"/>
<g opacity="1">
<clipPath id="ClipPath_5">
<path d="M0 0L750 0L750 500L0 500L0 0Z" fill-rule="evenodd"/>
</clipPath>
<g clip-path="url(#ClipPath_5)">
<path d="M257.364 157.115C271.576 130.612 296.281 109.819 324.769 100.186C340.637 94.925 357.604 93.045 374.268 94.238C380.814 94.633 387.661 95.747 394.107 96.877C388.36 95.983 382.556 95.259 376.734 94.83C375.135 94.739 370.927 94.609 369.249 94.534C351.009 94.216 332.531 97.334 315.8 104.726C291.434 115.297 270.571 134.076 257.364 157.115" fill="#182e35" fill-rule="evenodd" opacity="1" stroke="none"/>
<path d="M254.842 137.489C265.625 121.719 282.442 110.22 300.667 104.768C302.951 104.021 306.259 103.423 308.615 102.846C287.637 108.36 268.278 120.352 254.842 137.489" fill="#182e35" fill-rule="evenodd" opacity="1" stroke="none"/>
<path d="M289.797 134.496C298.207 120.788 311.672 110.263 326.721 104.739C328.864 103.926 331.107 103.381 333.303 102.735C329.002 104.32 324.721 105.923 320.705 108.093C308.573 114.332 297.841 123.461 289.797 134.496" fill="#182e35" fill-rule="evenodd" opacity="1" stroke="none"/>
</g>
</g>
<g opacity="1">
<clipPath id="ClipPath_6">
<path d="M0 0L750 0L750 500L0 500L0 0Z" fill-rule="evenodd"/>
</clipPath>
<g clip-path="url(#ClipPath_6)">
<g opacity="0.5">
<clipPath id="ClipPath_7">
<path d="M128.704 440.643L180.824 440.643L180.824 381.948L128.704 381.948L128.704 440.643Z" fill-rule="evenodd"/>
</clipPath>
<g clip-path="url(#ClipPath_7)">
<path d="M179.208 399.114C184.697 414.369 174.44 424.36 174.44 424.36C174.551 427.006 175.952 433.231 175.952 433.231L159.578 440.642C159.578 440.642 155.826 435.482 153.911 433.652C153.911 433.652 139.636 434.766 131.796 420.575C126.349 410.714 126.788 392.294 143.936 384.528L144.113 384.448C161.264 376.689 175.394 388.514 179.208 399.114" fill="#ffc800" fill-rule="evenodd" opacity="1" stroke="none"/>
</g>
</g>
<g opacity="0.699997">
<clipPath id="ClipPath_8">
<path d="M131.025 440.326L178.695 440.326L178.695 384.404L131.025 384.404L131.025 440.326Z" fill-rule="evenodd"/>
</clipPath>
<g clip-path="url(#ClipPath_8)">
<path d="M177.218 400.104C182.238 414.057 172.857 423.195 172.857 423.195C172.958 425.615 175.253 433.547 175.253 433.547L160.277 440.326C160.277 440.326 155.832 433.367 154.081 431.694C154.081 431.694 141.024 432.712 133.854 419.733C128.871 410.714 129.273 393.866 144.957 386.764L145.119 386.69C160.806 379.593 173.73 390.409 177.218 400.104" fill="#ffc800" fill-rule="evenodd" opacity="1" stroke="none"/>
</g>
</g>
</g>
</g>
<path d="M163.925 440.472L147.442 416.871L148.423 416.186L164.905 439.787L163.925 440.472Z" fill="#182e35" fill-rule="evenodd" opacity="1" stroke="none"/>
<path d="M172.963 436.38L171.802 436.665L164.937 408.709L166.098 408.424L172.963 436.38Z" fill="#182e35" fill-rule="evenodd" opacity="1" stroke="none"/>
<g opacity="1">
<clipPath id="ClipPath_9">
<path d="M0 0L750 0L750 500L0 500L0 0Z" fill-rule="evenodd"/>
</clipPath>
<g clip-path="url(#ClipPath_9)">
<path d="M152.418 412.918L152.418 412.918C151.495 413.336 151.873 414.538 152.181 415.218C152.744 416.462 153.88 417.87 155.193 418.978C155.217 418.838 155.237 418.692 155.252 418.539C155.443 416.606 154.842 413.869 153.674 413.032C153.282 412.75 152.871 412.713 152.418 412.918M159.466 409.727C158.448 410.187 158.704 411.714 159.233 412.882C159.814 414.163 160.992 415.649 162.342 416.29C162.365 414.546 161.992 412.658 161.374 411.294C161.1 410.688 160.364 409.32 159.466 409.727M160.596 421.094C159.132 421.757 157.17 421.002 155.435 419.687C155.216 420.394 154.861 420.879 154.396 421.089C151.988 422.18 148.763 417.635 148.627 417.441L148.953 417.212C148.984 417.257 152.122 421.681 154.232 420.726C154.616 420.552 154.916 420.092 155.097 419.422C153.67 418.261 152.436 416.747 151.818 415.382C151.19 413.995 151.348 412.965 152.253 412.555L152.254 412.555L152.254 412.555C152.831 412.294 153.402 412.347 153.906 412.708C155.203 413.638 155.854 416.494 155.648 418.578C155.624 418.821 155.59 419.05 155.545 419.264C157.202 420.563 159.079 421.343 160.431 420.731C161.664 420.172 162.233 418.553 162.328 416.705C160.908 416.103 159.6 414.657 158.87 413.046C158.062 411.261 158.227 409.85 159.301 409.364C160.164 408.973 161.052 409.617 161.738 411.13C162.394 412.58 162.775 414.639 162.729 416.449C163.372 416.669 164.044 416.684 164.701 416.387C166.202 415.707 165.908 411.554 165.668 410.011L166.062 409.949C166.099 410.188 166.948 415.807 164.866 416.75L164.865 416.75C164.168 417.066 163.431 417.069 162.712 416.846C162.578 419.03 161.829 420.536 160.596 421.094" fill="#182e35" fill-rule="evenodd" opacity="1" stroke="none"/>
<path d="M183.14 443.604L162.628 452.889L157.518 441.6L178.03 432.315L183.14 443.604Z" fill="#c8c8c8" fill-rule="evenodd" opacity="1" stroke="none"/>
<path d="M180.814 444.655C180.576 447.34 179.129 450.3 174.718 452.297C170.307 454.294 167.127 453.427 164.953 451.834L180.814 444.655Z" fill="#c8c8c8" fill-rule="evenodd" opacity="1" stroke="none"/>
<path d="M180.814 444.655C180.746 445.423 180.579 446.21 180.27 446.992L165.658 452.301C165.411 452.154 165.177 452.001 164.953 451.834L180.814 444.655Z" fill="#a7a8a7" fill-rule="evenodd" opacity="1" stroke="none"/>
<path d="M179.605 434.196L158.802 446.031L158.356 445.046L179.159 433.211L179.605 434.196Z" fill="#a7a8a7" fill-rule="evenodd" opacity="1" stroke="none"/>
<path d="M180.954 437.176L160.151 449.011L159.705 448.026L180.508 436.191L180.954 437.176Z" fill="#a7a8a7" fill-rule="evenodd" opacity="1" stroke="none"/>
<path d="M182.302 440.156L161.499 451.991L161.053 451.006L181.856 439.171L182.302 440.156Z" fill="#a7a8a7" fill-rule="evenodd" opacity="1" stroke="none"/>
<g opacity="0.5">
<clipPath id="ClipPath_10">
<path d="M133.585 418.094L176.316 418.094L176.316 392.823L133.585 392.823L133.585 418.094Z" fill-rule="evenodd"/>
</clipPath>
<g clip-path="url(#ClipPath_10)">
<path d="M135.406 414.796C136.215 414.581 135.432 410.26 137.572 403.879C138.523 401.044 144.425 395.364 142.876 393.29C141.327 391.216 136.124 396.425 134.624 401.51C132.208 409.693 134.661 414.993 135.406 414.796" fill="#ffffff" fill-rule="evenodd" opacity="1" stroke="none"/>
<path d="M172.776 398.855C174.159 398.229 173.188 396.078 171.803 396.705C170.42 397.331 171.391 399.482 172.776 398.855" fill="#ffffff" fill-rule="evenodd" opacity="1" stroke="none"/>
<path d="M173.326 418.086C174.343 418.32 176.481 413.272 176.307 408.481C176.162 404.505 174.479 400.156 173.444 400.329C172.409 400.501 174.443 406.591 174.303 409.237C174.125 412.576 172.239 417.836 173.326 418.086" fill="#ffffff" fill-rule="evenodd" opacity="1" stroke="none"/>
</g>
</g>
<g opacity="0.199997">
<clipPath id="ClipPath_11">
<path d="M87.0728 452.792L145.172 452.792L145.172 400.66L87.0728 400.66L87.0728 452.792Z" fill-rule="evenodd"/>
</clipPath>
<g clip-path="url(#ClipPath_11)">
<path d="M104.347 448.35C90.9847 439.169 93.4797 425.069 93.4797 425.069C91.8447 422.985 87.0727 418.75 87.0727 418.75L96.0397 403.174C96.0397 403.174 102.099 405.173 104.722 405.54C104.722 405.54 115.662 396.302 130.312 403.247C140.491 408.072 150.888 423.284 141.5 439.6L141.402 439.769C132.008 456.081 113.632 454.729 104.347 448.35" fill="#ffc800" fill-rule="evenodd" opacity="1" stroke="none"/>
</g>
</g>
<g opacity="0.300003">
<clipPath id="ClipPath_12">
<path d="M87.4555 450.446L142.724 450.446L142.724 402.766L87.4555 402.766L87.4555 450.446Z" fill-rule="evenodd"/>
</clipPath>
<g clip-path="url(#ClipPath_12)">
<path d="M105.384 446.384C93.1625 437.987 95.4455 425.091 95.4455 425.091C93.9495 423.185 87.4555 418.085 87.4555 418.085L95.6565 403.838C95.6565 403.838 103.328 406.893 105.727 407.229C105.727 407.229 115.733 398.779 129.132 405.131C138.442 409.545 147.952 423.458 139.365 438.381L139.276 438.536C130.683 453.455 113.876 452.219 105.384 446.384" fill="#ffc800" fill-rule="evenodd" opacity="1" stroke="none"/>
</g>
</g>
<path d="M92.6098 405.849L119.771 415.388L119.375 416.516L92.2138 406.977L92.6098 405.849Z" fill="#182e35" fill-rule="evenodd" opacity="1" stroke="none"/>
<path d="M87.6613 414.449L88.4373 413.54L110.332 432.23L109.556 433.139L87.6613 414.449Z" fill="#182e35" fill-rule="evenodd" opacity="1" stroke="none"/>
<path d="M118.039 421.502L118.039 421.502C118.544 420.624 117.536 419.868 116.889 419.496C115.705 418.815 113.962 418.335 112.248 418.202C112.31 418.33 112.38 418.46 112.457 418.593C113.43 420.274 115.516 422.145 116.953 422.143C117.436 422.142 117.791 421.933 118.039 421.502M114.18 428.208C114.738 427.24 113.638 426.149 112.527 425.51C111.307 424.809 109.483 424.291 108.014 424.558C109.012 425.987 110.417 427.302 111.715 428.049C112.293 428.381 113.689 429.062 114.18 428.208M106.626 419.638C107.428 418.245 109.461 417.713 111.637 417.768C111.403 417.066 111.408 416.465 111.662 416.023C112.981 413.731 118.253 415.539 118.477 415.617L118.345 415.993C118.294 415.975 113.163 414.215 112.008 416.221L112.008 416.222C111.797 416.587 111.823 417.136 112.067 417.786C113.903 417.895 115.789 418.404 117.088 419.151C118.407 419.91 118.88 420.84 118.385 421.701L118.384 421.701L118.384 421.701C118.068 422.25 117.574 422.541 116.953 422.542C115.358 422.544 113.161 420.605 112.112 418.793C111.989 418.581 111.884 418.375 111.796 418.175C109.692 418.088 107.713 418.55 106.972 419.837C106.297 421.01 106.78 422.657 107.782 424.213C109.287 423.872 111.193 424.283 112.726 425.165C114.424 426.142 115.114 427.384 114.526 428.406C114.053 429.228 112.956 429.223 111.516 428.394C110.137 427.601 108.625 426.151 107.606 424.655C106.955 424.852 106.401 425.232 106.041 425.856C106.041 425.857 106.041 425.856 106.041 425.857C105.219 427.285 107.883 430.485 108.979 431.598L108.695 431.878C108.525 431.706 104.556 427.639 105.696 425.658L105.696 425.657C106.078 424.995 106.674 424.561 107.388 424.322C106.223 422.471 105.951 420.811 106.626 419.638" fill="#182e35" fill-rule="evenodd" opacity="1" stroke="none"/>
<path d="M75.1813 414.525L86.4143 395.012L97.1533 401.194L85.9203 420.707L75.1813 414.525Z" fill="#c8c8c8" fill-rule="evenodd" opacity="1" stroke="none"/>
<path d="M76.4555 412.313C75.0815 409.994 74.5275 406.746 76.9435 402.549C79.3595 398.353 82.4465 397.2 85.1415 397.224L76.4555 412.313Z" fill="#c8c8c8" fill-rule="evenodd" opacity="1" stroke="none"/>
<path d="M76.4555 412.313C76.0625 411.65 75.7385 410.913 75.5325 410.098L84.2965 397.257C84.5835 397.232 84.8635 397.22 85.1415 397.224L76.4555 412.313Z" fill="#a7a8a7" fill-rule="evenodd" opacity="1" stroke="none"/>
<path d="M83.5438 420.099L93.5238 398.345L94.4608 398.885L84.4808 420.638L83.5438 420.099Z" fill="#a7a8a7" fill-rule="evenodd" opacity="1" stroke="none"/>
<path d="M80.7089 418.467L90.6889 396.713L91.6259 397.253L81.6459 419.006L80.7089 418.467Z" fill="#a7a8a7" fill-rule="evenodd" opacity="1" stroke="none"/>
<path d="M77.8739 416.835L87.8539 395.081L88.7909 395.621L78.8109 417.374L77.8739 416.835Z" fill="#a7a8a7" fill-rule="evenodd" opacity="1" stroke="none"/>
<g opacity="0.5">
<clipPath id="ClipPath_13">
<path d="M97.722 446.559L139.979 446.559L139.979 409.971L97.722 409.971L97.722 446.559Z" fill-rule="evenodd"/>
</clipPath>
<g clip-path="url(#ClipPath_13)">
<path d="M130.754 410.046C130.223 410.692 133.381 413.744 135.369 420.174C136.252 423.031 134.776 431.088 137.244 431.868C139.713 432.647 140.896 425.381 139.146 420.376C136.33 412.322 131.243 409.451 130.754 410.046" fill="#ffffff" fill-rule="evenodd" opacity="1" stroke="none"/>
<path d="M109.72 444.806C108.963 446.122 111.006 447.301 111.765 445.983C112.523 444.667 110.479 443.488 109.72 444.806" fill="#ffffff" fill-rule="evenodd" opacity="1" stroke="none"/>
<path d="M98.0465 429.513C97.0845 429.917 98.2955 435.263 101.235 439.051C103.673 442.195 107.579 444.743 108.318 443.999C109.058 443.254 103.851 439.498 102.42 437.268C100.615 434.453 99.0755 429.081 98.0465 429.513" fill="#ffffff" fill-rule="evenodd" opacity="1" stroke="none"/>
</g>
</g>
<g opacity="0.199997">
<clipPath id="ClipPath_14">
<path d="M169.228 423.674L225.312 423.674L225.312 370.162L169.228 370.162L169.228 423.674Z" fill-rule="evenodd"/>
</clipPath>
<g clip-path="url(#ClipPath_14)">
<path d="M180.778 416.096C169.327 404.619 174.366 391.216 174.366 391.216C173.141 388.868 169.228 383.829 169.228 383.829L180.9 370.162C180.9 370.162 186.49 373.239 189.001 374.082C189.001 374.082 201.45 367.007 214.577 376.522C223.698 383.133 231.128 399.994 218.905 414.311L218.779 414.459C206.551 428.771 188.735 424.07 180.778 416.096" fill="#ffc800" fill-rule="evenodd" opacity="1" stroke="none"/>
</g>
</g>
<g opacity="0.300003">
<clipPath id="ClipPath_15">
<path d="M169.726 421.285L222.891 421.285L222.891 370.746L169.726 370.746L169.726 421.285Z" fill-rule="evenodd"/>
</clipPath>
<g clip-path="url(#ClipPath_15)">
<path d="M182.159 414.354C171.685 403.857 176.295 391.599 176.295 391.599C175.174 389.451 169.726 383.246 169.726 383.246L180.402 370.746C180.402 370.746 187.383 375.156 189.68 375.927C189.68 375.927 201.066 369.456 213.072 378.158C221.415 384.205 228.21 399.627 217.031 412.721L216.916 412.857C205.731 425.947 189.436 421.648 182.159 414.354" fill="#ffc800" fill-rule="evenodd" opacity="1" stroke="none"/>
</g>
</g>
<path d="M177.038 372.164L201.988 386.524L201.391 387.561L176.442 373.2L177.038 372.164Z" fill="#182e35" fill-rule="evenodd" opacity="1" stroke="none"/>
<path d="M170.596 379.709L171.526 378.958L189.62 401.347L188.69 402.099L170.596 379.709Z" fill="#182e35" fill-rule="evenodd" opacity="1" stroke="none"/>
<path d="M199.163 392.216L199.163 392.216C199.821 391.445 198.968 390.518 198.401 390.033C197.362 389.146 195.736 388.355 194.076 387.91C194.113 388.047 194.158 388.187 194.209 388.332C194.858 390.163 196.565 392.385 197.978 392.647C198.452 392.735 198.84 392.594 199.163 392.216M194.14 398.1C194.865 397.25 193.984 395.977 193.009 395.145C191.939 394.231 190.241 393.388 188.747 393.38C189.467 394.969 190.607 396.519 191.745 397.492C192.252 397.924 193.499 398.85 194.14 398.1M188.286 388.29C189.33 387.068 191.425 386.917 193.555 387.37C193.453 386.638 193.569 386.048 193.9 385.66C195.616 383.649 200.467 386.393 200.673 386.511L200.475 386.857C200.427 386.829 195.707 384.158 194.203 385.918L194.203 385.919C193.929 386.239 193.853 386.783 193.974 387.467C195.759 387.911 197.52 388.757 198.659 389.73C199.817 390.719 200.111 391.719 199.466 392.474L199.466 392.475L199.466 392.475C199.054 392.957 198.515 393.152 197.905 393.039C196.336 392.748 194.533 390.439 193.834 388.465C193.752 388.235 193.686 388.013 193.636 387.8C191.584 387.329 189.553 387.42 188.589 388.549C187.71 389.578 187.883 391.286 188.583 392.999C190.125 392.941 191.923 393.694 193.268 394.842C194.758 396.114 195.208 397.462 194.443 398.359C193.827 399.079 192.75 398.874 191.487 397.795C190.276 396.761 189.056 395.059 188.329 393.401C187.653 393.475 187.038 393.747 186.57 394.295C185.5 395.549 187.531 399.184 188.404 400.478L188.074 400.701C187.939 400.501 184.783 395.775 186.267 394.037L186.267 394.036C186.764 393.455 187.43 393.138 188.176 393.035C187.369 391.001 187.407 389.32 188.286 388.29" fill="#182e35" fill-rule="evenodd" opacity="1" stroke="none"/>
<path d="M158.314 377.494L172.936 360.373L182.359 368.421L167.737 385.542L158.314 377.494Z" fill="#c8c8c8" fill-rule="evenodd" opacity="1" stroke="none"/>
<path d="M159.972 375.554C159.047 373.022 159.098 369.728 162.243 366.046C165.388 362.364 168.634 361.797 171.279 362.315L159.972 375.554Z" fill="#c8c8c8" fill-rule="evenodd" opacity="1" stroke="none"/>
<path d="M159.972 375.554C159.707 374.83 159.523 374.046 159.471 373.207L170.442 362.192C170.729 362.22 171.006 362.259 171.279 362.315L159.972 375.554Z" fill="#a7a8a7" fill-rule="evenodd" opacity="1" stroke="none"/>
<path d="M165.512 384.508L179.314 364.955L180.136 365.657L166.334 385.21L165.512 384.508Z" fill="#a7a8a7" fill-rule="evenodd" opacity="1" stroke="none"/>
<path d="M163.024 382.383L176.826 362.83L177.648 363.532L163.846 383.085L163.024 382.383Z" fill="#a7a8a7" fill-rule="evenodd" opacity="1" stroke="none"/>
<path d="M160.537 380.259L174.339 360.706L175.161 361.408L161.359 380.961L160.537 380.259Z" fill="#a7a8a7" fill-rule="evenodd" opacity="1" stroke="none"/>
<g opacity="0.5">
<clipPath id="ClipPath_16">
<path d="M177.452 415.541L220.272 415.541L220.272 383.244L177.452 383.244L177.452 415.541Z" fill-rule="evenodd"/>
</clipPath>
<g clip-path="url(#ClipPath_16)">
<path d="M213.765 383.287C213.124 383.825 215.669 387.404 216.444 394.09C216.788 397.06 213.858 404.71 216.142 405.929C218.425 407.148 220.921 400.223 220.119 394.982C218.828 386.548 214.355 382.792 213.765 383.287" fill="#ffffff" fill-rule="evenodd" opacity="1" stroke="none"/>
<path d="M186.711 413.598C185.725 414.753 187.518 416.287 188.505 415.13C189.491 413.976 187.699 412.441 186.711 413.598" fill="#ffffff" fill-rule="evenodd" opacity="1" stroke="none"/>
<path d="M178.041 396.422C177.021 396.642 177.231 402.12 179.424 406.383C181.245 409.921 184.617 413.142 185.48 412.546C186.344 411.95 181.914 407.302 180.917 404.848C179.659 401.749 179.131 396.186 178.041 396.422" fill="#ffffff" fill-rule="evenodd" opacity="1" stroke="none"/>
</g>
</g>
<g opacity="0.5">
<clipPath id="ClipPath_17">
<path d="M66.123 465.517L125.047 465.517L125.047 413.406L66.123 413.406L66.123 465.517Z" fill-rule="evenodd"/>
</clipPath>
<g clip-path="url(#ClipPath_17)">
<path d="M100.208 414.597C115.6 419.69 117.133 433.927 117.133 433.927C119.284 435.472 125.047 438.21 125.047 438.21L120.777 455.668C120.777 455.668 114.401 455.437 111.78 455.815C111.78 455.815 103.848 467.736 87.8427 465.15C76.7217 463.352 62.4977 451.641 66.9657 433.355L67.0127 433.166C71.4887 414.882 89.5127 411.058 100.208 414.597" fill="#ffc800" fill-rule="evenodd" opacity="1" stroke="none"/>
</g>
</g>
<g opacity="0.699997">
<clipPath id="ClipPath_18">
<path d="M68.5841 463.347L124.865 463.347L124.865 415.685L68.5841 415.685L68.5841 463.347Z" fill-rule="evenodd"/>
</clipPath>
<g clip-path="url(#ClipPath_18)">
<path d="M99.7589 416.775C113.837 421.433 115.239 434.454 115.239 434.454C117.207 435.868 124.865 438.956 124.865 438.956L120.959 454.924C120.959 454.924 112.74 454.128 110.343 454.474C110.343 454.474 103.088 465.378 88.4499 463.012C78.2779 461.368 65.2679 450.657 69.3549 433.932L69.3969 433.759C73.4909 417.035 89.9769 413.538 99.7589 416.775" fill="#ffc800" fill-rule="evenodd" opacity="1" stroke="none"/>
</g>
</g>
<path d="M123.325 452.143L94.5818 450.552L94.6478 449.358L123.391 450.949L123.325 452.143Z" fill="#182e35" fill-rule="evenodd" opacity="1" stroke="none"/>
<path d="M125.681 442.505L125.189 443.595L98.9526 431.748L99.4446 430.658L125.681 442.505Z" fill="#182e35" fill-rule="evenodd" opacity="1" stroke="none"/>
<path d="M94.541 444.197L94.541 444.197C94.3 445.181 95.48 445.626 96.204 445.803C97.531 446.127 99.34 446.102 101.022 445.752C100.927 445.647 100.824 445.541 100.713 445.435C99.309 444.092 96.785 442.876 95.405 443.279C94.942 443.414 94.659 443.714 94.541 444.197M96.378 436.682C96.113 437.767 97.473 438.507 98.718 438.811C100.084 439.145 101.98 439.134 103.318 438.468C101.96 437.374 100.244 436.502 98.79 436.147C98.142 435.989 96.612 435.724 96.378 436.682M106.021 442.806C105.639 444.367 103.835 445.445 101.73 445.999C102.15 446.608 102.313 447.187 102.192 447.682C101.564 450.25 95.998 449.983 95.761 449.971L95.782 449.573C95.837 449.576 101.255 449.837 101.805 447.588L101.805 447.587C101.905 447.178 101.728 446.658 101.312 446.102C99.519 446.508 97.565 446.545 96.11 446.19C94.631 445.828 93.918 445.068 94.154 444.103L94.154 444.102C94.154 444.102 94.154 444.103 94.154 444.102C94.305 443.487 94.699 443.07 95.294 442.896C96.826 442.449 99.475 443.699 100.988 445.147C101.165 445.316 101.324 445.485 101.464 445.652C103.509 445.149 105.281 444.153 105.633 442.712L105.634 442.711C105.955 441.396 105.032 439.95 103.636 438.735C102.286 439.481 100.341 439.618 98.623 439.198C96.719 438.733 95.711 437.733 95.991 436.587C96.216 435.667 97.27 435.365 98.884 435.76C100.43 436.138 102.286 437.109 103.682 438.261C104.252 437.891 104.678 437.371 104.85 436.671C105.241 435.07 101.791 432.739 100.428 431.976L100.623 431.628C100.834 431.746 105.78 434.546 105.237 436.765L105.237 436.766C105.055 437.509 104.603 438.091 103.984 438.52C105.619 439.973 106.342 441.491 106.021 442.806" fill="#182e35" fill-rule="evenodd" opacity="1" stroke="none"/>
<path d="M137.645 438.953L132.296 460.824L120.259 457.879L125.608 436.009L137.645 438.953Z" fill="#c8c8c8" fill-rule="evenodd" opacity="1" stroke="none"/>
<path d="M137.038 441.433C139.004 443.277 140.441 446.242 139.291 450.946C138.14 455.649 135.497 457.616 132.901 458.345L137.038 441.433Z" fill="#c8c8c8" fill-rule="evenodd" opacity="1" stroke="none"/>
<path d="M137.038 441.433C137.6 441.96 138.117 442.577 138.542 443.303L133.704 458.078C133.436 458.182 133.17 458.271 132.902 458.345L137.038 441.433Z" fill="#a7a8a7" fill-rule="evenodd" opacity="1" stroke="none"/>
<path d="M128.06 435.931L124.538 459.604L123.488 459.348L127.01 435.674L128.06 435.931Z" fill="#a7a8a7" fill-rule="evenodd" opacity="1" stroke="none"/>
<path d="M131.238 436.708L127.716 460.381L126.666 460.125L130.188 436.451L131.238 436.708Z" fill="#a7a8a7" fill-rule="evenodd" opacity="1" stroke="none"/>
<path d="M134.415 437.485L130.893 461.158L129.843 460.902L133.365 437.228L134.415 437.485Z" fill="#a7a8a7" fill-rule="evenodd" opacity="1" stroke="none"/>
<g opacity="0.5">
<clipPath id="ClipPath_19">
<path d="M71.6883 458.911L111.655 458.911L111.655 418.072L71.6883 418.072L71.6883 458.911Z" fill-rule="evenodd"/>
</clipPath>
<g clip-path="url(#ClipPath_19)">
<path d="M85.5225 458.743C85.8525 457.974 81.9685 455.924 78.2675 450.303C76.6225 447.805 75.7955 439.655 73.2075 439.595C70.6195 439.535 71.5085 446.842 74.5835 451.161C79.5335 458.111 85.2185 459.451 85.5225 458.743" fill="#ffffff" fill-rule="evenodd" opacity="1" stroke="none"/>
<path d="M96.035 419.499C96.396 418.024 94.104 417.461 93.743 418.938C93.382 420.413 95.674 420.976 96.035 419.499" fill="#ffffff" fill-rule="evenodd" opacity="1" stroke="none"/>
<path d="M111.508 430.932C112.32 430.276 109.666 425.479 105.788 422.66C102.57 420.321 98.1094 418.962 97.6064 419.883C97.1044 420.804 103.151 422.96 105.147 424.703C107.665 426.904 110.64 431.633 111.508 430.932" fill="#ffffff" fill-rule="evenodd" opacity="1" stroke="none"/>
</g>
</g>
<g opacity="0.5">
<clipPath id="ClipPath_20">
<path d="M172.134 477.537L231.035 477.537L231.035 425.424L172.134 425.424L172.134 477.537Z" fill-rule="evenodd"/>
</clipPath>
<g clip-path="url(#ClipPath_20)">
<path d="M197.232 476.43C181.785 471.507 180.095 457.288 180.095 457.288C177.927 455.767 172.134 453.092 172.134 453.092L176.212 435.588C176.212 435.588 182.59 435.749 185.207 435.342C185.207 435.342 193.007 423.334 209.039 425.744C220.179 427.419 234.532 438.973 230.265 457.307L230.221 457.496C225.946 475.829 207.965 479.851 197.232 476.43" fill="#ffc800" fill-rule="evenodd" opacity="1" stroke="none"/>
</g>
</g>
<g opacity="0.699997">
<clipPath id="ClipPath_21">
<path d="M172.308 475.26L228.574 475.26L228.574 427.597L172.308 427.597L172.308 475.26Z" fill-rule="evenodd"/>
</clipPath>
<g clip-path="url(#ClipPath_21)">
<path d="M197.657 474.248C183.529 469.745 181.983 456.74 181.983 456.74C180 455.349 172.308 452.345 172.308 452.345L176.038 436.335C176.038 436.335 184.265 437.04 186.658 436.668C186.658 436.668 193.792 425.685 208.456 427.889C218.645 429.421 231.773 439.988 227.87 456.757L227.829 456.931C223.92 473.698 207.474 477.377 197.657 474.248" fill="#ffc800" fill-rule="evenodd" opacity="1" stroke="none"/>
</g>
</g>
<path d="M173.702 439.142L202.461 440.416L202.408 441.611L173.649 440.336L173.702 439.142Z" fill="#182e35" fill-rule="evenodd" opacity="1" stroke="none"/>
<path d="M171.453 448.805L171.933 447.71L198.298 459.267L197.818 460.362L171.453 448.805Z" fill="#182e35" fill-rule="evenodd" opacity="1" stroke="none"/>
<path d="M202.572 446.77L202.572 446.77C202.802 445.783 201.618 445.352 200.891 445.183C199.561 444.873 197.753 444.918 196.074 445.287C196.17 445.391 196.275 445.495 196.387 445.6C197.805 446.927 200.343 448.115 201.718 447.698C202.18 447.557 202.459 447.254 202.572 446.77M200.818 454.305C201.071 453.217 199.703 452.492 198.455 452.201C197.085 451.882 195.189 451.915 193.859 452.595C195.229 453.675 196.954 454.527 198.412 454.866C199.061 455.018 200.595 455.265 200.818 454.305M191.108 448.287C191.473 446.722 193.264 445.624 195.364 445.047C194.936 444.443 194.767 443.866 194.883 443.37C195.482 440.795 201.052 441 201.288 441.01L201.272 441.408C201.217 441.406 195.797 441.205 195.271 443.46C195.175 443.871 195.358 444.389 195.781 444.94C197.569 444.513 199.522 444.455 200.981 444.795C202.464 445.14 203.185 445.893 202.96 446.86C202.816 447.478 202.427 447.899 201.833 448.079C200.307 448.543 197.644 447.322 196.115 445.891C195.936 445.724 195.776 445.557 195.634 445.391C193.594 445.917 191.833 446.932 191.496 448.377L191.496 448.378C191.19 449.696 192.129 451.133 193.538 452.332C194.88 451.571 196.823 451.412 198.545 451.813C200.454 452.258 201.474 453.247 201.206 454.395C200.991 455.318 199.94 455.631 198.322 455.255C196.772 454.894 194.906 453.943 193.497 452.806C192.931 453.183 192.51 453.707 192.347 454.409C191.973 456.014 195.449 458.307 196.82 459.055L196.629 459.405C196.417 459.289 191.44 456.545 191.959 454.319L191.959 454.318C192.132 453.573 192.578 452.986 193.193 452.551C191.541 451.116 190.801 449.606 191.108 448.287" fill="#182e35" fill-rule="evenodd" opacity="1" stroke="none"/>
<path d="M159.529 452.488L164.637 430.56L176.705 433.371L171.597 455.299L159.529 452.488Z" fill="#c8c8c8" fill-rule="evenodd" opacity="1" stroke="none"/>
<path d="M160.109 450.002C158.123 448.18 156.653 445.23 157.752 440.515C158.85 435.799 161.472 433.802 164.059 433.046L160.109 450.002Z" fill="#c8c8c8" fill-rule="evenodd" opacity="1" stroke="none"/>
<path d="M160.109 450.002C159.541 449.481 159.017 448.87 158.584 448.149L163.259 433.322C163.527 433.214 163.791 433.122 164.059 433.046L160.109 450.002Z" fill="#a7a8a7" fill-rule="evenodd" opacity="1" stroke="none"/>
<path d="M169.146 455.405L172.407 431.694L173.46 431.94L170.199 455.65L169.146 455.405Z" fill="#a7a8a7" fill-rule="evenodd" opacity="1" stroke="none"/>
<path d="M165.96 454.662L169.221 430.951L170.274 431.197L167.013 454.907L165.96 454.662Z" fill="#a7a8a7" fill-rule="evenodd" opacity="1" stroke="none"/>
<path d="M162.774 453.92L166.035 430.209L167.088 430.455L163.827 454.165L162.774 453.92Z" fill="#a7a8a7" fill-rule="evenodd" opacity="1" stroke="none"/>
<g opacity="0.5">
<clipPath id="ClipPath_22">
<path d="M185.61 472.896L225.443 472.896L225.443 431.951L185.61 431.951L185.61 472.896Z" fill-rule="evenodd"/>
</clipPath>
<g clip-path="url(#ClipPath_22)">
<path d="M211.43 432.125C211.108 432.897 215.015 434.905 218.778 440.485C220.45 442.964 221.367 451.104 223.955 451.136C226.544 451.168 225.575 443.87 222.451 439.586C217.426 432.691 211.726 431.414 211.43 432.125" fill="#ffffff" fill-rule="evenodd" opacity="1" stroke="none"/>
<path d="M201.35 471.483C201.006 472.962 203.303 473.5 203.648 472.018C203.993 470.54 201.695 470.002 201.35 471.483" fill="#ffffff" fill-rule="evenodd" opacity="1" stroke="none"/>
<path d="M185.752 460.221C184.948 460.886 187.654 465.653 191.562 468.429C194.806 470.733 199.282 472.042 199.775 471.116C200.267 470.189 194.196 468.1 192.182 466.379C189.639 464.207 186.612 459.51 185.752 460.221" fill="#ffffff" fill-rule="evenodd" opacity="1" stroke="none"/>
</g>
</g>
<path d="M228.725 462.324C226.6 467.429 222.786 471.38 218.546 473.997L215.713 469.889L211.024 468.338L212.161 463.581L207.261 461.495L207.59 459.149L204.655 458.435L208.797 458.442L209.766 459.862L215.378 459.363L217.333 463.313L222.852 460.983L224.174 462.8L228.725 462.324Z" fill="#ffffff" fill-rule="evenodd" opacity="1" stroke="none"/>
<path d="M247.048 455.768C248.581 461.626 247.877 467.596 245.917 472.688L240.725 470.987L235.612 472.744L233.449 467.845L227.796 469.276L226.527 467.014L223.497 468.338L227.109 465.597L228.896 466.192L233.455 462.037L237.778 464.183L241.041 458.494L243.398 459.2L247.048 455.768Z" fill="#ffc800" fill-rule="evenodd" opacity="1" stroke="none"/>
<g opacity="0.300003">
<clipPath id="ClipPath_23">
<path d="M102.393 478.928L161.289 478.928L161.289 426.815L102.393 426.815L102.393 478.928Z" fill-rule="evenodd"/>
</clipPath>
<g clip-path="url(#ClipPath_23)">
<path d="M120.997 427.942C136.551 423.367 145.916 434.199 145.916 434.199C148.564 434.245 154.861 433.215 154.861 433.215L161.289 449.999C161.289 449.999 155.915 453.438 153.975 455.242C153.975 455.242 154.24 469.558 139.61 476.543C129.444 481.396 111.082 479.865 104.346 462.288L104.276 462.106C97.5483 444.525 110.19 431.121 120.997 427.942" fill="#ffc800" fill-rule="evenodd" opacity="1" stroke="none"/>
</g>
</g>
<g opacity="0.300003">
<clipPath id="ClipPath_24">
<path d="M104.852 476.621L161.014 476.621L161.014 428.957L104.852 428.957L104.852 476.621Z" fill-rule="evenodd"/>
</clipPath>
<g clip-path="url(#ClipPath_24)">
<path d="M121.868 429.988C136.094 425.803 144.66 435.71 144.66 435.71C147.082 435.752 155.136 433.932 155.136 433.932L161.015 449.283C161.015 449.283 153.805 453.308 152.03 454.957C152.03 454.957 152.274 468.051 138.892 474.44C129.594 478.879 112.799 477.479 106.639 461.401L106.575 461.235C100.42 445.155 111.983 432.896 121.868 429.988" fill="#ffc800" fill-rule="evenodd" opacity="1" stroke="none"/>
</g>
</g>
<path d="M161.377 445.65L136.84 460.705L136.215 459.686L160.752 444.631L161.377 445.65Z" fill="#182e35" fill-rule="evenodd" opacity="1" stroke="none"/>
<path d="M157.827 436.385L158.043 437.561L129.728 442.757L129.513 441.581L157.827 436.385Z" fill="#182e35" fill-rule="evenodd" opacity="1" stroke="none"/>
<path d="M133.189 455.504L133.189 455.504C133.552 456.45 134.774 456.144 135.471 455.877C136.746 455.389 138.219 454.339 139.403 453.093C139.265 453.061 139.119 453.032 138.968 453.008C137.05 452.703 134.282 453.141 133.377 454.257C133.073 454.632 133.011 455.04 133.189 455.504M130.421 448.28C130.821 449.323 132.36 449.157 133.557 448.699C134.871 448.195 136.423 447.107 137.143 445.798C135.404 445.671 133.497 445.931 132.099 446.467C131.477 446.705 130.068 447.359 130.421 448.28M141.835 447.825C142.41 449.326 141.541 451.239 140.125 452.893C140.817 453.154 141.281 453.537 141.463 454.014C142.409 456.482 137.681 459.432 137.479 459.556L137.27 459.217C137.316 459.189 141.919 456.319 141.091 454.156C140.94 453.762 140.499 453.436 139.84 453.216C138.597 454.571 137.012 455.713 135.613 456.249C134.192 456.794 133.172 456.574 132.817 455.647C132.59 455.055 132.677 454.488 133.067 454.006C134.072 452.766 136.962 452.286 139.03 452.615C139.272 452.653 139.498 452.701 139.709 452.759C141.104 451.181 141.994 449.354 141.463 447.968C140.979 446.704 139.396 446.04 137.557 445.836C136.871 447.218 135.351 448.438 133.699 449.071C131.869 449.772 130.471 449.523 130.049 448.422C129.71 447.538 130.405 446.689 131.957 446.095C133.443 445.525 135.521 445.267 137.325 445.42C137.583 444.791 137.638 444.122 137.38 443.448C136.79 441.909 132.627 441.957 131.072 442.105L131.034 441.708C131.275 441.685 136.935 441.171 137.752 443.305L137.752 443.306C138.026 444.02 137.986 444.756 137.72 445.461C139.892 445.725 141.351 446.561 141.835 447.825" fill="#182e35" fill-rule="evenodd" opacity="1" stroke="none"/>
<path d="M165.641 426.655L173.693 447.681L162.121 452.113L154.069 431.087L165.641 426.655Z" fill="#c8c8c8" fill-rule="evenodd" opacity="1" stroke="none"/>
<path d="M166.553 429.039C169.219 429.436 172.089 431.056 173.82 435.578C175.552 440.099 174.499 443.222 172.78 445.298L166.553 429.039Z" fill="#c8c8c8" fill-rule="evenodd" opacity="1" stroke="none"/>
<path d="M166.554 429.039C167.316 429.153 168.093 429.365 168.855 429.72L173.289 444.621C173.127 444.86 172.96 445.084 172.781 445.298L166.554 429.039Z" fill="#a7a8a7" fill-rule="evenodd" opacity="1" stroke="none"/>
<path d="M156.041 429.626L166.622 451.094L165.613 451.48L155.031 430.013L156.041 429.626Z" fill="#a7a8a7" fill-rule="evenodd" opacity="1" stroke="none"/>
<path d="M159.096 428.456L169.677 449.924L168.668 450.311L158.087 428.843L159.096 428.456Z" fill="#a7a8a7" fill-rule="evenodd" opacity="1" stroke="none"/>
<path d="M162.15 427.286L172.731 448.754L171.722 449.141L161.141 427.673L162.15 427.286Z" fill="#a7a8a7" fill-rule="evenodd" opacity="1" stroke="none"/>
<g opacity="0.5">
<clipPath id="ClipPath_25">
<path d="M112.504 474.064L139.6 474.064L139.6 431.39L112.504 431.39L112.504 474.064Z" fill-rule="evenodd"/>
</clipPath>
<g clip-path="url(#ClipPath_25)">
<path d="M134.055 472.597C133.889 471.777 129.529 472.302 123.285 469.788C120.512 468.671 115.192 462.441 113.03 463.865C110.868 465.289 115.758 470.791 120.746 472.59C128.771 475.487 134.208 473.352 134.055 472.597" fill="#ffffff" fill-rule="evenodd" opacity="1" stroke="none"/>
<path d="M120.357 434.348C119.814 432.93 117.61 433.772 118.153 435.192C118.696 436.61 120.901 435.768 120.357 434.348" fill="#ffffff" fill-rule="evenodd" opacity="1" stroke="none"/>
<path d="M139.587 434.939C139.881 433.938 134.969 431.504 130.176 431.394C126.198 431.303 121.757 432.726 121.868 433.769C121.979 434.813 128.178 433.142 130.811 433.44C134.134 433.815 139.273 436.009 139.587 434.939" fill="#ffffff" fill-rule="evenodd" opacity="1" stroke="none"/>
</g>
</g>
</g>
</g>
<g opacity="1">
<clipPath id="ClipPath_26">
<path d="M0 0L750 0L750 500L0 500L0 0Z" fill-rule="evenodd"/>
</clipPath>
<g clip-path="url(#ClipPath_26)">
<g opacity="0.5">
<clipPath id="ClipPath_27">
<path d="M198.298 223.485L251.577 223.485L251.577 167.231L198.298 167.231L198.298 223.485Z" fill-rule="evenodd"/>
</clipPath>
<g clip-path="url(#ClipPath_27)">
<path d="M205.645 179.179C216.98 167.587 230.443 172.461 230.443 172.461C232.777 171.207 237.767 167.232 237.767 167.232L251.577 178.734C251.577 178.734 248.569 184.361 247.758 186.882C247.758 186.882 254.985 199.243 245.633 212.487C239.135 221.689 222.367 229.326 207.901 217.281L207.751 217.157C193.289 205.106 197.769 187.233 205.645 179.179" fill="#ffc800" fill-rule="evenodd" opacity="1" stroke="none"/>
</g>
</g>
<g opacity="0.699997">
<clipPath id="ClipPath_28">
<path d="M200.684 221.062L250.987 221.062L250.987 167.722L200.684 167.722L200.684 221.062Z" fill-rule="evenodd"/>
</clipPath>
<g clip-path="url(#ClipPath_28)">
<path d="M207.404 180.538C217.771 169.935 230.085 174.393 230.085 174.393C232.219 173.246 238.356 167.722 238.356 167.722L250.987 178.243C250.987 178.243 246.664 185.278 245.921 187.584C245.921 187.584 252.532 198.889 243.978 211.002C238.035 219.419 222.698 226.404 209.467 215.388L209.33 215.273C196.103 204.252 200.201 187.905 207.404 180.538" fill="#ffc800" fill-rule="evenodd" opacity="1" stroke="none"/>
</g>
</g>
</g>
</g>
<path d="M249.528 174.897L235.477 200.022L234.433 199.438L248.484 174.314L249.528 174.897Z" fill="#182e35" fill-rule="evenodd" opacity="1" stroke="none"/>
<path d="M241.904 168.548L242.667 169.469L220.502 187.837L219.739 186.917L241.904 168.548Z" fill="#182e35" fill-rule="evenodd" opacity="1" stroke="none"/>
<g opacity="1">
<clipPath id="ClipPath_29">
<path d="M0 0L750 0L750 500L0 500L0 0Z" fill-rule="evenodd"/>
</clipPath>
<g clip-path="url(#ClipPath_29)">
<path d="M229.75 197.268L229.75 197.268C230.529 197.916 231.446 197.052 231.923 196.479C232.797 195.429 233.569 193.793 233.993 192.128C233.857 192.167 233.716 192.214 233.572 192.267C231.75 192.938 229.549 194.672 229.304 196.088C229.222 196.564 229.368 196.95 229.75 197.268M223.805 192.318C224.663 193.032 225.925 192.136 226.745 191.151C227.646 190.069 228.468 188.361 228.457 186.867C226.877 187.606 225.341 188.765 224.383 189.916C223.957 190.428 223.047 191.687 223.805 192.318M233.541 186.343C234.776 187.372 234.953 189.466 234.526 191.601C235.257 191.49 235.849 191.598 236.241 191.924C238.272 193.616 235.588 198.5 235.473 198.707L235.125 198.514C235.152 198.466 237.765 193.713 235.986 192.231C235.662 191.961 235.117 191.891 234.434 192.021C234.012 193.811 233.188 195.582 232.229 196.734C231.255 197.903 230.259 198.21 229.495 197.574C229.008 197.169 228.806 196.631 228.912 196.02C229.183 194.448 231.469 192.616 233.435 191.893C233.664 191.808 233.885 191.74 234.097 191.687C234.543 189.629 234.427 187.6 233.286 186.65C232.246 185.784 230.541 185.978 228.836 186.698C228.914 188.239 228.183 190.047 227.051 191.406C225.798 192.911 224.456 193.378 223.55 192.624C222.821 192.018 223.014 190.938 224.077 189.661C225.095 188.438 226.783 187.197 228.431 186.449C228.349 185.774 228.069 185.163 227.516 184.702C227.515 184.702 227.515 184.702 227.515 184.701C226.249 183.647 222.639 185.723 221.355 186.612L221.128 186.284C221.327 186.147 226.014 182.933 227.77 184.395L227.771 184.396C228.358 184.885 228.683 185.547 228.796 186.292C230.819 185.46 232.501 185.477 233.541 186.343" fill="#182e35" fill-rule="evenodd" opacity="1" stroke="none"/>
<path d="M243.967 156.24L261.267 170.65L253.336 180.171L236.036 165.761L243.967 156.24Z" fill="#c8c8c8" fill-rule="evenodd" opacity="1" stroke="none"/>
<path d="M245.928 157.874C248.448 156.917 251.743 156.929 255.464 160.028C259.184 163.127 259.791 166.365 259.305 169.017L245.928 157.874Z" fill="#c8c8c8" fill-rule="evenodd" opacity="1" stroke="none"/>
<path d="M245.928 157.874C246.649 157.601 247.43 157.407 248.269 157.344L259.418 168.178C259.394 168.465 259.358 168.743 259.305 169.017L245.928 157.874Z" fill="#a7a8a7" fill-rule="evenodd" opacity="1" stroke="none"/>
<path d="M237.043 163.523L256.765 177.083L256.073 177.913L236.351 164.354L237.043 163.523Z" fill="#a7a8a7" fill-rule="evenodd" opacity="1" stroke="none"/>
<path d="M239.136 161.01L258.858 174.57L258.166 175.4L238.444 161.841L239.136 161.01Z" fill="#a7a8a7" fill-rule="evenodd" opacity="1" stroke="none"/>
<path d="M241.23 158.496L260.952 172.056L260.26 172.886L240.538 159.327L241.23 158.496Z" fill="#a7a8a7" fill-rule="evenodd" opacity="1" stroke="none"/>
<g opacity="0.5">
<clipPath id="ClipPath_30">
<path d="M206.285 218.437L238.903 218.437L238.903 175.635L206.285 175.635L206.285 218.437Z" fill-rule="evenodd"/>
</clipPath>
<g clip-path="url(#ClipPath_30)">
<path d="M238.858 211.758C238.312 211.124 234.765 213.713 228.089 214.57C225.123 214.95 217.438 212.115 216.247 214.414C215.057 216.712 222.012 219.123 227.243 218.256C235.66 216.861 239.361 212.342 238.858 211.758" fill="#ffffff" fill-rule="evenodd" opacity="1" stroke="none"/>
<path d="M208.217 185.08C207.05 184.108 205.538 185.92 206.707 186.893C207.874 187.865 209.386 186.053 208.217 185.08" fill="#ffffff" fill-rule="evenodd" opacity="1" stroke="none"/>
<path d="M225.283 176.199C225.05 175.182 219.575 175.459 215.34 177.705C211.825 179.569 208.645 182.981 209.252 183.837C209.859 184.693 214.451 180.206 216.894 179.179C219.976 177.883 225.532 177.286 225.283 176.199" fill="#ffffff" fill-rule="evenodd" opacity="1" stroke="none"/>
</g>
</g>
</g>
</g>
<g opacity="1">
<clipPath id="ClipPath_31">
<path d="M0 0L750 0L750 500L0 500L0 0Z" fill-rule="evenodd"/>
</clipPath>
<g clip-path="url(#ClipPath_31)">
<path d="M592.447 114.377C592.447 145.157 567.481 170.123 536.701 170.123C524.262 170.123 512.777 166.044 503.491 159.13L476.181 166.102L487.551 140.673C483.327 132.834 480.955 123.866 480.955 114.377C480.955 83.5957 505.921 58.6307 536.701 58.6307C567.481 58.6307 592.447 83.5957 592.447 114.377" fill="#ffffff" fill-rule="evenodd" opacity="1" stroke="none"/>
<path d="M592.447 114.377C592.57 78.6587 557.825 51.4587 523.218 60.6177C498.315 66.5367 480.169 90.9117 481.463 116.44C481.795 124.799 484.029 133.069 487.962 140.451L488.072 140.656L487.978 140.864L476.542 166.263L476.084 165.719C476.259 165.673 503.407 158.821 503.56 158.781C507.684 161.87 512.231 164.392 517.041 166.247C528.951 170.834 542.521 171.054 554.589 166.943C557.457 166.007 560.725 164.522 563.38 163.144C564.935 162.142 566.778 161.193 568.275 160.119C568.775 159.72 571.653 157.633 572.121 157.251C584.864 146.701 592.345 130.947 592.447 114.377M592.447 114.377C592.472 131.114 584.658 147.633 571.517 158.033C556.374 170.293 535.066 173.722 516.842 166.773C512.021 164.942 507.453 162.45 503.299 159.388C504.619 159.383 476.006 166.449 476.279 166.485L475.488 166.689L475.821 165.941L487.123 140.482L487.138 140.895C483.074 133.417 480.797 124.979 480.532 116.474C479.891 99.3967 487.491 82.4447 500.599 71.5007C537.17 41.2027 592.218 66.8907 592.447 114.377" fill="#182e35" fill-rule="evenodd" opacity="1" stroke="none"/>
<path d="M510.423 123.743C509.739 123.154 509.091 122.467 508.594 121.695C509.739 122.21 510.924 122.63 512.11 122.989C512.191 123.021 512.273 123.056 512.355 123.087C512.373 123.094 512.392 123.1 512.411 123.107C512.812 124.579 514.007 125.622 515.405 126.259C517.186 127.07 519.128 127.583 521.047 127.94C521.781 128.172 522.521 128.38 523.266 128.555C524.168 128.767 525.081 128.931 525.995 129.077C523.87 128.885 521.758 128.563 519.687 128.031C516.445 127.198 512.993 125.955 510.423 123.743M563.641 123.069C563.451 123.162 563.256 123.244 563.063 123.333C564.793 122.172 566.382 120.81 567.75 119.186C568.45 118.355 569.075 117.432 569.598 116.457C570.012 116.049 570.383 115.607 570.67 115.104C570.727 115.005 570.753 114.896 570.803 114.794C570.75 115.11 570.685 115.428 570.59 115.749C569.576 119.16 566.731 121.549 563.641 123.069M542.672 94.5434C539.227 94.2924 535.765 94.3454 532.385 94.7494C530.451 94.9794 528.487 95.3294 526.539 95.8064C524.387 96.0624 522.248 96.3864 520.141 96.7844C512.997 98.1344 503.886 100.017 500.933 107.643C500.835 107.895 500.772 108.149 500.696 108.402C500.743 107.674 500.871 106.952 501.122 106.267C501.729 104.609 502.986 103.296 504.39 102.271C507.408 100.068 511.022 98.4994 514.513 97.2204C521.617 94.6164 529.231 93.4734 536.786 93.8884C538.753 93.9964 540.722 94.2134 542.672 94.5434M503.4 115.875C502.228 114.277 501.54 112.383 501.799 110.29C502.2 107.052 504.421 104.299 507.091 102.569C510.35 100.457 514.242 99.5474 517.99 98.7314C518.186 98.6884 518.384 98.6524 518.58 98.6104C515.925 99.8834 513.449 101.474 511.301 103.431C508.873 105.642 506.913 108.726 507.482 112.138C507.607 112.888 507.863 113.579 508.185 114.235C507.105 115.419 506.342 116.825 506.21 118.403C505.164 117.661 504.213 116.824 503.4 115.875M510.973 121.014C509.857 120.532 508.764 119.992 507.726 119.381C507.566 117.972 508.121 116.666 508.997 115.59C509.425 116.169 509.924 116.697 510.466 117.186C510.509 118.618 510.944 120.001 511.665 121.261C511.433 121.183 511.203 121.098 510.973 121.014M568.449 115.528C567.788 116.146 566.998 116.657 566.269 117.151C563.439 119.069 560.404 120.685 557.235 121.97C554.708 122.994 552.104 123.808 549.455 124.435C549.979 123.904 550.396 123.278 550.673 122.55C550.713 122.539 550.753 122.531 550.793 122.52C553.757 121.725 557.12 120.681 559.117 118.182C560.093 116.961 560.623 115.434 560.443 113.863C560.279 112.425 559.574 111.151 558.646 110.068C559.836 109.285 560.803 108.186 561.062 106.744C561.316 105.331 560.947 103.923 560.322 102.657C560.094 102.193 559.822 101.762 559.53 101.346C562.202 102.541 564.908 103.984 566.994 105.993C568.304 107.255 569.334 108.862 569.511 110.708C569.664 112.292 569.268 113.866 568.58 115.286C568.539 115.369 568.49 115.446 568.449 115.528M510.591 115.51C510.347 115.238 510.125 114.951 509.919 114.652C510.33 114.275 510.764 113.931 511.221 113.618C511.111 113.858 510.993 114.094 510.902 114.345C510.763 114.733 510.665 115.122 510.591 115.51M558.826 116.171C557.714 118.737 554.618 119.988 552.125 120.734C551.763 120.842 551.394 120.931 551.03 121.033C551.227 118.321 549.313 116.015 547.175 114.336C547.182 114.335 547.189 114.334 547.196 114.332C550.68 113.53 554.314 112.417 557.509 110.733C558.891 112.25 559.718 114.115 558.826 116.171M519.938 110.7C523.448 110.265 527.044 110.205 530.571 110.451C533.952 110.687 537.364 111.286 540.532 112.52C541.377 112.85 542.253 113.239 543.115 113.681C538.247 114.417 533.27 114.455 528.401 113.739C526.659 113.483 524.929 113.135 523.224 112.695C522.289 112.453 521.362 112.184 520.444 111.888C519.693 111.646 518.807 111.429 518.134 110.983C518.738 110.872 519.341 110.774 519.938 110.7M517.626 108.667C520.033 107.102 522.685 105.892 525.414 105.03C531.64 103.064 538.392 102.832 544.745 104.334C547.957 105.095 551.055 106.302 553.915 107.951C554.735 108.423 555.641 109.027 556.47 109.734C555.944 109.971 555.415 110.182 554.93 110.386C553.229 111.102 551.487 111.721 549.717 112.241C548.369 112.636 547 112.957 545.623 113.238C545.571 113.205 545.519 113.169 545.468 113.137C539.23 109.213 531.527 108.591 524.339 108.857C522.044 108.942 519.711 109.129 517.445 109.587C517.458 109.291 517.524 108.98 517.626 108.667M559.295 107.588C558.917 108.218 558.343 108.697 557.696 109.094C555.14 106.733 551.689 105.207 548.438 104.098C541.735 101.809 534.363 101.537 527.489 103.211C524.371 103.97 521.355 105.166 518.55 106.729C518.611 106.624 518.669 106.525 518.721 106.435C519.489 105.125 520.494 103.968 521.622 102.956C525.972 99.0524 532.06 97.2684 537.849 96.6874C537.997 96.6904 538.145 96.6884 538.293 96.6924C544.508 96.8704 550.754 97.9174 556.579 100.131C556.661 100.202 556.75 100.267 556.83 100.34C558.649 101.992 560.787 105.098 559.295 107.588M511.709 116.582C511.813 115.035 512.439 113.641 513.358 112.42C514.37 111.964 515.434 111.611 516.518 111.337C516.966 111.957 517.68 112.428 518.576 112.76C520.377 113.428 522.242 113.95 524.113 114.378C530.952 115.942 538.104 116.048 545 114.773C546.453 115.736 547.743 116.914 548.591 118.358C549.164 119.335 549.421 120.476 549.164 121.539C546.375 122.229 543.533 122.738 540.691 123.106C540.456 122.721 540.208 122.342 539.939 121.97C537.777 118.987 534.731 117.01 531.139 116.201C527.5 115.383 523.521 115.464 519.827 115.828C517.779 116.031 515.627 116.527 514.089 117.989C514.054 118.022 514.022 118.061 513.987 118.096C513.181 117.665 512.411 117.16 511.709 116.582M525.347 126.602C525.15 126.588 524.953 126.588 524.757 126.571C523.009 126.423 521.27 126.14 519.568 125.712C519.073 125.587 518.54 125.462 518.005 125.317C517.738 125.177 517.468 125.042 517.208 124.888C517.048 124.793 516.89 124.683 516.731 124.581C519.548 125.443 522.429 126.122 525.347 126.602M541.432 124.431C543.718 124.103 545.989 123.672 548.238 123.149C547.487 123.93 546.461 124.444 545.456 124.793C544.319 125.187 543.145 125.413 541.96 125.585C541.796 125.196 541.623 124.81 541.432 124.431M540.535 124.547C540.755 124.925 540.96 125.308 541.151 125.696C541.127 125.7 541.103 125.703 541.079 125.706C540.533 125.776 539.985 125.829 539.438 125.896C538.657 125.941 537.874 125.977 537.091 125.992C533.076 126.074 529.063 125.754 525.108 125.079C529.398 125.353 533.712 125.281 537.989 124.853C538.839 124.768 539.687 124.659 540.535 124.547M516.764 119.309C516.363 119.172 515.956 119.017 515.548 118.847C516.737 117.875 518.367 117.488 519.863 117.307C523.359 116.885 527.14 116.696 530.616 117.354C533.566 117.912 536.186 119.298 538.232 121.434C531.058 121.566 523.634 121.666 516.764 119.309M539.682 123.225C532.133 124.11 524.361 124.003 516.889 122.587C515.922 122.404 514.949 122.191 513.983 121.944C513.977 121.222 514.229 120.484 514.639 119.853C518.192 121.454 522.17 122.128 526.022 122.481C530.168 122.861 534.332 122.771 538.488 122.694C538.767 122.689 538.939 122.534 539.022 122.338C539.06 122.385 539.102 122.426 539.139 122.474C539.333 122.719 539.504 122.973 539.682 123.225M541.921 127.445C542.005 127.667 542.075 127.894 542.152 128.119C539.182 128.394 536.195 128.501 533.228 128.408C535.023 128.278 536.815 128.097 538.602 127.875C539.706 127.738 540.817 127.609 541.921 127.445M511.795 118.249C512.242 118.561 512.698 118.856 513.167 119.12C512.919 119.508 512.716 119.924 512.564 120.358C512.206 119.697 511.937 118.996 511.795 118.249M525.975 97.3464C527.067 97.2054 528.161 97.0894 529.258 96.9904C526.597 97.9124 524.081 99.1774 521.876 100.863C519.472 102.702 517.393 105.14 516.39 108.03C515.136 108.874 513.938 109.844 512.944 110.977C512.66 111.102 512.373 111.218 512.095 111.357C511.091 111.859 510.075 112.505 509.175 113.277C509.12 113.141 509.045 113.016 508.998 112.876C507.921 109.644 509.791 106.613 512.092 104.467C514.64 102.091 517.881 100.325 521.081 99.0014C522.673 98.3434 524.311 97.7984 525.975 97.3464M549.078 127.194C547.014 127.559 544.923 127.851 542.821 128.063C542.753 127.821 542.685 127.58 542.609 127.341C543.072 127.264 543.533 127.178 543.991 127.078C544.398 126.99 544.813 126.88 545.23 126.757C549.088 126.16 552.883 125.189 556.541 123.805C559.801 122.571 562.939 121.008 565.881 119.136C562.077 123.161 556.289 125.423 551.119 126.726C550.442 126.896 549.76 127.045 549.078 127.194M502.663 117.453C503.731 118.705 505.02 119.714 506.422 120.554C507.321 123.794 510.52 126.016 513.404 127.376C516.795 128.975 520.452 129.942 524.165 130.41C530.299 131.184 536.544 130.758 542.665 129.849C543.852 134.54 543.654 139.64 543.37 144.462C543.362 144.585 543.552 144.578 543.559 144.458C543.877 139.675 544.217 134.535 543.239 129.764C544.442 129.579 545.642 129.383 546.834 129.167C548.661 128.837 550.523 128.438 552.37 127.941C555.622 127.283 558.863 126.441 561.948 125.273C565.558 123.907 568.994 121.811 570.974 118.394C572.867 115.127 572.782 111.374 570.84 108.146C570.008 106.764 568.941 105.527 567.752 104.404C566.994 103.586 566.179 102.83 565.35 102.163C562.519 99.8864 559.213 98.2964 555.784 97.1404C554.88 96.8354 553.964 96.5574 553.039 96.3024C552.909 96.2394 552.779 96.1714 552.649 96.1104C549.115 94.4514 545.279 93.5154 541.424 92.9824C533.314 91.8594 524.979 92.5334 517.145 94.9084C513.204 96.1024 509.366 97.7244 505.789 99.7684C502.652 101.561 499.801 104.025 499.356 107.816C499.04 110.504 499.852 113.183 501.319 115.424C501.68 116.134 502.122 116.817 502.663 117.453" fill="#182e35" fill-rule="evenodd" opacity="1" stroke="none"/>
</g>
</g>
<path d="M408.645 454.345L566.266 454.345L566.266 447.275L408.645 447.275L408.645 454.345Z" fill="#dcdcdc" fill-rule="evenodd" opacity="1" stroke="none"/>
<path d="M486.934 454.345L566.267 454.345L566.267 447.275L486.934 447.275L486.934 454.345Z" fill="#a7a8a7" fill-rule="evenodd" opacity="1" stroke="none"/>
<path d="M491.746 454.339L645.359 454.339L665.444 350.009L511.831 350.009L491.746 454.339Z" fill="#a7a8a7" fill-rule="evenodd" opacity="1" stroke="none"/>
<path d="M497.995 454.339L651.608 454.339L671.693 350.009L518.08 350.009L497.995 454.339Z" fill="#dcdcdc" fill-rule="evenodd" opacity="1" stroke="none"/>
<g opacity="1">
<clipPath id="ClipPath_32">
<path d="M0 0L750 0L750 500L0 500L0 0Z" fill-rule="evenodd"/>
</clipPath>
<g clip-path="url(#ClipPath_32)">
<path d="M575.494 402.174C575.042 407.338 578.862 411.524 584.026 411.524C589.19 411.524 593.743 407.338 594.195 402.174C594.647 397.01 590.826 392.824 585.662 392.824C580.498 392.824 575.946 397.01 575.494 402.174" fill="#ffffff" fill-rule="evenodd" opacity="1" stroke="none"/>
</g>
</g>
</g>
</svg>
